0
SECTION
2
HEADER
9
$INSUNITS
70
4
9
$ACADVER
1
AC1014
9
$HANDSEED
5
FFFF
0
ENDSEC
0
SECTION
2
TABLES
0
TABLE
2
VPORT
5
8
100
AcDbSymbolTable
0
ENDTAB
0
TABLE
2
LTYPE
5
5
100
AcDbSymbolTable
0
LTYPE
5
14
100
AcDbSymbolTableRecord
100
AcDbLinetypeTableRecord
2
BYBLOCK
70
0
0
LTYPE
5
15
100
AcDbSymbolTableRecord
100
AcDbLinetypeTableRecord
2
BYLAYER
70
0
0
ENDTAB
0
TABLE
2
LAYER
5
2
100
AcDbSymbolTable
70
2
0
LAYER
5
50
100
AcDbSymbolTableRecord
100
AcDbLayerTableRecord
2
0
70
0
6
CONTINUOUS
0
ENDTAB
0
TABLE
2
STYLE
5
3
100
AcDbSymbolTable
70
1
0
STYLE
5
11
100
AcDbSymbolTableRecord
100
AcDbTextStyleTableRecord
2
STANDARD
70
0
0
ENDTAB
0
TABLE
2
VIEW
5
6
100
AcDbSymbolTable
70
0
0
ENDTAB
0
TABLE
2
UCS
5
7
100
AcDbSymbolTable
70
0
0
ENDTAB
0
TABLE
2
APPID
5
9
100
AcDbSymbolTable
70
2
0
APPID
5
12
100
AcDbSymbolTableRecord
100
AcDbRegAppTableRecord
2
ACAD
70
0
0
ENDTAB
0
TABLE
2
DIMSTYLE
5
A
100
AcDbSymbolTable
70
1
0
ENDTAB
0
TABLE
2
BLOCK_RECORD
5
1
100
AcDbSymbolTable
70
1
0
BLOCK_RECORD
5
1F
100
AcDbSymbolTableRecord
100
AcDbBlockTableRecord
2
*MODEL_SPACE
0
BLOCK_RECORD
5
1B
100
AcDbSymbolTableRecord
100
AcDbBlockTableRecord
2
*PAPER_SPACE
0
ENDTAB
0
ENDSEC
0
SECTION
2
BLOCKS
0
BLOCK
5
20
100
AcDbEntity
100
AcDbBlockBegin
2
*MODEL_SPACE
0
ENDBLK
5
21
100
AcDbEntity
100
AcDbBlockEnd
0
BLOCK
5
1C
100
AcDbEntity
100
AcDbBlockBegin
2
*PAPER_SPACE
0
ENDBLK
5
1D
100
AcDbEntity
100
AcDbBlockEnd
0
ENDSEC
0
SECTION
2
ENTITIES
0
LINE
5
100
100
AcDbEntity
8
0
100
AcDbLine
10
-118.98650000000006
20
-63.567678857240104
30
0
11
-99.806499999999986
21
-63.567678857240104
31
0
0
LINE
5
101
100
AcDbEntity
8
0
100
AcDbLine
10
-118.98649999999998
20
-123.38467885724013
30
0
11
-118.98650000000006
21
-63.567678857240104
31
0
0
LINE
5
102
100
AcDbEntity
8
0
100
AcDbLine
10
-99.806499999999986
20
-123.38467885724013
30
0
11
-118.98649999999998
21
-123.38467885724013
31
0
0
LINE
5
103
100
AcDbEntity
8
0
100
AcDbLine
10
-99.806499999999986
20
-120.20967885724012
30
0
11
-99.806499999999986
21
-123.38467885724013
31
0
0
LINE
5
104
100
AcDbEntity
8
0
100
AcDbLine
10
-89.817499999999995
20
-120.20967885724011
30
0
11
-99.806499999999986
21
-120.20967885724012
31
0
0
LINE
5
105
100
AcDbEntity
8
0
100
AcDbLine
10
89.817499999999995
20
-120.20967885724011
30
0
11
-89.817499999999967
21
-120.20967885724011
31
0
0
LINE
5
106
100
AcDbEntity
8
0
100
AcDbLine
10
-99.806499999999986
20
-66.742678857240094
30
0
11
-89.817499999999995
21
-66.742678857240094
31
0
0
LINE
5
107
100
AcDbEntity
8
0
100
AcDbLine
10
-99.806499999999986
20
-63.567678857240104
30
0
11
-99.806499999999986
21
-66.742678857240094
31
0
0
LINE
5
108
100
AcDbEntity
8
0
100
AcDbLine
10
-89.817499999999981
20
-66.742678857240094
30
0
11
89.817499999999981
21
-66.742678857240094
31
0
0
LINE
5
109
100
AcDbEntity
8
0
100
AcDbLine
10
89.817499999999995
20
-120.20967885724011
30
0
11
99.806499999999986
21
-120.20967885724012
31
0
0
LINE
5
110
100
AcDbEntity
8
0
100
AcDbLine
10
99.806499999999986
20
-120.20967885724012
30
0
11
99.806499999999986
21
-123.38467885724013
31
0
0
LINE
5
111
100
AcDbEntity
8
0
100
AcDbLine
10
99.806499999999986
20
-123.38467885724013
30
0
11
118.98650000000001
21
-123.38467885724013
31
0
0
LINE
5
112
100
AcDbEntity
8
0
100
AcDbLine
10
118.98650000000001
20
-123.38467885724013
30
0
11
118.98650000000001
21
-63.567678857240104
31
0
0
LINE
5
113
100
AcDbEntity
8
0
100
AcDbLine
10
99.806499999999986
20
-66.742678857240094
30
0
11
89.817499999999995
21
-66.742678857240094
31
0
0
LINE
5
114
100
AcDbEntity
8
0
100
AcDbLine
10
99.806499999999986
20
-63.567678857240104
30
0
11
99.806499999999986
21
-66.742678857240094
31
0
0
LINE
5
115
100
AcDbEntity
8
0
100
AcDbLine
10
118.98650000000001
20
-63.567678857240104
30
0
11
99.806499999999986
21
-63.567678857240104
31
0
0
LINE
5
116
100
AcDbEntity
8
0
100
AcDbLine
10
-89.817499999999967
20
-120.20967885724011
30
0
11
-89.817499999999967
21
-110.1846163572401
31
0
0
LINE
5
117
100
AcDbEntity
8
0
100
AcDbLine
10
-89.817499999999967
20
-103.5012413572401
30
0
11
-89.817499999999967
21
-83.451116357240096
31
0
0
LINE
5
118
100
AcDbEntity
8
0
100
AcDbLine
10
-89.817499999999995
20
-66.742678857240094
30
0
11
-89.817499999999995
21
-76.767741357240098
31
0
0
LINE
5
119
100
AcDbEntity
8
0
100
AcDbLine
10
-88.021149999999977
20
-116.8679913572401
30
0
11
-88.021149999999977
21
-96.817866357240106
31
0
0
LINE
5
120
100
AcDbEntity
8
0
100
AcDbLine
10
-88.021149999999977
20
-90.134491357240108
30
0
11
-88.021149999999977
21
-70.084366357240128
31
0
0
LINE
5
121
100
AcDbEntity
8
0
100
AcDbLine
10
-86.224799999999959
20
-120.20967885724011
30
0
11
-86.224799999999959
21
-110.1846163572401
31
0
0
LINE
5
122
100
AcDbEntity
8
0
100
AcDbLine
10
-84.42844999999997
20
-116.8679913572401
30
0
11
-84.42844999999997
21
-96.817866357240106
31
0
0
LINE
5
123
100
AcDbEntity
8
0
100
AcDbLine
10
-86.224799999999959
20
-103.5012413572401
30
0
11
-86.224799999999959
21
-83.451116357240096
31
0
0
LINE
5
124
100
AcDbEntity
8
0
100
AcDbLine
10
-84.42844999999997
20
-90.134491357240108
30
0
11
-84.42844999999997
21
-70.084366357240128
31
0
0
LINE
5
125
100
AcDbEntity
8
0
100
AcDbLine
10
-86.224799999999988
20
-66.742678857240094
30
0
11
-86.224799999999988
21
-76.767741357240098
31
0
0
LINE
5
126
100
AcDbEntity
8
0
100
AcDbLine
10
-82.632099999999951
20
-120.20967885724011
30
0
11
-82.632099999999951
21
-110.1846163572401
31
0
0
LINE
5
127
100
AcDbEntity
8
0
100
AcDbLine
10
-80.835749999999962
20
-116.8679913572401
30
0
11
-80.835749999999962
21
-96.817866357240106
31
0
0
LINE
5
128
100
AcDbEntity
8
0
100
AcDbLine
10
-82.632099999999951
20
-103.5012413572401
30
0
11
-82.632099999999951
21
-83.451116357240096
31
0
0
LINE
5
129
100
AcDbEntity
8
0
100
AcDbLine
10
-80.835749999999962
20
-90.134491357240108
30
0
11
-80.835749999999962
21
-70.084366357240128
31
0
0
LINE
5
130
100
AcDbEntity
8
0
100
AcDbLine
10
-82.632099999999994
20
-66.742678857240094
30
0
11
-82.632099999999994
21
-76.767741357240098
31
0
0
LINE
5
131
100
AcDbEntity
8
0
100
AcDbLine
10
-79.039399999999944
20
-120.20967885724011
30
0
11
-79.039399999999944
21
-110.1846163572401
31
0
0
LINE
5
132
100
AcDbEntity
8
0
100
AcDbLine
10
-77.243049999999954
20
-116.8679913572401
30
0
11
-77.243049999999954
21
-96.817866357240106
31
0
0
LINE
5
133
100
AcDbEntity
8
0
100
AcDbLine
10
-79.039399999999944
20
-103.5012413572401
30
0
11
-79.039399999999944
21
-83.451116357240096
31
0
0
LINE
5
134
100
AcDbEntity
8
0
100
AcDbLine
10
-77.243049999999954
20
-90.134491357240108
30
0
11
-77.243049999999954
21
-70.084366357240128
31
0
0
LINE
5
135
100
AcDbEntity
8
0
100
AcDbLine
10
-79.039399999999986
20
-66.742678857240094
30
0
11
-79.039399999999986
21
-76.767741357240098
31
0
0
LINE
5
136
100
AcDbEntity
8
0
100
AcDbLine
10
-75.44669999999995
20
-120.20967885724011
30
0
11
-75.44669999999995
21
-110.1846163572401
31
0
0
LINE
5
137
100
AcDbEntity
8
0
100
AcDbLine
10
-73.650349999999946
20
-116.8679913572401
30
0
11
-73.650349999999946
21
-96.817866357240106
31
0
0
LINE
5
138
100
AcDbEntity
8
0
100
AcDbLine
10
-75.44669999999995
20
-103.5012413572401
30
0
11
-75.44669999999995
21
-83.451116357240096
31
0
0
LINE
5
139
100
AcDbEntity
8
0
100
AcDbLine
10
-73.650349999999946
20
-90.134491357240108
30
0
11
-73.650349999999946
21
-70.084366357240128
31
0
0
LINE
5
140
100
AcDbEntity
8
0
100
AcDbLine
10
-75.446699999999979
20
-66.742678857240094
30
0
11
-75.446699999999979
21
-76.767741357240098
31
0
0
LINE
5
141
100
AcDbEntity
8
0
100
AcDbLine
10
-71.853999999999942
20
-120.20967885724011
30
0
11
-71.853999999999942
21
-110.1846163572401
31
0
0
LINE
5
142
100
AcDbEntity
8
0
100
AcDbLine
10
-70.057649999999953
20
-116.8679913572401
30
0
11
-70.057649999999953
21
-96.817866357240106
31
0
0
LINE
5
143
100
AcDbEntity
8
0
100
AcDbLine
10
-71.853999999999942
20
-103.5012413572401
30
0
11
-71.853999999999942
21
-83.451116357240096
31
0
0
LINE
5
144
100
AcDbEntity
8
0
100
AcDbLine
10
-70.057649999999953
20
-90.134491357240108
30
0
11
-70.057649999999953
21
-70.084366357240128
31
0
0
LINE
5
145
100
AcDbEntity
8
0
100
AcDbLine
10
-71.853999999999985
20
-66.742678857240094
30
0
11
-71.853999999999985
21
-76.767741357240098
31
0
0
LINE
5
146
100
AcDbEntity
8
0
100
AcDbLine
10
-68.261299999999935
20
-120.20967885724011
30
0
11
-68.261299999999935
21
-110.1846163572401
31
0
0
LINE
5
147
100
AcDbEntity
8
0
100
AcDbLine
10
-66.464949999999945
20
-116.8679913572401
30
0
11
-66.464949999999945
21
-96.817866357240106
31
0
0
LINE
5
148
100
AcDbEntity
8
0
100
AcDbLine
10
-68.261299999999935
20
-103.5012413572401
30
0
11
-68.261299999999935
21
-83.451116357240096
31
0
0
LINE
5
149
100
AcDbEntity
8
0
100
AcDbLine
10
-66.464949999999945
20
-90.134491357240108
30
0
11
-66.464949999999945
21
-70.084366357240128
31
0
0
LINE
5
150
100
AcDbEntity
8
0
100
AcDbLine
10
-68.261299999999977
20
-66.742678857240094
30
0
11
-68.261299999999977
21
-76.767741357240098
31
0
0
LINE
5
151
100
AcDbEntity
8
0
100
AcDbLine
10
-64.668599999999941
20
-120.20967885724011
30
0
11
-64.668599999999941
21
-110.1846163572401
31
0
0
LINE
5
152
100
AcDbEntity
8
0
100
AcDbLine
10
-62.872249999999937
20
-116.8679913572401
30
0
11
-62.872249999999937
21
-96.817866357240106
31
0
0
LINE
5
153
100
AcDbEntity
8
0
100
AcDbLine
10
-64.668599999999941
20
-103.5012413572401
30
0
11
-64.668599999999941
21
-83.451116357240096
31
0
0
LINE
5
154
100
AcDbEntity
8
0
100
AcDbLine
10
-62.872249999999937
20
-90.134491357240108
30
0
11
-62.872249999999937
21
-70.084366357240128
31
0
0
LINE
5
155
100
AcDbEntity
8
0
100
AcDbLine
10
-64.668599999999969
20
-66.742678857240094
30
0
11
-64.668599999999969
21
-76.767741357240098
31
0
0
LINE
5
156
100
AcDbEntity
8
0
100
AcDbLine
10
-61.075899999999933
20
-120.20967885724011
30
0
11
-61.075899999999933
21
-110.1846163572401
31
0
0
LINE
5
157
100
AcDbEntity
8
0
100
AcDbLine
10
-59.279549999999936
20
-116.8679913572401
30
0
11
-59.279549999999936
21
-96.817866357240106
31
0
0
LINE
5
158
100
AcDbEntity
8
0
100
AcDbLine
10
-61.075899999999933
20
-103.5012413572401
30
0
11
-61.075899999999933
21
-83.451116357240096
31
0
0
LINE
5
159
100
AcDbEntity
8
0
100
AcDbLine
10
-59.279549999999936
20
-90.134491357240108
30
0
11
-59.279549999999936
21
-70.084366357240128
31
0
0
LINE
5
160
100
AcDbEntity
8
0
100
AcDbLine
10
-61.075899999999962
20
-66.742678857240094
30
0
11
-61.075899999999962
21
-76.767741357240098
31
0
0
LINE
5
161
100
AcDbEntity
8
0
100
AcDbLine
10
-57.483199999999925
20
-120.20967885724011
30
0
11
-57.483199999999925
21
-110.1846163572401
31
0
0
LINE
5
162
100
AcDbEntity
8
0
100
AcDbLine
10
-55.686849999999936
20
-116.8679913572401
30
0
11
-55.686849999999936
21
-96.817866357240106
31
0
0
LINE
5
163
100
AcDbEntity
8
0
100
AcDbLine
10
-57.483199999999925
20
-103.5012413572401
30
0
11
-57.483199999999925
21
-83.451116357240096
31
0
0
LINE
5
164
100
AcDbEntity
8
0
100
AcDbLine
10
-55.686849999999936
20
-90.134491357240108
30
0
11
-55.686849999999936
21
-70.084366357240128
31
0
0
LINE
5
165
100
AcDbEntity
8
0
100
AcDbLine
10
-57.483199999999961
20
-66.742678857240094
30
0
11
-57.483199999999961
21
-76.767741357240098
31
0
0
LINE
5
166
100
AcDbEntity
8
0
100
AcDbLine
10
-53.890499999999918
20
-120.20967885724011
30
0
11
-53.890499999999918
21
-110.1846163572401
31
0
0
LINE
5
167
100
AcDbEntity
8
0
100
AcDbLine
10
-52.094149999999928
20
-116.8679913572401
30
0
11
-52.094149999999928
21
-96.817866357240106
31
0
0
LINE
5
168
100
AcDbEntity
8
0
100
AcDbLine
10
-53.890499999999918
20
-103.5012413572401
30
0
11
-53.890499999999918
21
-83.451116357240096
31
0
0
LINE
5
169
100
AcDbEntity
8
0
100
AcDbLine
10
-52.094149999999928
20
-90.134491357240108
30
0
11
-52.094149999999928
21
-70.084366357240128
31
0
0
LINE
5
170
100
AcDbEntity
8
0
100
AcDbLine
10
-53.89049999999996
20
-66.742678857240094
30
0
11
-53.89049999999996
21
-76.767741357240098
31
0
0
LINE
5
171
100
AcDbEntity
8
0
100
AcDbLine
10
-50.297799999999917
20
-120.20967885724011
30
0
11
-50.297799999999917
21
-110.1846163572401
31
0
0
LINE
5
172
100
AcDbEntity
8
0
100
AcDbLine
10
-48.50144999999992
20
-116.8679913572401
30
0
11
-48.50144999999992
21
-96.817866357240106
31
0
0
LINE
5
173
100
AcDbEntity
8
0
100
AcDbLine
10
-50.297799999999917
20
-103.5012413572401
30
0
11
-50.297799999999917
21
-83.451116357240096
31
0
0
LINE
5
174
100
AcDbEntity
8
0
100
AcDbLine
10
-48.50144999999992
20
-90.134491357240108
30
0
11
-48.50144999999992
21
-70.084366357240128
31
0
0
LINE
5
175
100
AcDbEntity
8
0
100
AcDbLine
10
-50.297799999999953
20
-66.742678857240094
30
0
11
-50.297799999999953
21
-76.767741357240098
31
0
0
LINE
5
176
100
AcDbEntity
8
0
100
AcDbLine
10
-46.705099999999902
20
-120.20967885724011
30
0
11
-46.705099999999902
21
-110.1846163572401
31
0
0
LINE
5
177
100
AcDbEntity
8
0
100
AcDbLine
10
-44.908749999999912
20
-116.8679913572401
30
0
11
-44.908749999999912
21
-96.817866357240106
31
0
0
LINE
5
178
100
AcDbEntity
8
0
100
AcDbLine
10
-46.705099999999902
20
-103.5012413572401
30
0
11
-46.705099999999902
21
-83.451116357240096
31
0
0
LINE
5
179
100
AcDbEntity
8
0
100
AcDbLine
10
-44.908749999999912
20
-90.134491357240108
30
0
11
-44.908749999999912
21
-70.084366357240128
31
0
0
LINE
5
180
100
AcDbEntity
8
0
100
AcDbLine
10
-46.705099999999938
20
-66.742678857240094
30
0
11
-46.705099999999938
21
-76.767741357240098
31
0
0
LINE
5
181
100
AcDbEntity
8
0
100
AcDbLine
10
-43.112399999999901
20
-120.20967885724011
30
0
11
-43.112399999999901
21
-110.1846163572401
31
0
0
LINE
5
182
100
AcDbEntity
8
0
100
AcDbLine
10
-41.316049999999905
20
-116.8679913572401
30
0
11
-41.316049999999905
21
-96.817866357240106
31
0
0
LINE
5
183
100
AcDbEntity
8
0
100
AcDbLine
10
-43.112399999999901
20
-103.5012413572401
30
0
11
-43.112399999999901
21
-83.451116357240096
31
0
0
LINE
5
184
100
AcDbEntity
8
0
100
AcDbLine
10
-41.316049999999905
20
-90.134491357240108
30
0
11
-41.316049999999905
21
-70.084366357240128
31
0
0
LINE
5
185
100
AcDbEntity
8
0
100
AcDbLine
10
-43.112399999999937
20
-66.742678857240094
30
0
11
-43.112399999999937
21
-76.767741357240098
31
0
0
LINE
5
186
100
AcDbEntity
8
0
100
AcDbLine
10
-39.519699999999894
20
-120.20967885724011
30
0
11
-39.519699999999894
21
-110.1846163572401
31
0
0
LINE
5
187
100
AcDbEntity
8
0
100
AcDbLine
10
-37.723349999999904
20
-116.8679913572401
30
0
11
-37.723349999999904
21
-96.817866357240106
31
0
0
LINE
5
188
100
AcDbEntity
8
0
100
AcDbLine
10
-39.519699999999894
20
-103.5012413572401
30
0
11
-39.519699999999894
21
-83.451116357240096
31
0
0
LINE
5
189
100
AcDbEntity
8
0
100
AcDbLine
10
-37.723349999999904
20
-90.134491357240108
30
0
11
-37.723349999999904
21
-70.084366357240128
31
0
0
LINE
5
190
100
AcDbEntity
8
0
100
AcDbLine
10
-39.519699999999929
20
-66.742678857240094
30
0
11
-39.519699999999929
21
-76.767741357240098
31
0
0
LINE
5
191
100
AcDbEntity
8
0
100
AcDbLine
10
-35.926999999999893
20
-120.20967885724011
30
0
11
-35.926999999999893
21
-110.1846163572401
31
0
0
LINE
5
192
100
AcDbEntity
8
0
100
AcDbLine
10
-34.130649999999896
20
-116.8679913572401
30
0
11
-34.130649999999896
21
-96.817866357240106
31
0
0
LINE
5
193
100
AcDbEntity
8
0
100
AcDbLine
10
-35.926999999999893
20
-103.5012413572401
30
0
11
-35.926999999999893
21
-83.451116357240096
31
0
0
LINE
5
194
100
AcDbEntity
8
0
100
AcDbLine
10
-34.130649999999896
20
-90.134491357240108
30
0
11
-34.130649999999896
21
-70.084366357240128
31
0
0
LINE
5
195
100
AcDbEntity
8
0
100
AcDbLine
10
-35.926999999999929
20
-66.742678857240094
30
0
11
-35.926999999999929
21
-76.767741357240098
31
0
0
LINE
5
196
100
AcDbEntity
8
0
100
AcDbLine
10
-32.334299999999885
20
-120.20967885724011
30
0
11
-32.334299999999885
21
-110.1846163572401
31
0
0
LINE
5
197
100
AcDbEntity
8
0
100
AcDbLine
10
-30.537949999999896
20
-116.8679913572401
30
0
11
-30.537949999999896
21
-96.817866357240106
31
0
0
LINE
5
198
100
AcDbEntity
8
0
100
AcDbLine
10
-32.334299999999885
20
-103.5012413572401
30
0
11
-32.334299999999885
21
-83.451116357240096
31
0
0
LINE
5
199
100
AcDbEntity
8
0
100
AcDbLine
10
-30.537949999999896
20
-90.134491357240108
30
0
11
-30.537949999999896
21
-70.084366357240128
31
0
0
LINE
5
200
100
AcDbEntity
8
0
100
AcDbLine
10
-32.334299999999921
20
-66.742678857240094
30
0
11
-32.334299999999921
21
-76.767741357240098
31
0
0
LINE
5
201
100
AcDbEntity
8
0
100
AcDbLine
10
-28.741599999999885
20
-120.20967885724011
30
0
11
-28.741599999999885
21
-110.1846163572401
31
0
0
LINE
5
202
100
AcDbEntity
8
0
100
AcDbLine
10
-26.945249999999888
20
-116.8679913572401
30
0
11
-26.945249999999888
21
-96.817866357240106
31
0
0
LINE
5
203
100
AcDbEntity
8
0
100
AcDbLine
10
-28.741599999999885
20
-103.5012413572401
30
0
11
-28.741599999999885
21
-83.451116357240096
31
0
0
LINE
5
204
100
AcDbEntity
8
0
100
AcDbLine
10
-26.945249999999888
20
-90.134491357240108
30
0
11
-26.945249999999888
21
-70.084366357240128
31
0
0
LINE
5
205
100
AcDbEntity
8
0
100
AcDbLine
10
-28.74159999999992
20
-66.742678857240094
30
0
11
-28.74159999999992
21
-76.767741357240098
31
0
0
LINE
5
206
100
AcDbEntity
8
0
100
AcDbLine
10
-25.148899999999877
20
-120.20967885724011
30
0
11
-25.148899999999877
21
-110.1846163572401
31
0
0
LINE
5
207
100
AcDbEntity
8
0
100
AcDbLine
10
-23.352549999999887
20
-116.8679913572401
30
0
11
-23.352549999999887
21
-96.817866357240106
31
0
0
LINE
5
208
100
AcDbEntity
8
0
100
AcDbLine
10
-25.148899999999877
20
-103.5012413572401
30
0
11
-25.148899999999877
21
-83.451116357240096
31
0
0
LINE
5
209
100
AcDbEntity
8
0
100
AcDbLine
10
-23.352549999999887
20
-90.134491357240108
30
0
11
-23.352549999999887
21
-70.084366357240128
31
0
0
LINE
5
210
100
AcDbEntity
8
0
100
AcDbLine
10
-25.148899999999912
20
-66.742678857240094
30
0
11
-25.148899999999912
21
-76.767741357240098
31
0
0
LINE
5
211
100
AcDbEntity
8
0
100
AcDbLine
10
-21.556199999999876
20
-120.20967885724011
30
0
11
-21.556199999999876
21
-110.1846163572401
31
0
0
LINE
5
212
100
AcDbEntity
8
0
100
AcDbLine
10
-19.759849999999879
20
-116.8679913572401
30
0
11
-19.759849999999879
21
-96.817866357240106
31
0
0
LINE
5
213
100
AcDbEntity
8
0
100
AcDbLine
10
-21.556199999999876
20
-103.5012413572401
30
0
11
-21.556199999999876
21
-83.451116357240096
31
0
0
LINE
5
214
100
AcDbEntity
8
0
100
AcDbLine
10
-19.759849999999879
20
-90.134491357240108
30
0
11
-19.759849999999879
21
-70.084366357240128
31
0
0
LINE
5
215
100
AcDbEntity
8
0
100
AcDbLine
10
-21.556199999999912
20
-66.742678857240094
30
0
11
-21.556199999999912
21
-76.767741357240098
31
0
0
LINE
5
216
100
AcDbEntity
8
0
100
AcDbLine
10
-17.963499999999868
20
-120.20967885724011
30
0
11
-17.963499999999868
21
-110.1846163572401
31
0
0
LINE
5
217
100
AcDbEntity
8
0
100
AcDbLine
10
-16.167149999999879
20
-116.8679913572401
30
0
11
-16.167149999999879
21
-96.817866357240106
31
0
0
LINE
5
218
100
AcDbEntity
8
0
100
AcDbLine
10
-17.963499999999868
20
-103.5012413572401
30
0
11
-17.963499999999868
21
-83.451116357240096
31
0
0
LINE
5
219
100
AcDbEntity
8
0
100
AcDbLine
10
-16.167149999999879
20
-90.134491357240108
30
0
11
-16.167149999999879
21
-70.084366357240128
31
0
0
LINE
5
220
100
AcDbEntity
8
0
100
AcDbLine
10
-17.963499999999904
20
-66.742678857240094
30
0
11
-17.963499999999904
21
-76.767741357240098
31
0
0
LINE
5
221
100
AcDbEntity
8
0
100
AcDbLine
10
-14.370799999999866
20
-120.20967885724011
30
0
11
-14.370799999999866
21
-110.1846163572401
31
0
0
LINE
5
222
100
AcDbEntity
8
0
100
AcDbLine
10
-12.574449999999873
20
-116.8679913572401
30
0
11
-12.574449999999873
21
-96.817866357240106
31
0
0
LINE
5
223
100
AcDbEntity
8
0
100
AcDbLine
10
-14.370799999999866
20
-103.5012413572401
30
0
11
-14.370799999999866
21
-83.451116357240096
31
0
0
LINE
5
224
100
AcDbEntity
8
0
100
AcDbLine
10
-12.574449999999873
20
-90.134491357240108
30
0
11
-12.574449999999873
21
-70.084366357240128
31
0
0
LINE
5
225
100
AcDbEntity
8
0
100
AcDbLine
10
-14.370799999999901
20
-66.742678857240094
30
0
11
-14.370799999999901
21
-76.767741357240098
31
0
0
LINE
5
226
100
AcDbEntity
8
0
100
AcDbLine
10
-10.778099999999862
20
-120.20967885724011
30
0
11
-10.778099999999862
21
-110.1846163572401
31
0
0
LINE
5
227
100
AcDbEntity
8
0
100
AcDbLine
10
-8.9817499999998685
20
-116.8679913572401
30
0
11
-8.9817499999998685
21
-96.817866357240106
31
0
0
LINE
5
228
100
AcDbEntity
8
0
100
AcDbLine
10
-10.778099999999862
20
-103.5012413572401
30
0
11
-10.778099999999862
21
-83.451116357240096
31
0
0
LINE
5
229
100
AcDbEntity
8
0
100
AcDbLine
10
-8.9817499999998685
20
-90.134491357240108
30
0
11
-8.9817499999998685
21
-70.084366357240128
31
0
0
LINE
5
230
100
AcDbEntity
8
0
100
AcDbLine
10
-10.778099999999897
20
-66.742678857240094
30
0
11
-10.778099999999897
21
-76.767741357240098
31
0
0
LINE
5
231
100
AcDbEntity
8
0
100
AcDbLine
10
-7.1853999999998486
20
-120.20967885724011
30
0
11
-7.1853999999998486
21
-110.1846163572401
31
0
0
LINE
5
232
100
AcDbEntity
8
0
100
AcDbLine
10
-5.3890499999998553
20
-116.8679913572401
30
0
11
-5.3890499999998553
21
-96.817866357240106
31
0
0
LINE
5
233
100
AcDbEntity
8
0
100
AcDbLine
10
-7.1853999999998486
20
-103.5012413572401
30
0
11
-7.1853999999998486
21
-83.451116357240096
31
0
0
LINE
5
234
100
AcDbEntity
8
0
100
AcDbLine
10
-5.3890499999998553
20
-90.134491357240108
30
0
11
-5.3890499999998553
21
-70.084366357240128
31
0
0
LINE
5
235
100
AcDbEntity
8
0
100
AcDbLine
10
-7.1853999999998841
20
-66.742678857240094
30
0
11
-7.1853999999998841
21
-76.767741357240098
31
0
0
LINE
5
236
100
AcDbEntity
8
0
100
AcDbLine
10
-3.5926999999998444
20
-120.20967885724011
30
0
11
-3.5926999999998444
21
-110.1846163572401
31
0
0
LINE
5
237
100
AcDbEntity
8
0
100
AcDbLine
10
-1.7963499999998511
20
-116.8679913572401
30
0
11
-1.7963499999998511
21
-96.817866357240106
31
0
0
LINE
5
238
100
AcDbEntity
8
0
100
AcDbLine
10
-3.5926999999998444
20
-103.5012413572401
30
0
11
-3.5926999999998444
21
-83.451116357240096
31
0
0
LINE
5
239
100
AcDbEntity
8
0
100
AcDbLine
10
-1.7963499999998511
20
-90.134491357240108
30
0
11
-1.7963499999998511
21
-70.084366357240128
31
0
0
LINE
5
240
100
AcDbEntity
8
0
100
AcDbLine
10
-3.5926999999998799
20
-66.742678857240094
30
0
11
-3.5926999999998799
21
-76.767741357240098
31
0
0
LINE
5
241
100
AcDbEntity
8
0
100
AcDbLine
10
1.5987211554602254e-13
20
-120.20967885724011
30
0
11
1.5987211554602254e-13
21
-110.1846163572401
31
0
0
LINE
5
242
100
AcDbEntity
8
0
100
AcDbLine
10
1.7963500000001531
20
-116.8679913572401
30
0
11
1.7963500000001531
21
-96.817866357240106
31
0
0
LINE
5
243
100
AcDbEntity
8
0
100
AcDbLine
10
1.5987211554602254e-13
20
-103.5012413572401
30
0
11
1.5987211554602254e-13
21
-83.451116357240096
31
0
0
LINE
5
244
100
AcDbEntity
8
0
100
AcDbLine
10
1.7963500000001531
20
-90.134491357240108
30
0
11
1.7963500000001531
21
-70.084366357240128
31
0
0
LINE
5
245
100
AcDbEntity
8
0
100
AcDbLine
10
1.2434497875801753e-13
20
-66.742678857240094
30
0
11
1.2434497875801753e-13
21
-76.767741357240098
31
0
0
LINE
5
246
100
AcDbEntity
8
0
100
AcDbLine
10
3.5927000000001641
20
-120.20967885724011
30
0
11
3.5927000000001641
21
-110.1846163572401
31
0
0
LINE
5
247
100
AcDbEntity
8
0
100
AcDbLine
10
5.3890500000001573
20
-116.8679913572401
30
0
11
5.3890500000001573
21
-96.817866357240106
31
0
0
LINE
5
248
100
AcDbEntity
8
0
100
AcDbLine
10
3.5927000000001641
20
-103.5012413572401
30
0
11
3.5927000000001641
21
-83.451116357240096
31
0
0
LINE
5
249
100
AcDbEntity
8
0
100
AcDbLine
10
5.3890500000001573
20
-90.134491357240108
30
0
11
5.3890500000001573
21
-70.084366357240128
31
0
0
LINE
5
250
100
AcDbEntity
8
0
100
AcDbLine
10
3.5927000000001286
20
-66.742678857240094
30
0
11
3.5927000000001286
21
-76.767741357240098
31
0
0
LINE
5
251
100
AcDbEntity
8
0
100
AcDbLine
10
7.1854000000001683
20
-120.20967885724011
30
0
11
7.1854000000001683
21
-110.1846163572401
31
0
0
LINE
5
252
100
AcDbEntity
8
0
100
AcDbLine
10
8.9817500000001615
20
-116.8679913572401
30
0
11
8.9817500000001615
21
-96.817866357240106
31
0
0
LINE
5
253
100
AcDbEntity
8
0
100
AcDbLine
10
7.1854000000001683
20
-103.5012413572401
30
0
11
7.1854000000001683
21
-83.451116357240096
31
0
0
LINE
5
254
100
AcDbEntity
8
0
100
AcDbLine
10
8.9817500000001615
20
-90.134491357240108
30
0
11
8.9817500000001615
21
-70.084366357240128
31
0
0
LINE
5
255
100
AcDbEntity
8
0
100
AcDbLine
10
7.1854000000001328
20
-66.742678857240094
30
0
11
7.1854000000001328
21
-76.767741357240098
31
0
0
LINE
5
256
100
AcDbEntity
8
0
100
AcDbLine
10
10.778100000000173
20
-120.20967885724011
30
0
11
10.778100000000173
21
-110.1846163572401
31
0
0
LINE
5
257
100
AcDbEntity
8
0
100
AcDbLine
10
12.574450000000166
20
-116.8679913572401
30
0
11
12.574450000000166
21
-96.817866357240106
31
0
0
LINE
5
258
100
AcDbEntity
8
0
100
AcDbLine
10
10.778100000000173
20
-103.5012413572401
30
0
11
10.778100000000173
21
-83.451116357240096
31
0
0
LINE
5
259
100
AcDbEntity
8
0
100
AcDbLine
10
12.574450000000166
20
-90.134491357240108
30
0
11
12.574450000000166
21
-70.084366357240128
31
0
0
LINE
5
260
100
AcDbEntity
8
0
100
AcDbLine
10
10.778100000000137
20
-66.742678857240094
30
0
11
10.778100000000137
21
-76.767741357240098
31
0
0
LINE
5
261
100
AcDbEntity
8
0
100
AcDbLine
10
14.370800000000177
20
-120.20967885724011
30
0
11
14.370800000000177
21
-110.1846163572401
31
0
0
LINE
5
262
100
AcDbEntity
8
0
100
AcDbLine
10
16.16715000000017
20
-116.8679913572401
30
0
11
16.16715000000017
21
-96.817866357240106
31
0
0
LINE
5
263
100
AcDbEntity
8
0
100
AcDbLine
10
14.370800000000177
20
-103.5012413572401
30
0
11
14.370800000000177
21
-83.451116357240096
31
0
0
LINE
5
264
100
AcDbEntity
8
0
100
AcDbLine
10
16.16715000000017
20
-90.134491357240108
30
0
11
16.16715000000017
21
-70.084366357240128
31
0
0
LINE
5
265
100
AcDbEntity
8
0
100
AcDbLine
10
14.370800000000141
20
-66.742678857240094
30
0
11
14.370800000000141
21
-76.767741357240098
31
0
0
LINE
5
266
100
AcDbEntity
8
0
100
AcDbLine
10
17.963500000000181
20
-120.20967885724011
30
0
11
17.963500000000181
21
-110.1846163572401
31
0
0
LINE
5
267
100
AcDbEntity
8
0
100
AcDbLine
10
19.759850000000174
20
-116.8679913572401
30
0
11
19.759850000000174
21
-96.817866357240106
31
0
0
LINE
5
268
100
AcDbEntity
8
0
100
AcDbLine
10
17.963500000000181
20
-103.5012413572401
30
0
11
17.963500000000181
21
-83.451116357240096
31
0
0
LINE
5
269
100
AcDbEntity
8
0
100
AcDbLine
10
19.759850000000174
20
-90.134491357240108
30
0
11
19.759850000000174
21
-70.084366357240128
31
0
0
LINE
5
270
100
AcDbEntity
8
0
100
AcDbLine
10
17.963500000000145
20
-66.742678857240094
30
0
11
17.963500000000145
21
-76.767741357240098
31
0
0
LINE
5
271
100
AcDbEntity
8
0
100
AcDbLine
10
21.556200000000185
20
-120.20967885724011
30
0
11
21.556200000000185
21
-110.1846163572401
31
0
0
LINE
5
272
100
AcDbEntity
8
0
100
AcDbLine
10
23.352550000000178
20
-116.8679913572401
30
0
11
23.352550000000178
21
-96.817866357240106
31
0
0
LINE
5
273
100
AcDbEntity
8
0
100
AcDbLine
10
21.556200000000185
20
-103.5012413572401
30
0
11
21.556200000000185
21
-83.451116357240096
31
0
0
LINE
5
274
100
AcDbEntity
8
0
100
AcDbLine
10
23.352550000000178
20
-90.134491357240108
30
0
11
23.352550000000178
21
-70.084366357240128
31
0
0
LINE
5
275
100
AcDbEntity
8
0
100
AcDbLine
10
21.55620000000015
20
-66.742678857240094
30
0
11
21.55620000000015
21
-76.767741357240098
31
0
0
LINE
5
276
100
AcDbEntity
8
0
100
AcDbLine
10
25.148900000000189
20
-120.20967885724011
30
0
11
25.148900000000189
21
-110.1846163572401
31
0
0
LINE
5
277
100
AcDbEntity
8
0
100
AcDbLine
10
26.945250000000183
20
-116.8679913572401
30
0
11
26.945250000000183
21
-96.817866357240106
31
0
0
LINE
5
278
100
AcDbEntity
8
0
100
AcDbLine
10
25.148900000000189
20
-103.5012413572401
30
0
11
25.148900000000189
21
-83.451116357240096
31
0
0
LINE
5
279
100
AcDbEntity
8
0
100
AcDbLine
10
26.945250000000183
20
-90.134491357240108
30
0
11
26.945250000000183
21
-70.084366357240128
31
0
0
LINE
5
280
100
AcDbEntity
8
0
100
AcDbLine
10
25.148900000000154
20
-66.742678857240094
30
0
11
25.148900000000154
21
-76.767741357240098
31
0
0
LINE
5
281
100
AcDbEntity
8
0
100
AcDbLine
10
28.741600000000194
20
-120.20967885724011
30
0
11
28.741600000000194
21
-110.1846163572401
31
0
0
LINE
5
282
100
AcDbEntity
8
0
100
AcDbLine
10
30.537950000000187
20
-116.8679913572401
30
0
11
30.537950000000187
21
-96.817866357240106
31
0
0
LINE
5
283
100
AcDbEntity
8
0
100
AcDbLine
10
28.741600000000194
20
-103.5012413572401
30
0
11
28.741600000000194
21
-83.451116357240096
31
0
0
LINE
5
284
100
AcDbEntity
8
0
100
AcDbLine
10
30.537950000000187
20
-90.134491357240108
30
0
11
30.537950000000187
21
-70.084366357240128
31
0
0
LINE
5
285
100
AcDbEntity
8
0
100
AcDbLine
10
28.741600000000158
20
-66.742678857240094
30
0
11
28.741600000000158
21
-76.767741357240098
31
0
0
LINE
5
286
100
AcDbEntity
8
0
100
AcDbLine
10
32.334300000000198
20
-120.20967885724011
30
0
11
32.334300000000198
21
-110.1846163572401
31
0
0
LINE
5
287
100
AcDbEntity
8
0
100
AcDbLine
10
34.130650000000188
20
-116.8679913572401
30
0
11
34.130650000000188
21
-96.817866357240106
31
0
0
LINE
5
288
100
AcDbEntity
8
0
100
AcDbLine
10
32.334300000000198
20
-103.5012413572401
30
0
11
32.334300000000198
21
-83.451116357240096
31
0
0
LINE
5
289
100
AcDbEntity
8
0
100
AcDbLine
10
34.130650000000188
20
-90.134491357240108
30
0
11
34.130650000000188
21
-70.084366357240128
31
0
0
LINE
5
290
100
AcDbEntity
8
0
100
AcDbLine
10
32.334300000000162
20
-66.742678857240094
30
0
11
32.334300000000162
21
-76.767741357240098
31
0
0
LINE
5
291
100
AcDbEntity
8
0
100
AcDbLine
10
35.927000000000206
20
-120.20967885724011
30
0
11
35.927000000000206
21
-110.1846163572401
31
0
0
LINE
5
292
100
AcDbEntity
8
0
100
AcDbLine
10
37.723350000000195
20
-116.8679913572401
30
0
11
37.723350000000195
21
-96.817866357240106
31
0
0
LINE
5
293
100
AcDbEntity
8
0
100
AcDbLine
10
35.927000000000206
20
-103.5012413572401
30
0
11
35.927000000000206
21
-83.451116357240096
31
0
0
LINE
5
294
100
AcDbEntity
8
0
100
AcDbLine
10
37.723350000000195
20
-90.134491357240108
30
0
11
37.723350000000195
21
-70.084366357240128
31
0
0
LINE
5
295
100
AcDbEntity
8
0
100
AcDbLine
10
35.927000000000163
20
-66.742678857240094
30
0
11
35.927000000000163
21
-76.767741357240098
31
0
0
LINE
5
296
100
AcDbEntity
8
0
100
AcDbLine
10
39.519700000000206
20
-120.20967885724011
30
0
11
39.519700000000206
21
-110.1846163572401
31
0
0
LINE
5
297
100
AcDbEntity
8
0
100
AcDbLine
10
41.316050000000203
20
-116.8679913572401
30
0
11
41.316050000000203
21
-96.817866357240106
31
0
0
LINE
5
298
100
AcDbEntity
8
0
100
AcDbLine
10
39.519700000000206
20
-103.5012413572401
30
0
11
39.519700000000206
21
-83.451116357240096
31
0
0
LINE
5
299
100
AcDbEntity
8
0
100
AcDbLine
10
41.316050000000203
20
-90.134491357240108
30
0
11
41.316050000000203
21
-70.084366357240128
31
0
0
LINE
5
300
100
AcDbEntity
8
0
100
AcDbLine
10
39.519700000000171
20
-66.742678857240094
30
0
11
39.519700000000171
21
-76.767741357240098
31
0
0
LINE
5
301
100
AcDbEntity
8
0
100
AcDbLine
10
43.112400000000207
20
-120.20967885724011
30
0
11
43.112400000000207
21
-110.1846163572401
31
0
0
LINE
5
302
100
AcDbEntity
8
0
100
AcDbLine
10
44.908750000000204
20
-116.8679913572401
30
0
11
44.908750000000204
21
-96.817866357240106
31
0
0
LINE
5
303
100
AcDbEntity
8
0
100
AcDbLine
10
43.112400000000207
20
-103.5012413572401
30
0
11
43.112400000000207
21
-83.451116357240096
31
0
0
LINE
5
304
100
AcDbEntity
8
0
100
AcDbLine
10
44.908750000000204
20
-90.134491357240108
30
0
11
44.908750000000204
21
-70.084366357240128
31
0
0
LINE
5
305
100
AcDbEntity
8
0
100
AcDbLine
10
43.112400000000179
20
-66.742678857240094
30
0
11
43.112400000000179
21
-76.767741357240098
31
0
0
LINE
5
306
100
AcDbEntity
8
0
100
AcDbLine
10
46.705100000000215
20
-120.20967885724011
30
0
11
46.705100000000215
21
-110.1846163572401
31
0
0
LINE
5
307
100
AcDbEntity
8
0
100
AcDbLine
10
48.501450000000204
20
-116.8679913572401
30
0
11
48.501450000000204
21
-96.817866357240106
31
0
0
LINE
5
308
100
AcDbEntity
8
0
100
AcDbLine
10
46.705100000000215
20
-103.5012413572401
30
0
11
46.705100000000215
21
-83.451116357240096
31
0
0
LINE
5
309
100
AcDbEntity
8
0
100
AcDbLine
10
48.501450000000204
20
-90.134491357240108
30
0
11
48.501450000000204
21
-70.084366357240128
31
0
0
LINE
5
310
100
AcDbEntity
8
0
100
AcDbLine
10
46.705100000000179
20
-66.742678857240094
30
0
11
46.705100000000179
21
-76.767741357240098
31
0
0
LINE
5
311
100
AcDbEntity
8
0
100
AcDbLine
10
50.297800000000223
20
-120.20967885724011
30
0
11
50.297800000000223
21
-110.1846163572401
31
0
0
LINE
5
312
100
AcDbEntity
8
0
100
AcDbLine
10
52.094150000000212
20
-116.8679913572401
30
0
11
52.094150000000212
21
-96.817866357240106
31
0
0
LINE
5
313
100
AcDbEntity
8
0
100
AcDbLine
10
50.297800000000223
20
-103.5012413572401
30
0
11
50.297800000000223
21
-83.451116357240096
31
0
0
LINE
5
314
100
AcDbEntity
8
0
100
AcDbLine
10
52.094150000000212
20
-90.134491357240108
30
0
11
52.094150000000212
21
-70.084366357240128
31
0
0
LINE
5
315
100
AcDbEntity
8
0
100
AcDbLine
10
50.29780000000018
20
-66.742678857240094
30
0
11
50.29780000000018
21
-76.767741357240098
31
0
0
LINE
5
316
100
AcDbEntity
8
0
100
AcDbLine
10
53.890500000000223
20
-120.20967885724011
30
0
11
53.890500000000223
21
-110.1846163572401
31
0
0
LINE
5
317
100
AcDbEntity
8
0
100
AcDbLine
10
55.68685000000022
20
-116.8679913572401
30
0
11
55.68685000000022
21
-96.817866357240106
31
0
0
LINE
5
318
100
AcDbEntity
8
0
100
AcDbLine
10
53.890500000000223
20
-103.5012413572401
30
0
11
53.890500000000223
21
-83.451116357240096
31
0
0
LINE
5
319
100
AcDbEntity
8
0
100
AcDbLine
10
55.68685000000022
20
-90.134491357240108
30
0
11
55.68685000000022
21
-70.084366357240128
31
0
0
LINE
5
320
100
AcDbEntity
8
0
100
AcDbLine
10
53.890500000000188
20
-66.742678857240094
30
0
11
53.890500000000188
21
-76.767741357240098
31
0
0
LINE
5
321
100
AcDbEntity
8
0
100
AcDbLine
10
57.483200000000224
20
-120.20967885724011
30
0
11
57.483200000000224
21
-110.1846163572401
31
0
0
LINE
5
322
100
AcDbEntity
8
0
100
AcDbLine
10
59.279550000000221
20
-116.8679913572401
30
0
11
59.279550000000221
21
-96.817866357240106
31
0
0
LINE
5
323
100
AcDbEntity
8
0
100
AcDbLine
10
57.483200000000224
20
-103.5012413572401
30
0
11
57.483200000000224
21
-83.451116357240096
31
0
0
LINE
5
324
100
AcDbEntity
8
0
100
AcDbLine
10
59.279550000000221
20
-90.134491357240108
30
0
11
59.279550000000221
21
-70.084366357240128
31
0
0
LINE
5
325
100
AcDbEntity
8
0
100
AcDbLine
10
57.483200000000195
20
-66.742678857240094
30
0
11
57.483200000000195
21
-76.767741357240098
31
0
0
LINE
5
326
100
AcDbEntity
8
0
100
AcDbLine
10
61.075900000000232
20
-120.20967885724011
30
0
11
61.075900000000232
21
-110.1846163572401
31
0
0
LINE
5
327
100
AcDbEntity
8
0
100
AcDbLine
10
62.872250000000221
20
-116.8679913572401
30
0
11
62.872250000000221
21
-96.817866357240106
31
0
0
LINE
5
328
100
AcDbEntity
8
0
100
AcDbLine
10
61.075900000000232
20
-103.5012413572401
30
0
11
61.075900000000232
21
-83.451116357240096
31
0
0
LINE
5
329
100
AcDbEntity
8
0
100
AcDbLine
10
62.872250000000221
20
-90.134491357240108
30
0
11
62.872250000000221
21
-70.084366357240128
31
0
0
LINE
5
330
100
AcDbEntity
8
0
100
AcDbLine
10
61.075900000000196
20
-66.742678857240094
30
0
11
61.075900000000196
21
-76.767741357240098
31
0
0
LINE
5
331
100
AcDbEntity
8
0
100
AcDbLine
10
64.668600000000239
20
-120.20967885724011
30
0
11
64.668600000000239
21
-110.1846163572401
31
0
0
LINE
5
332
100
AcDbEntity
8
0
100
AcDbLine
10
66.464950000000229
20
-116.8679913572401
30
0
11
66.464950000000229
21
-96.817866357240106
31
0
0
LINE
5
333
100
AcDbEntity
8
0
100
AcDbLine
10
64.668600000000239
20
-103.5012413572401
30
0
11
64.668600000000239
21
-83.451116357240096
31
0
0
LINE
5
334
100
AcDbEntity
8
0
100
AcDbLine
10
66.464950000000229
20
-90.134491357240108
30
0
11
66.464950000000229
21
-70.084366357240128
31
0
0
LINE
5
335
100
AcDbEntity
8
0
100
AcDbLine
10
64.668600000000197
20
-66.742678857240094
30
0
11
64.668600000000197
21
-76.767741357240098
31
0
0
LINE
5
336
100
AcDbEntity
8
0
100
AcDbLine
10
68.261300000000233
20
-120.20967885724011
30
0
11
68.261300000000233
21
-110.1846163572401
31
0
0
LINE
5
337
100
AcDbEntity
8
0
100
AcDbLine
10
70.057650000000237
20
-116.8679913572401
30
0
11
70.057650000000237
21
-96.817866357240106
31
0
0
LINE
5
338
100
AcDbEntity
8
0
100
AcDbLine
10
68.261300000000233
20
-103.5012413572401
30
0
11
68.261300000000233
21
-83.451116357240096
31
0
0
LINE
5
339
100
AcDbEntity
8
0
100
AcDbLine
10
70.057650000000237
20
-90.134491357240108
30
0
11
70.057650000000237
21
-70.084366357240128
31
0
0
LINE
5
340
100
AcDbEntity
8
0
100
AcDbLine
10
68.261300000000205
20
-66.742678857240094
30
0
11
68.261300000000205
21
-76.767741357240098
31
0
0
LINE
5
341
100
AcDbEntity
8
0
100
AcDbLine
10
71.854000000000241
20
-120.20967885724011
30
0
11
71.854000000000241
21
-110.1846163572401
31
0
0
LINE
5
342
100
AcDbEntity
8
0
100
AcDbLine
10
73.65035000000023
20
-116.8679913572401
30
0
11
73.65035000000023
21
-96.817866357240106
31
0
0
LINE
5
343
100
AcDbEntity
8
0
100
AcDbLine
10
71.854000000000241
20
-103.5012413572401
30
0
11
71.854000000000241
21
-83.451116357240096
31
0
0
LINE
5
344
100
AcDbEntity
8
0
100
AcDbLine
10
73.65035000000023
20
-90.134491357240108
30
0
11
73.65035000000023
21
-70.084366357240128
31
0
0
LINE
5
345
100
AcDbEntity
8
0
100
AcDbLine
10
71.854000000000212
20
-66.742678857240094
30
0
11
71.854000000000212
21
-76.767741357240098
31
0
0
LINE
5
346
100
AcDbEntity
8
0
100
AcDbLine
10
75.446700000000263
20
-120.20967885724011
30
0
11
75.446700000000263
21
-110.1846163572401
31
0
0
LINE
5
347
100
AcDbEntity
8
0
100
AcDbLine
10
77.243050000000267
20
-116.8679913572401
30
0
11
77.243050000000267
21
-96.817866357240106
31
0
0
LINE
5
348
100
AcDbEntity
8
0
100
AcDbLine
10
75.446700000000263
20
-103.5012413572401
30
0
11
75.446700000000263
21
-83.451116357240096
31
0
0
LINE
5
349
100
AcDbEntity
8
0
100
AcDbLine
10
77.243050000000267
20
-90.134491357240108
30
0
11
77.243050000000267
21
-70.084366357240128
31
0
0
LINE
5
350
100
AcDbEntity
8
0
100
AcDbLine
10
75.446700000000234
20
-66.742678857240094
30
0
11
75.446700000000234
21
-76.767741357240098
31
0
0
LINE
5
351
100
AcDbEntity
8
0
100
AcDbLine
10
79.039400000000256
20
-120.20967885724011
30
0
11
79.039400000000256
21
-110.1846163572401
31
0
0
LINE
5
352
100
AcDbEntity
8
0
100
AcDbLine
10
80.835750000000246
20
-116.8679913572401
30
0
11
80.835750000000246
21
-96.817866357240106
31
0
0
LINE
5
353
100
AcDbEntity
8
0
100
AcDbLine
10
79.039400000000256
20
-103.5012413572401
30
0
11
79.039400000000256
21
-83.451116357240096
31
0
0
LINE
5
354
100
AcDbEntity
8
0
100
AcDbLine
10
80.835750000000246
20
-90.134491357240108
30
0
11
80.835750000000246
21
-70.084366357240128
31
0
0
LINE
5
355
100
AcDbEntity
8
0
100
AcDbLine
10
79.039400000000214
20
-66.742678857240094
30
0
11
79.039400000000214
21
-76.767741357240098
31
0
0
LINE
5
356
100
AcDbEntity
8
0
100
AcDbLine
10
82.632100000000278
20
-120.20967885724011
30
0
11
82.632100000000278
21
-110.1846163572401
31
0
0
LINE
5
357
100
AcDbEntity
8
0
100
AcDbLine
10
84.428450000000268
20
-116.8679913572401
30
0
11
84.428450000000268
21
-96.817866357240106
31
0
0
LINE
5
358
100
AcDbEntity
8
0
100
AcDbLine
10
82.632100000000278
20
-103.5012413572401
30
0
11
82.632100000000278
21
-83.451116357240096
31
0
0
LINE
5
359
100
AcDbEntity
8
0
100
AcDbLine
10
84.428450000000268
20
-90.134491357240108
30
0
11
84.428450000000268
21
-70.084366357240128
31
0
0
LINE
5
360
100
AcDbEntity
8
0
100
AcDbLine
10
82.632100000000236
20
-66.742678857240094
30
0
11
82.632100000000236
21
-76.767741357240098
31
0
0
LINE
5
361
100
AcDbEntity
8
0
100
AcDbLine
10
86.224800000000258
20
-120.20967885724011
30
0
11
86.224800000000258
21
-110.1846163572401
31
0
0
LINE
5
362
100
AcDbEntity
8
0
100
AcDbLine
10
88.021150000000262
20
-116.8679913572401
30
0
11
88.021150000000262
21
-96.817866357240106
31
0
0
LINE
5
363
100
AcDbEntity
8
0
100
AcDbLine
10
86.224800000000258
20
-103.5012413572401
30
0
11
86.224800000000258
21
-83.451116357240096
31
0
0
LINE
5
364
100
AcDbEntity
8
0
100
AcDbLine
10
88.021150000000262
20
-90.134491357240108
30
0
11
88.021150000000262
21
-70.084366357240128
31
0
0
LINE
5
365
100
AcDbEntity
8
0
100
AcDbLine
10
86.224800000000229
20
-66.742678857240094
30
0
11
86.224800000000229
21
-76.767741357240098
31
0
0
LINE
5
366
100
AcDbEntity
8
0
100
AcDbLine
10
89.817500000000038
20
-120.20967885724011
30
0
11
89.817500000000038
21
-110.1846163572401
31
0
0
LINE
5
367
100
AcDbEntity
8
0
100
AcDbLine
10
89.817500000000038
20
-103.5012413572401
30
0
11
89.817500000000038
21
-83.451116357240096
31
0
0
LINE
5
368
100
AcDbEntity
8
0
100
AcDbLine
10
89.817499999999995
20
-66.742678857240094
30
0
11
89.817499999999995
21
-76.767741357240098
31
0
0
LINE
5
369
100
AcDbEntity
8
0
100
AcDbLine
10
-3.5926999999998444
20
-110.1846163572401
30
0
11
3.5927000000001641
21
-110.1846163572401
31
0
0
ENDSEC
0
SECTION
2
OBJECTS
0
DICTIONARY
5
C
100
AcDbDictionary
3
ACAD_GROUP
350
D
3
ACAD_MLINESTYLE
350
17
0
DICTIONARY
5
D
100
AcDbDictionary
0
DICTIONARY
5
1A
330
C
100
AcDbDictionary
0
DICTIONARY
5
17
100
AcDbDictionary
0
ENDSEC
0
EOF
