0
SECTION
2
HEADER
9
$INSUNITS
70
4
9
$ACADVER
1
AC1014
9
$HANDSEED
5
FFFF
0
ENDSEC
0
SECTION
2
TABLES
0
TABLE
2
VPORT
5
8
100
AcDbSymbolTable
0
ENDTAB
0
TABLE
2
LTYPE
5
5
100
AcDbSymbolTable
0
LTYPE
5
14
100
AcDbSymbolTableRecord
100
AcDbLinetypeTableRecord
2
BYBLOCK
70
0
0
LTYPE
5
15
100
AcDbSymbolTableRecord
100
AcDbLinetypeTableRecord
2
BYLAYER
70
0
0
ENDTAB
0
TABLE
2
LAYER
5
2
100
AcDbSymbolTable
70
2
0
LAYER
5
50
100
AcDbSymbolTableRecord
100
AcDbLayerTableRecord
2
0
70
0
6
CONTINUOUS
0
ENDTAB
0
TABLE
2
STYLE
5
3
100
AcDbSymbolTable
70
1
0
STYLE
5
11
100
AcDbSymbolTableRecord
100
AcDbTextStyleTableRecord
2
STANDARD
70
0
0
ENDTAB
0
TABLE
2
VIEW
5
6
100
AcDbSymbolTable
70
0
0
ENDTAB
0
TABLE
2
UCS
5
7
100
AcDbSymbolTable
70
0
0
ENDTAB
0
TABLE
2
APPID
5
9
100
AcDbSymbolTable
70
2
0
APPID
5
12
100
AcDbSymbolTableRecord
100
AcDbRegAppTableRecord
2
ACAD
70
0
0
ENDTAB
0
TABLE
2
DIMSTYLE
5
A
100
AcDbSymbolTable
70
1
0
ENDTAB
0
TABLE
2
BLOCK_RECORD
5
1
100
AcDbSymbolTable
70
1
0
BLOCK_RECORD
5
1F
100
AcDbSymbolTableRecord
100
AcDbBlockTableRecord
2
*MODEL_SPACE
0
BLOCK_RECORD
5
1B
100
AcDbSymbolTableRecord
100
AcDbBlockTableRecord
2
*PAPER_SPACE
0
ENDTAB
0
ENDSEC
0
SECTION
2
BLOCKS
0
BLOCK
5
20
100
AcDbEntity
100
AcDbBlockBegin
2
*MODEL_SPACE
0
ENDBLK
5
21
100
AcDbEntity
100
AcDbBlockEnd
0
BLOCK
5
1C
100
AcDbEntity
100
AcDbBlockBegin
2
*PAPER_SPACE
0
ENDBLK
5
1D
100
AcDbEntity
100
AcDbBlockEnd
0
ENDSEC
0
SECTION
2
ENTITIES
0
LWPOLYLINE
5
100
100
AcDbEntity
8
0
100
AcDbPolyline
90
48
70
1
43
0.0
10
1.5874999999999999
20
74.007502864284902
10
1.5874999999998907
20
86.51051929946199
42
-0.046960187890740537
10
17.702703490973413
20
84.69477194504546
10
16.14666808278324
20
77.877335379343933
10
19.242064203960531
20
77.170831414032619
10
20.79809961215075
20
83.988267979734161
42
-0.10339165061446658
10
52.697269058299696
20
68.626437613428209
10
48.33735472984317
20
63.159277969936397
10
50.81966968667917
20
61.179697849034923
10
55.179584015135646
20
66.646857492526735
42
-0.10339165061446691
10
77.254494199037509
20
38.96579566444732
10
70.954235453905653
20
35.931750960871653
10
72.33181632560391
20
33.071174805281487
10
78.632075070735766
20
36.105219508857168
42
-0.1033916506144668
10
86.510519299461976
20
1.5875000000000039
10
79.517759649730976
20
1.5875000000000039
10
79.517759649730976
20
-1.5875000000000039
10
86.510519299461976
20
-1.5874999999999684
42
-0.10339165061446691
10
78.632075070735752
20
-36.105219508857161
10
72.331816325603896
20
-33.071174805281494
10
70.954235453905653
20
-35.931750960871675
10
77.254494199037538
20
-38.96579566444737
42
-0.10172809301865138
10
55.617251716155181
20
-66.282059542944353
10
46.296777587673006
20
-55.17435101564439
42
2.7474774194546216
10
-46.296777587672999
20
-55.174351015644376
10
-55.617251716155209
20
-66.282059542944339
42
-0.10172809301865138
10
-77.254494199037552
20
-38.965795664447313
10
-70.954235453905682
20
-35.931750960871646
10
-72.331816325603924
20
-33.071174805281473
10
-78.632075070735766
20
-36.105219508857104
42
-0.10339165061446669
10
-86.510519299461947
20
-1.5874999999999861
10
-79.517759649730991
20
-1.5874999999999861
10
-79.517759649730991
20
1.5875000000000128
10
-86.510519299462004
20
1.5875000000000616
42
-0.10339165061446658
10
-78.63207507073578
20
36.105219508857154
10
-72.331816325603924
20
33.071174805281487
10
-70.954235453905682
20
35.931750960871668
10
-77.254494199037538
20
38.965795664447334
42
-0.1033916506144668
10
-55.179584015135681
20
66.646857492526721
10
-50.819669686679177
20
61.179697849034937
10
-48.337354729843163
20
63.159277969936412
10
-52.697269058299725
20
68.626437613428152
42
-0.10339165061446691
10
-20.798099612150686
20
83.988267979734161
10
-19.24206420396051
20
77.170831414032648
10
-16.146668082783215
20
77.877335379343947
10
-17.702703490973452
20
84.694771945045488
42
-0.046960187890740315
10
-1.5874999999999999
20
86.510519299462004
10
-1.5874999999999999
20
74.007502864284902
0
ENDSEC
0
SECTION
2
OBJECTS
0
DICTIONARY
5
C
100
AcDbDictionary
3
ACAD_GROUP
350
D
3
ACAD_MLINESTYLE
350
17
0
DICTIONARY
5
D
100
AcDbDictionary
0
DICTIONARY
5
1A
330
C
100
AcDbDictionary
0
DICTIONARY
5
17
100
AcDbDictionary
0
ENDSEC
0
EOF
