0
SECTION
2
HEADER
9
$INSUNITS
70
4
9
$ACADVER
1
AC1014
9
$HANDSEED
5
FFFF
0
ENDSEC
0
SECTION
2
TABLES
0
TABLE
2
VPORT
5
8
100
AcDbSymbolTable
0
ENDTAB
0
TABLE
2
LTYPE
5
5
100
AcDbSymbolTable
0
LTYPE
5
14
100
AcDbSymbolTableRecord
100
AcDbLinetypeTableRecord
2
BYBLOCK
70
0
0
LTYPE
5
15
100
AcDbSymbolTableRecord
100
AcDbLinetypeTableRecord
2
BYLAYER
70
0
0
ENDTAB
0
TABLE
2
LAYER
5
2
100
AcDbSymbolTable
70
2
0
LAYER
5
50
100
AcDbSymbolTableRecord
100
AcDbLayerTableRecord
2
0
70
0
6
CONTINUOUS
0
ENDTAB
0
TABLE
2
STYLE
5
3
100
AcDbSymbolTable
70
1
0
STYLE
5
11
100
AcDbSymbolTableRecord
100
AcDbTextStyleTableRecord
2
STANDARD
70
0
0
ENDTAB
0
TABLE
2
VIEW
5
6
100
AcDbSymbolTable
70
0
0
ENDTAB
0
TABLE
2
UCS
5
7
100
AcDbSymbolTable
70
0
0
ENDTAB
0
TABLE
2
APPID
5
9
100
AcDbSymbolTable
70
2
0
APPID
5
12
100
AcDbSymbolTableRecord
100
AcDbRegAppTableRecord
2
ACAD
70
0
0
ENDTAB
0
TABLE
2
DIMSTYLE
5
A
100
AcDbSymbolTable
70
1
0
ENDTAB
0
TABLE
2
BLOCK_RECORD
5
1
100
AcDbSymbolTable
70
1
0
BLOCK_RECORD
5
1F
100
AcDbSymbolTableRecord
100
AcDbBlockTableRecord
2
*MODEL_SPACE
0
BLOCK_RECORD
5
1B
100
AcDbSymbolTableRecord
100
AcDbBlockTableRecord
2
*PAPER_SPACE
0
ENDTAB
0
ENDSEC
0
SECTION
2
BLOCKS
0
BLOCK
5
20
100
AcDbEntity
100
AcDbBlockBegin
2
*MODEL_SPACE
0
ENDBLK
5
21
100
AcDbEntity
100
AcDbBlockEnd
0
BLOCK
5
1C
100
AcDbEntity
100
AcDbBlockBegin
2
*PAPER_SPACE
0
ENDBLK
5
1D
100
AcDbEntity
100
AcDbBlockEnd
0
ENDSEC
0
SECTION
2
ENTITIES
0
LWPOLYLINE
5
100
100
AcDbEntity
8
0
100
AcDbPolyline
90
4
70
1
43
0.0
10
-74.558110925515351
20
-37.667285917341886
10
-67.350359982295998
20
-34.196216004401421
10
-68.727940853994227
20
-31.33563984881124
10
-75.935691797213593
20
-34.806709761751698
0
LWPOLYLINE
5
101
100
AcDbEntity
8
0
100
AcDbPolyline
90
4
70
1
43
0.0
10
-83.517759649730991
20
-1.5874999999999895
10
-75.517759649730976
20
-1.5874999999999906
10
-75.517759649730976
20
1.5875000000000095
10
-83.517759649730991
20
1.5875000000000106
0
LWPOLYLINE
5
102
100
AcDbEntity
8
0
100
AcDbPolyline
90
4
70
1
43
0.0
10
-75.935691797213593
20
34.806709761751719
10
-68.727940853994241
20
31.335639848811251
10
-67.350359982295998
20
34.196216004401435
10
-74.558110925515351
20
37.6672859173419
0
LWPOLYLINE
5
103
100
AcDbEntity
8
0
100
AcDbPolyline
90
4
70
1
43
0.0
10
-53.313628894114103
20
64.307023778907052
10
-48.325710479244236
20
58.052371919162809
10
-45.843395522408237
20
60.031952040064283
10
-50.831313937278111
20
66.286603899808526
0
LWPOLYLINE
5
104
100
AcDbEntity
8
0
100
AcDbPolyline
90
4
70
1
43
0.0
10
-20.132147939785767
20
81.070543062759953
10
-18.351980468135253
20
73.271119765305343
10
-15.256584346957961
20
73.977623730616642
10
-17.036751818608479
20
81.777047028071223
0
LWPOLYLINE
5
105
100
AcDbEntity
8
0
100
AcDbPolyline
90
4
70
1
43
0.0
10
17.036751818608494
20
81.777047028071209
10
15.256584346957979
20
73.977623730616642
10
18.35198046813527
20
73.271119765305329
10
20.132147939785785
20
81.070543062759924
0
LWPOLYLINE
5
106
100
AcDbEntity
8
0
100
AcDbPolyline
90
4
70
1
43
0.0
10
50.831313937278111
20
66.286603899808526
10
45.843395522408237
20
60.031952040064276
10
48.325710479244236
20
58.052371919162802
10
53.313628894114103
20
64.307023778907052
0
LWPOLYLINE
5
107
100
AcDbEntity
8
0
100
AcDbPolyline
90
4
70
1
43
0.0
10
74.558110925515336
20
37.667285917341893
10
67.350359982295984
20
34.196216004401428
10
68.727940853994227
20
31.335639848811244
10
75.935691797213593
20
34.806709761751705
0
LWPOLYLINE
5
108
100
AcDbEntity
8
0
100
AcDbPolyline
90
4
70
1
43
0.0
10
83.517759649730991
20
1.5874999999999997
10
75.517759649730976
20
1.5874999999999997
10
75.517759649730976
20
-1.5875000000000004
10
83.517759649730991
20
-1.5875000000000004
0
LWPOLYLINE
5
109
100
AcDbEntity
8
0
100
AcDbPolyline
90
4
70
1
43
0.0
10
67.350359982295984
20
-34.196216004401428
10
74.558110925515336
20
-37.667285917341893
10
75.935691797213593
20
-34.806709761751705
10
68.727940853994227
20
-31.335639848811244
0
LWPOLYLINE
5
110
100
AcDbEntity
8
0
100
AcDbPolyline
90
4
70
1
43
0.0
10
-48.999999999998039
20
-100.15750000000017
10
-17.499999999971301
20
-100.15750000000017
10
-17.499999999971301
20
-96.982500000000172
10
-48.999999999998039
20
-96.982500000000172
0
LWPOLYLINE
5
111
100
AcDbEntity
8
0
100
AcDbPolyline
90
4
70
1
43
0.0
10
30.775500000022213
20
-103.76999999999954
10
27.600500000022215
20
-103.76999999999954
10
27.600500000022215
20
-118.77000000000002
10
30.775500000022213
20
-118.77000000000002
0
LWPOLYLINE
5
112
100
AcDbEntity
8
0
100
AcDbPolyline
90
4
70
1
43
0.0
10
3.8974999999997229
20
-103.77000000000038
10
0.72249999999972392
20
-103.77000000000041
10
0.72249999999994263
20
-118.77000000000044
10
3.8974999999999413
20
-118.77000000000039
0
LWPOLYLINE
5
113
100
AcDbEntity
8
0
100
AcDbPolyline
90
4
70
1
43
0.0
10
17.500000000028699
20
-96.982500000000172
10
17.500000000028699
20
-100.15750000000017
10
49.000000000055444
20
-100.15750000000017
10
49.000000000055444
20
-96.982500000000172
0
LWPOLYLINE
5
114
100
AcDbEntity
8
0
100
AcDbPolyline
90
4
70
1
43
0.0
10
-1.5874999999999999
20
92.039865623745499
10
-1.5874999999999999
20
89.401221479080263
10
1.5874999999999999
20
89.401221479080263
10
1.5874999999999999
20
92.039865623745499
0
LWPOLYLINE
5
115
100
AcDbEntity
8
0
100
AcDbPolyline
90
4
70
1
43
0.0
10
1.5874999999999999
20
74.007502864284902
10
1.5874999999999999
20
87.010519299392755
42
0.0091217011699115912
10
-1.5874999999999999
20
87.010519299392755
10
-1.5874999999999999
20
74.007502864284902
0
LWPOLYLINE
5
116
100
AcDbEntity
8
0
100
AcDbPolyline
90
4
70
1
43
0.0
10
-51.587499999999991
20
92.039865623745499
10
-24.999999999999993
20
92.039865623745499
10
-24.999999999999993
20
95.214865623745482
10
-51.587499999999991
20
95.214865623745482
0
LWPOLYLINE
5
117
100
AcDbEntity
8
0
100
AcDbPolyline
90
4
70
1
43
0.0
10
-1.5874999999999999
20
102.0398656237455
10
-1.5874999999999999
20
95.214865623745482
10
1.5874999999999999
20
95.214865623745482
10
1.5874999999999999
20
102.0398656237455
0
LWPOLYLINE
5
118
100
AcDbEntity
8
0
100
AcDbPolyline
90
4
70
1
43
0.0
10
25.000000000000007
20
95.214865623745482
10
25.000000000000007
20
92.039865623745499
10
51.587500000000013
20
92.039865623745499
10
51.587500000000013
20
95.214865623745482
0
LWPOLYLINE
5
119
100
AcDbEntity
8
0
100
AcDbPolyline
90
4
70
1
43
0.0
10
-41.587499999999991
20
102.0398656237455
10
-19.999999999999993
20
102.0398656237455
10
-19.999999999999993
20
105.21486562374548
10
-41.587499999999991
20
105.21486562374548
0
LWPOLYLINE
5
120
100
AcDbEntity
8
0
100
AcDbPolyline
90
4
70
1
43
0.0
10
-1.5874999999999999
20
112.0398656237455
10
-1.5874999999999999
20
105.21486562374548
10
1.5874999999999999
20
105.21486562374548
10
1.5874999999999999
20
112.0398656237455
0
LWPOLYLINE
5
121
100
AcDbEntity
8
0
100
AcDbPolyline
90
4
70
1
43
0.0
10
20.000000000000007
20
105.21486562374548
10
20.000000000000007
20
102.0398656237455
10
41.587500000000013
20
102.0398656237455
10
41.587500000000013
20
105.21486562374548
0
LWPOLYLINE
5
122
100
AcDbEntity
8
0
100
AcDbPolyline
90
4
70
1
43
0.0
10
-31.587499999999999
20
112.0398656237455
10
-12.499999999999996
20
112.0398656237455
10
-12.499999999999996
20
115.21486562374548
10
-31.587499999999999
20
115.21486562374548
0
LWPOLYLINE
5
123
100
AcDbEntity
8
0
100
AcDbPolyline
90
4
70
1
43
0.0
10
-1.5874999999999999
20
122.0398656237455
10
-1.5874999999999999
20
115.21486562374548
10
1.5874999999999999
20
115.21486562374548
10
1.5874999999999999
20
122.0398656237455
0
LWPOLYLINE
5
124
100
AcDbEntity
8
0
100
AcDbPolyline
90
4
70
1
43
0.0
10
12.500000000000004
20
115.21486562374548
10
12.500000000000004
20
112.0398656237455
10
31.587499999999999
20
112.0398656237455
10
31.587499999999999
20
115.21486562374548
0
LWPOLYLINE
5
125
100
AcDbEntity
8
0
100
AcDbPolyline
90
4
70
1
43
0.0
10
-21.587499999999999
20
122.0398656237455
10
-10
20
122.0398656237455
10
-10
20
125.21486562374548
10
-21.587499999999999
20
125.21486562374548
0
LWPOLYLINE
5
126
100
AcDbEntity
8
0
100
AcDbPolyline
90
20
70
1
43
0.0
10
-80.683834171446421
20
-34.10648709314097
10
-83.73017778527911
20
-35.001146573870464
10
-86.548002921431788
20
-25.4063635381873
42
-0.14380486535740244
10
-86.204040266419128
20
25.327983221507182
10
-70.10328831572923
20
80.151548990795135
42
-0.3267942946850278
10
-1.5874999999999999
20
132.61011735516183
10
-1.5874999999999999
20
125.21486562374548
10
1.5874999999999999
20
125.21486562374548
10
1.5875000000000128
20
132.61011735516183
42
-0.32679429468502774
10
70.10328831572923
20
80.151548990795163
10
86.204040266417849
20
25.327983221511587
42
-0.14380486535738274
10
86.548002921435028
20
-25.40636353817623
10
83.730177785279068
20
-35.00114657387045
10
80.683834171446335
20
-34.106487093140963
10
69.874769838052401
20
-70.911690427814577
10
72.921113451885248
20
-71.806349908544092
10
70.103288315729287
20
-81.401132944238412
42
-0.7485500023424182
10
-70.103288315729259
20
-81.401132944238412
10
-72.92111345188529
20
-71.806349908544121
10
-69.874769838052458
20
-70.911690427814605
0
LWPOLYLINE
5
127
100
AcDbEntity
8
0
100
AcDbPolyline
90
4
70
1
43
0.0
10
10
20
125.21486562374548
10
10
20
122.0398656237455
10
21.587499999999999
20
122.0398656237455
10
21.587499999999999
20
125.21486562374548
0
LWPOLYLINE
5
128
100
AcDbEntity
8
0
100
AcDbPolyline
90
4
70
1
43
0.0
10
-14.999999999971308
20
-77.999999999999886
10
-14.999999999971303
20
-74.824999999999889
10
-58.999999999998039
20
-74.824999999999889
10
-58.999999999998053
20
-77.999999999999886
0
LWPOLYLINE
5
129
100
AcDbEntity
8
0
100
AcDbPolyline
90
4
70
1
43
0.0
10
59.000000000055444
20
-77.999999999999886
10
59.000000000055444
20
-74.824999999999889
10
15.000000000028697
20
-74.824999999999889
10
15.000000000028697
20
-77.999999999999886
0
LWPOLYLINE
5
130
100
AcDbEntity
8
0
100
AcDbPolyline
90
4
70
1
43
0.0
10
-29.102500000000063
20
-118.77000000000039
10
-29.10250000000028
20
-103.77000000000038
10
-32.277500000000281
20
-103.77000000000041
10
-32.27750000000006
20
-118.77000000000044
0
LWPOLYLINE
5
131
100
AcDbEntity
8
0
100
AcDbPolyline
90
4
70
1
43
0.0
10
-32.277500000000629
20
-79.570000000000391
10
-32.277500000000487
20
-89.570000000000391
10
-29.102500000000489
20
-89.570000000000363
10
-29.102500000000624
20
-79.570000000000363
0
LWPOLYLINE
5
132
100
AcDbEntity
8
0
100
AcDbPolyline
90
4
70
1
43
0.0
10
-13.102500000000061
20
-118.77000000000022
10
-13.10250000000028
20
-103.77000000000021
10
-16.277500000000277
20
-103.77000000000024
10
-16.27750000000006
20
-118.77000000000025
0
LWPOLYLINE
5
133
100
AcDbEntity
8
0
100
AcDbPolyline
90
4
70
1
43
0.0
10
-16.277500000000625
20
-79.570000000000221
10
-16.277500000000487
20
-89.570000000000221
10
-13.102500000000488
20
-89.570000000000192
10
-13.102500000000628
20
-79.570000000000192
0
LWPOLYLINE
5
134
100
AcDbEntity
8
0
100
AcDbPolyline
90
4
70
1
43
0.0
10
0.72249999999937542
20
-79.570000000000391
10
0.7224999999995152
20
-89.570000000000391
10
3.8974999999995141
20
-89.570000000000363
10
3.8974999999993742
20
-79.570000000000363
0
LWPOLYLINE
5
135
100
AcDbEntity
8
0
100
AcDbPolyline
90
4
70
1
43
0.0
10
27.600500000022219
20
-79.569999999999524
10
27.600500000022215
20
-89.569999999999524
10
30.775500000022213
20
-89.569999999999524
10
30.77550000002222
20
-79.569999999999524
0
ENDSEC
0
SECTION
2
OBJECTS
0
DICTIONARY
5
C
100
AcDbDictionary
3
ACAD_GROUP
350
D
3
ACAD_MLINESTYLE
350
17
0
DICTIONARY
5
D
100
AcDbDictionary
0
DICTIONARY
5
1A
330
C
100
AcDbDictionary
0
DICTIONARY
5
17
100
AcDbDictionary
0
ENDSEC
0
EOF
