0
SECTION
2
HEADER
9
$INSUNITS
70
4
9
$ACADVER
1
AC1014
9
$HANDSEED
5
FFFF
0
ENDSEC
0
SECTION
2
TABLES
0
TABLE
2
VPORT
5
8
100
AcDbSymbolTable
0
ENDTAB
0
TABLE
2
LTYPE
5
5
100
AcDbSymbolTable
0
LTYPE
5
14
100
AcDbSymbolTableRecord
100
AcDbLinetypeTableRecord
2
BYBLOCK
70
0
0
LTYPE
5
15
100
AcDbSymbolTableRecord
100
AcDbLinetypeTableRecord
2
BYLAYER
70
0
0
ENDTAB
0
TABLE
2
LAYER
5
2
100
AcDbSymbolTable
70
2
0
LAYER
5
50
100
AcDbSymbolTableRecord
100
AcDbLayerTableRecord
2
0
70
0
6
CONTINUOUS
0
ENDTAB
0
TABLE
2
STYLE
5
3
100
AcDbSymbolTable
70
1
0
STYLE
5
11
100
AcDbSymbolTableRecord
100
AcDbTextStyleTableRecord
2
STANDARD
70
0
0
ENDTAB
0
TABLE
2
VIEW
5
6
100
AcDbSymbolTable
70
0
0
ENDTAB
0
TABLE
2
UCS
5
7
100
AcDbSymbolTable
70
0
0
ENDTAB
0
TABLE
2
APPID
5
9
100
AcDbSymbolTable
70
2
0
APPID
5
12
100
AcDbSymbolTableRecord
100
AcDbRegAppTableRecord
2
ACAD
70
0
0
ENDTAB
0
TABLE
2
DIMSTYLE
5
A
100
AcDbSymbolTable
70
1
0
ENDTAB
0
TABLE
2
BLOCK_RECORD
5
1
100
AcDbSymbolTable
70
1
0
BLOCK_RECORD
5
1F
100
AcDbSymbolTableRecord
100
AcDbBlockTableRecord
2
*MODEL_SPACE
0
BLOCK_RECORD
5
1B
100
AcDbSymbolTableRecord
100
AcDbBlockTableRecord
2
*PAPER_SPACE
0
ENDTAB
0
ENDSEC
0
SECTION
2
BLOCKS
0
BLOCK
5
20
100
AcDbEntity
100
AcDbBlockBegin
2
*MODEL_SPACE
0
ENDBLK
5
21
100
AcDbEntity
100
AcDbBlockEnd
0
BLOCK
5
1C
100
AcDbEntity
100
AcDbBlockBegin
2
*PAPER_SPACE
0
ENDBLK
5
1D
100
AcDbEntity
100
AcDbBlockEnd
0
ENDSEC
0
SECTION
2
ENTITIES
0
LINE
5
100
100
AcDbEntity
8
0
100
AcDbLine
10
161.5575
20
-53.466999999999999
30
0
11
-161.5575
21
-53.466999999999999
31
0
0
LINE
5
101
100
AcDbEntity
8
0
100
AcDbLine
10
-161.5575
20
-53.466999999999999
30
0
11
-171.54650000000001
21
-53.466999999999999
31
0
0
LINE
5
102
100
AcDbEntity
8
0
100
AcDbLine
10
-171.54650000000001
20
-56.642000000000003
30
0
11
-190.72649999999999
21
-56.642000000000003
31
0
0
LINE
5
103
100
AcDbEntity
8
0
100
AcDbLine
10
-190.72649999999999
20
-56.642000000000003
30
0
11
-190.72649999999999
21
3.1750000000000078
31
0
0
LINE
5
104
100
AcDbEntity
8
0
100
AcDbLine
10
-171.54650000000001
20
3.1750000000000029
30
0
11
-190.72649999999999
21
3.1750000000000069
31
0
0
LINE
5
105
100
AcDbEntity
8
0
100
AcDbLine
10
-171.54650000000001
20
2.0791841920977232e-15
30
0
11
-171.54650000000001
21
3.1750000000000029
31
0
0
LINE
5
106
100
AcDbEntity
8
0
100
AcDbLine
10
-171.54650000000001
20
-53.466999999999999
30
0
11
-171.54650000000001
21
-56.642000000000003
31
0
0
LINE
5
107
100
AcDbEntity
8
0
100
AcDbLine
10
-161.5575
20
0
30
0
11
-171.54650000000001
21
2.0791841920977232e-15
31
0
0
LINE
5
108
100
AcDbEntity
8
0
100
AcDbLine
10
-161.5575
20
0
30
0
11
161.5575
21
0
31
0
0
LINE
5
109
100
AcDbEntity
8
0
100
AcDbLine
10
161.5575
20
0
30
0
11
171.54650000000001
21
2.0791841920977232e-15
31
0
0
LINE
5
110
100
AcDbEntity
8
0
100
AcDbLine
10
171.54650000000001
20
2.0791841920977232e-15
30
0
11
171.54650000000001
21
3.1750000000000029
31
0
0
LINE
5
111
100
AcDbEntity
8
0
100
AcDbLine
10
171.54650000000001
20
3.1750000000000029
30
0
11
190.72649999999999
21
3.1750000000000069
31
0
0
LINE
5
112
100
AcDbEntity
8
0
100
AcDbLine
10
190.72649999999999
20
-56.642000000000003
30
0
11
190.72649999999999
21
3.1750000000000078
31
0
0
LINE
5
113
100
AcDbEntity
8
0
100
AcDbLine
10
161.5575
20
-53.466999999999999
30
0
11
171.54650000000001
21
-53.466999999999999
31
0
0
LINE
5
114
100
AcDbEntity
8
0
100
AcDbLine
10
171.54650000000001
20
-53.466999999999999
30
0
11
171.54650000000001
21
-56.642000000000003
31
0
0
LINE
5
115
100
AcDbEntity
8
0
100
AcDbLine
10
171.54650000000001
20
-56.642000000000003
30
0
11
190.72649999999999
21
-56.642000000000003
31
0
0
LINE
5
116
100
AcDbEntity
8
0
100
AcDbLine
10
-161.5575
20
-53.466999999999999
30
0
11
-161.5575
21
-43.441937500000009
31
0
0
LINE
5
117
100
AcDbEntity
8
0
100
AcDbLine
10
-161.5575
20
-36.758562500000011
30
0
11
-161.5575
21
-16.708437500000009
31
0
0
LINE
5
118
100
AcDbEntity
8
0
100
AcDbLine
10
-161.5575
20
0
30
0
11
-161.5575
21
-10.025062500000001
31
0
0
LINE
5
119
100
AcDbEntity
8
0
100
AcDbLine
10
-159.76241666666667
20
-3.341687499999999
30
0
11
-159.76241666666667
21
-23.3918125
31
0
0
LINE
5
120
100
AcDbEntity
8
0
100
AcDbLine
10
-159.76241666666667
20
-30.075187499999998
30
0
11
-159.76241666666667
21
-50.125312500000007
31
0
0
LINE
5
121
100
AcDbEntity
8
0
100
AcDbLine
10
-157.96733333333333
20
-53.466999999999999
30
0
11
-157.96733333333333
21
-43.441937500000009
31
0
0
LINE
5
122
100
AcDbEntity
8
0
100
AcDbLine
10
-156.17224999999999
20
-30.075187499999998
30
0
11
-156.17224999999999
21
-50.125312500000007
31
0
0
LINE
5
123
100
AcDbEntity
8
0
100
AcDbLine
10
-157.96733333333333
20
-36.758562500000011
30
0
11
-157.96733333333333
21
-16.708437500000009
31
0
0
LINE
5
124
100
AcDbEntity
8
0
100
AcDbLine
10
-156.17224999999999
20
-3.341687499999999
30
0
11
-156.17224999999999
21
-23.3918125
31
0
0
LINE
5
125
100
AcDbEntity
8
0
100
AcDbLine
10
-157.96733333333333
20
0
30
0
11
-157.96733333333333
21
-10.025062500000001
31
0
0
LINE
5
126
100
AcDbEntity
8
0
100
AcDbLine
10
-154.37716666666665
20
-53.466999999999999
30
0
11
-154.37716666666665
21
-43.441937500000009
31
0
0
LINE
5
127
100
AcDbEntity
8
0
100
AcDbLine
10
-152.58208333333332
20
-30.075187499999998
30
0
11
-152.58208333333332
21
-50.125312500000007
31
0
0
LINE
5
128
100
AcDbEntity
8
0
100
AcDbLine
10
-154.37716666666665
20
-36.758562500000011
30
0
11
-154.37716666666665
21
-16.708437500000009
31
0
0
LINE
5
129
100
AcDbEntity
8
0
100
AcDbLine
10
-152.58208333333332
20
-3.341687499999999
30
0
11
-152.58208333333332
21
-23.3918125
31
0
0
LINE
5
130
100
AcDbEntity
8
0
100
AcDbLine
10
-154.37716666666665
20
0
30
0
11
-154.37716666666665
21
-10.025062500000001
31
0
0
LINE
5
131
100
AcDbEntity
8
0
100
AcDbLine
10
-150.78700000000001
20
-53.466999999999999
30
0
11
-150.78700000000001
21
-43.441937500000009
31
0
0
LINE
5
132
100
AcDbEntity
8
0
100
AcDbLine
10
-148.99191666666664
20
-30.075187499999998
30
0
11
-148.99191666666664
21
-50.125312500000007
31
0
0
LINE
5
133
100
AcDbEntity
8
0
100
AcDbLine
10
-150.78700000000001
20
-36.758562500000011
30
0
11
-150.78700000000001
21
-16.708437500000009
31
0
0
LINE
5
134
100
AcDbEntity
8
0
100
AcDbLine
10
-148.99191666666664
20
-3.341687499999999
30
0
11
-148.99191666666664
21
-23.3918125
31
0
0
LINE
5
135
100
AcDbEntity
8
0
100
AcDbLine
10
-150.78700000000001
20
0
30
0
11
-150.78700000000001
21
-10.025062500000001
31
0
0
LINE
5
136
100
AcDbEntity
8
0
100
AcDbLine
10
-147.19683333333333
20
-53.466999999999999
30
0
11
-147.19683333333333
21
-43.441937500000009
31
0
0
LINE
5
137
100
AcDbEntity
8
0
100
AcDbLine
10
-145.40174999999999
20
-30.075187499999998
30
0
11
-145.40174999999999
21
-50.125312500000007
31
0
0
LINE
5
138
100
AcDbEntity
8
0
100
AcDbLine
10
-147.19683333333333
20
-36.758562500000011
30
0
11
-147.19683333333333
21
-16.708437500000009
31
0
0
LINE
5
139
100
AcDbEntity
8
0
100
AcDbLine
10
-145.40174999999999
20
-3.341687499999999
30
0
11
-145.40174999999999
21
-23.3918125
31
0
0
LINE
5
140
100
AcDbEntity
8
0
100
AcDbLine
10
-147.19683333333333
20
0
30
0
11
-147.19683333333333
21
-10.025062500000001
31
0
0
LINE
5
141
100
AcDbEntity
8
0
100
AcDbLine
10
-143.60666666666665
20
-53.466999999999999
30
0
11
-143.60666666666665
21
-43.441937500000009
31
0
0
LINE
5
142
100
AcDbEntity
8
0
100
AcDbLine
10
-141.81158333333332
20
-30.075187499999998
30
0
11
-141.81158333333332
21
-50.125312500000007
31
0
0
LINE
5
143
100
AcDbEntity
8
0
100
AcDbLine
10
-143.60666666666665
20
-36.758562500000011
30
0
11
-143.60666666666665
21
-16.708437500000009
31
0
0
LINE
5
144
100
AcDbEntity
8
0
100
AcDbLine
10
-141.81158333333332
20
-3.341687499999999
30
0
11
-141.81158333333332
21
-23.3918125
31
0
0
LINE
5
145
100
AcDbEntity
8
0
100
AcDbLine
10
-143.60666666666665
20
0
30
0
11
-143.60666666666665
21
-10.025062500000001
31
0
0
LINE
5
146
100
AcDbEntity
8
0
100
AcDbLine
10
-140.01649999999998
20
-53.466999999999999
30
0
11
-140.01649999999998
21
-43.441937500000009
31
0
0
LINE
5
147
100
AcDbEntity
8
0
100
AcDbLine
10
-138.22141666666664
20
-30.075187499999998
30
0
11
-138.22141666666664
21
-50.125312500000007
31
0
0
LINE
5
148
100
AcDbEntity
8
0
100
AcDbLine
10
-140.01649999999998
20
-36.758562500000011
30
0
11
-140.01649999999998
21
-16.708437500000009
31
0
0
LINE
5
149
100
AcDbEntity
8
0
100
AcDbLine
10
-138.22141666666664
20
-3.341687499999999
30
0
11
-138.22141666666664
21
-23.3918125
31
0
0
LINE
5
150
100
AcDbEntity
8
0
100
AcDbLine
10
-140.01649999999998
20
0
30
0
11
-140.01649999999998
21
-10.025062500000001
31
0
0
LINE
5
151
100
AcDbEntity
8
0
100
AcDbLine
10
-136.4263333333333
20
-53.466999999999999
30
0
11
-136.4263333333333
21
-43.441937500000009
31
0
0
LINE
5
152
100
AcDbEntity
8
0
100
AcDbLine
10
-134.63124999999997
20
-30.075187499999998
30
0
11
-134.63124999999997
21
-50.125312500000007
31
0
0
LINE
5
153
100
AcDbEntity
8
0
100
AcDbLine
10
-136.4263333333333
20
-36.758562500000011
30
0
11
-136.4263333333333
21
-16.708437500000009
31
0
0
LINE
5
154
100
AcDbEntity
8
0
100
AcDbLine
10
-134.63124999999997
20
-3.341687499999999
30
0
11
-134.63124999999997
21
-23.3918125
31
0
0
LINE
5
155
100
AcDbEntity
8
0
100
AcDbLine
10
-136.4263333333333
20
0
30
0
11
-136.4263333333333
21
-10.025062500000001
31
0
0
LINE
5
156
100
AcDbEntity
8
0
100
AcDbLine
10
-132.83616666666663
20
-53.466999999999999
30
0
11
-132.83616666666663
21
-43.441937500000009
31
0
0
LINE
5
157
100
AcDbEntity
8
0
100
AcDbLine
10
-131.04108333333329
20
-30.075187499999998
30
0
11
-131.04108333333329
21
-50.125312500000007
31
0
0
LINE
5
158
100
AcDbEntity
8
0
100
AcDbLine
10
-132.83616666666663
20
-36.758562500000011
30
0
11
-132.83616666666663
21
-16.708437500000009
31
0
0
LINE
5
159
100
AcDbEntity
8
0
100
AcDbLine
10
-131.04108333333329
20
-3.341687499999999
30
0
11
-131.04108333333329
21
-23.3918125
31
0
0
LINE
5
160
100
AcDbEntity
8
0
100
AcDbLine
10
-132.83616666666663
20
0
30
0
11
-132.83616666666663
21
-10.025062500000001
31
0
0
LINE
5
161
100
AcDbEntity
8
0
100
AcDbLine
10
-129.24599999999995
20
-53.466999999999999
30
0
11
-129.24599999999995
21
-43.441937500000009
31
0
0
LINE
5
162
100
AcDbEntity
8
0
100
AcDbLine
10
-127.45091666666661
20
-30.075187499999998
30
0
11
-127.45091666666661
21
-50.125312500000007
31
0
0
LINE
5
163
100
AcDbEntity
8
0
100
AcDbLine
10
-129.24599999999995
20
-36.758562500000011
30
0
11
-129.24599999999995
21
-16.708437500000009
31
0
0
LINE
5
164
100
AcDbEntity
8
0
100
AcDbLine
10
-127.45091666666661
20
-3.341687499999999
30
0
11
-127.45091666666661
21
-23.3918125
31
0
0
LINE
5
165
100
AcDbEntity
8
0
100
AcDbLine
10
-129.24599999999995
20
0
30
0
11
-129.24599999999995
21
-10.025062500000001
31
0
0
LINE
5
166
100
AcDbEntity
8
0
100
AcDbLine
10
-125.65583333333329
20
-53.466999999999999
30
0
11
-125.65583333333329
21
-43.441937500000009
31
0
0
LINE
5
167
100
AcDbEntity
8
0
100
AcDbLine
10
-123.86074999999994
20
-30.075187499999998
30
0
11
-123.86074999999994
21
-50.125312500000007
31
0
0
LINE
5
168
100
AcDbEntity
8
0
100
AcDbLine
10
-125.65583333333329
20
-36.758562500000011
30
0
11
-125.65583333333329
21
-16.708437500000009
31
0
0
LINE
5
169
100
AcDbEntity
8
0
100
AcDbLine
10
-123.86074999999994
20
-3.341687499999999
30
0
11
-123.86074999999994
21
-23.3918125
31
0
0
LINE
5
170
100
AcDbEntity
8
0
100
AcDbLine
10
-125.65583333333329
20
0
30
0
11
-125.65583333333329
21
-10.025062500000001
31
0
0
LINE
5
171
100
AcDbEntity
8
0
100
AcDbLine
10
-122.06566666666662
20
-53.466999999999999
30
0
11
-122.06566666666662
21
-43.441937500000009
31
0
0
LINE
5
172
100
AcDbEntity
8
0
100
AcDbLine
10
-120.27058333333328
20
-30.075187499999998
30
0
11
-120.27058333333328
21
-50.125312500000007
31
0
0
LINE
5
173
100
AcDbEntity
8
0
100
AcDbLine
10
-122.06566666666662
20
-36.758562500000011
30
0
11
-122.06566666666662
21
-16.708437500000009
31
0
0
LINE
5
174
100
AcDbEntity
8
0
100
AcDbLine
10
-120.27058333333328
20
-3.341687499999999
30
0
11
-120.27058333333328
21
-23.3918125
31
0
0
LINE
5
175
100
AcDbEntity
8
0
100
AcDbLine
10
-122.06566666666662
20
0
30
0
11
-122.06566666666662
21
-10.025062500000001
31
0
0
LINE
5
176
100
AcDbEntity
8
0
100
AcDbLine
10
-118.47549999999995
20
-53.466999999999999
30
0
11
-118.47549999999995
21
-43.441937500000009
31
0
0
LINE
5
177
100
AcDbEntity
8
0
100
AcDbLine
10
-116.6804166666666
20
-30.075187499999998
30
0
11
-116.6804166666666
21
-50.125312500000007
31
0
0
LINE
5
178
100
AcDbEntity
8
0
100
AcDbLine
10
-118.47549999999995
20
-36.758562500000011
30
0
11
-118.47549999999995
21
-16.708437500000009
31
0
0
LINE
5
179
100
AcDbEntity
8
0
100
AcDbLine
10
-116.6804166666666
20
-3.341687499999999
30
0
11
-116.6804166666666
21
-23.3918125
31
0
0
LINE
5
180
100
AcDbEntity
8
0
100
AcDbLine
10
-118.47549999999995
20
0
30
0
11
-118.47549999999995
21
-10.025062500000001
31
0
0
LINE
5
181
100
AcDbEntity
8
0
100
AcDbLine
10
-114.88533333333328
20
-53.466999999999999
30
0
11
-114.88533333333328
21
-43.441937500000009
31
0
0
LINE
5
182
100
AcDbEntity
8
0
100
AcDbLine
10
-113.09024999999993
20
-30.075187499999998
30
0
11
-113.09024999999993
21
-50.125312500000007
31
0
0
LINE
5
183
100
AcDbEntity
8
0
100
AcDbLine
10
-114.88533333333328
20
-36.758562500000011
30
0
11
-114.88533333333328
21
-16.708437500000009
31
0
0
LINE
5
184
100
AcDbEntity
8
0
100
AcDbLine
10
-113.09024999999993
20
-3.341687499999999
30
0
11
-113.09024999999993
21
-23.3918125
31
0
0
LINE
5
185
100
AcDbEntity
8
0
100
AcDbLine
10
-114.88533333333328
20
0
30
0
11
-114.88533333333328
21
-10.025062500000001
31
0
0
LINE
5
186
100
AcDbEntity
8
0
100
AcDbLine
10
-111.2951666666666
20
-53.466999999999999
30
0
11
-111.2951666666666
21
-43.441937500000009
31
0
0
LINE
5
187
100
AcDbEntity
8
0
100
AcDbLine
10
-109.50008333333327
20
-30.075187499999998
30
0
11
-109.50008333333327
21
-50.125312500000007
31
0
0
LINE
5
188
100
AcDbEntity
8
0
100
AcDbLine
10
-111.2951666666666
20
-36.758562500000011
30
0
11
-111.2951666666666
21
-16.708437500000009
31
0
0
LINE
5
189
100
AcDbEntity
8
0
100
AcDbLine
10
-109.50008333333327
20
-3.341687499999999
30
0
11
-109.50008333333327
21
-23.3918125
31
0
0
LINE
5
190
100
AcDbEntity
8
0
100
AcDbLine
10
-111.2951666666666
20
0
30
0
11
-111.2951666666666
21
-10.025062500000001
31
0
0
LINE
5
191
100
AcDbEntity
8
0
100
AcDbLine
10
-107.70499999999993
20
-53.466999999999999
30
0
11
-107.70499999999993
21
-43.441937500000009
31
0
0
LINE
5
192
100
AcDbEntity
8
0
100
AcDbLine
10
-105.90991666666659
20
-30.075187499999998
30
0
11
-105.90991666666659
21
-50.125312500000007
31
0
0
LINE
5
193
100
AcDbEntity
8
0
100
AcDbLine
10
-107.70499999999993
20
-36.758562500000011
30
0
11
-107.70499999999993
21
-16.708437500000009
31
0
0
LINE
5
194
100
AcDbEntity
8
0
100
AcDbLine
10
-105.90991666666659
20
-3.341687499999999
30
0
11
-105.90991666666659
21
-23.3918125
31
0
0
LINE
5
195
100
AcDbEntity
8
0
100
AcDbLine
10
-107.70499999999993
20
0
30
0
11
-107.70499999999993
21
-10.025062500000001
31
0
0
LINE
5
196
100
AcDbEntity
8
0
100
AcDbLine
10
-104.11483333333325
20
-53.466999999999999
30
0
11
-104.11483333333325
21
-43.441937500000009
31
0
0
LINE
5
197
100
AcDbEntity
8
0
100
AcDbLine
10
-102.31974999999991
20
-30.075187499999998
30
0
11
-102.31974999999991
21
-50.125312500000007
31
0
0
LINE
5
198
100
AcDbEntity
8
0
100
AcDbLine
10
-104.11483333333325
20
-36.758562500000011
30
0
11
-104.11483333333325
21
-16.708437500000009
31
0
0
LINE
5
199
100
AcDbEntity
8
0
100
AcDbLine
10
-102.31974999999991
20
-3.341687499999999
30
0
11
-102.31974999999991
21
-23.3918125
31
0
0
LINE
5
200
100
AcDbEntity
8
0
100
AcDbLine
10
-104.11483333333325
20
0
30
0
11
-104.11483333333325
21
-10.025062500000001
31
0
0
LINE
5
201
100
AcDbEntity
8
0
100
AcDbLine
10
-100.52466666666659
20
-53.466999999999999
30
0
11
-100.52466666666659
21
-43.441937500000009
31
0
0
LINE
5
202
100
AcDbEntity
8
0
100
AcDbLine
10
-98.729583333333238
20
-30.075187499999998
30
0
11
-98.729583333333238
21
-50.125312500000007
31
0
0
LINE
5
203
100
AcDbEntity
8
0
100
AcDbLine
10
-100.52466666666659
20
-36.758562500000011
30
0
11
-100.52466666666659
21
-16.708437500000009
31
0
0
LINE
5
204
100
AcDbEntity
8
0
100
AcDbLine
10
-98.729583333333238
20
-3.341687499999999
30
0
11
-98.729583333333238
21
-23.3918125
31
0
0
LINE
5
205
100
AcDbEntity
8
0
100
AcDbLine
10
-100.52466666666659
20
0
30
0
11
-100.52466666666659
21
-10.025062500000001
31
0
0
LINE
5
206
100
AcDbEntity
8
0
100
AcDbLine
10
-96.934499999999915
20
-53.466999999999999
30
0
11
-96.934499999999915
21
-43.441937500000009
31
0
0
LINE
5
207
100
AcDbEntity
8
0
100
AcDbLine
10
-95.139416666666563
20
-30.075187499999998
30
0
11
-95.139416666666563
21
-50.125312500000007
31
0
0
LINE
5
208
100
AcDbEntity
8
0
100
AcDbLine
10
-96.934499999999915
20
-36.758562500000011
30
0
11
-96.934499999999915
21
-16.708437500000009
31
0
0
LINE
5
209
100
AcDbEntity
8
0
100
AcDbLine
10
-95.139416666666563
20
-3.341687499999999
30
0
11
-95.139416666666563
21
-23.3918125
31
0
0
LINE
5
210
100
AcDbEntity
8
0
100
AcDbLine
10
-96.934499999999915
20
0
30
0
11
-96.934499999999915
21
-10.025062500000001
31
0
0
LINE
5
211
100
AcDbEntity
8
0
100
AcDbLine
10
-93.344333333333239
20
-53.466999999999999
30
0
11
-93.344333333333239
21
-43.441937500000009
31
0
0
LINE
5
212
100
AcDbEntity
8
0
100
AcDbLine
10
-91.549249999999901
20
-30.075187499999998
30
0
11
-91.549249999999901
21
-50.125312500000007
31
0
0
LINE
5
213
100
AcDbEntity
8
0
100
AcDbLine
10
-93.344333333333239
20
-36.758562500000011
30
0
11
-93.344333333333239
21
-16.708437500000009
31
0
0
LINE
5
214
100
AcDbEntity
8
0
100
AcDbLine
10
-91.549249999999901
20
-3.341687499999999
30
0
11
-91.549249999999901
21
-23.3918125
31
0
0
LINE
5
215
100
AcDbEntity
8
0
100
AcDbLine
10
-93.344333333333239
20
0
30
0
11
-93.344333333333239
21
-10.025062500000001
31
0
0
LINE
5
216
100
AcDbEntity
8
0
100
AcDbLine
10
-89.754166666666578
20
-53.466999999999999
30
0
11
-89.754166666666578
21
-43.441937500000009
31
0
0
LINE
5
217
100
AcDbEntity
8
0
100
AcDbLine
10
-87.959083333333226
20
-30.075187499999998
30
0
11
-87.959083333333226
21
-50.125312500000007
31
0
0
LINE
5
218
100
AcDbEntity
8
0
100
AcDbLine
10
-89.754166666666578
20
-36.758562500000011
30
0
11
-89.754166666666578
21
-16.708437500000009
31
0
0
LINE
5
219
100
AcDbEntity
8
0
100
AcDbLine
10
-87.959083333333226
20
-3.341687499999999
30
0
11
-87.959083333333226
21
-23.3918125
31
0
0
LINE
5
220
100
AcDbEntity
8
0
100
AcDbLine
10
-89.754166666666578
20
0
30
0
11
-89.754166666666578
21
-10.025062500000001
31
0
0
LINE
5
221
100
AcDbEntity
8
0
100
AcDbLine
10
-86.163999999999902
20
-53.466999999999999
30
0
11
-86.163999999999902
21
-43.441937500000009
31
0
0
LINE
5
222
100
AcDbEntity
8
0
100
AcDbLine
10
-84.36891666666655
20
-30.075187499999998
30
0
11
-84.36891666666655
21
-50.125312500000007
31
0
0
LINE
5
223
100
AcDbEntity
8
0
100
AcDbLine
10
-86.163999999999902
20
-36.758562500000011
30
0
11
-86.163999999999902
21
-16.708437500000009
31
0
0
LINE
5
224
100
AcDbEntity
8
0
100
AcDbLine
10
-84.36891666666655
20
-3.341687499999999
30
0
11
-84.36891666666655
21
-23.3918125
31
0
0
LINE
5
225
100
AcDbEntity
8
0
100
AcDbLine
10
-86.163999999999902
20
0
30
0
11
-86.163999999999902
21
-10.025062500000001
31
0
0
LINE
5
226
100
AcDbEntity
8
0
100
AcDbLine
10
-82.573833333333226
20
-53.466999999999999
30
0
11
-82.573833333333226
21
-43.441937500000009
31
0
0
LINE
5
227
100
AcDbEntity
8
0
100
AcDbLine
10
-80.778749999999889
20
-30.075187499999998
30
0
11
-80.778749999999889
21
-50.125312500000007
31
0
0
LINE
5
228
100
AcDbEntity
8
0
100
AcDbLine
10
-82.573833333333226
20
-36.758562500000011
30
0
11
-82.573833333333226
21
-16.708437500000009
31
0
0
LINE
5
229
100
AcDbEntity
8
0
100
AcDbLine
10
-80.778749999999889
20
-3.341687499999999
30
0
11
-80.778749999999889
21
-23.3918125
31
0
0
LINE
5
230
100
AcDbEntity
8
0
100
AcDbLine
10
-82.573833333333226
20
0
30
0
11
-82.573833333333226
21
-10.025062500000001
31
0
0
LINE
5
231
100
AcDbEntity
8
0
100
AcDbLine
10
-78.983666666666551
20
-53.466999999999999
30
0
11
-78.983666666666551
21
-43.441937500000009
31
0
0
LINE
5
232
100
AcDbEntity
8
0
100
AcDbLine
10
-77.188583333333213
20
-30.075187499999998
30
0
11
-77.188583333333213
21
-50.125312500000007
31
0
0
LINE
5
233
100
AcDbEntity
8
0
100
AcDbLine
10
-78.983666666666551
20
-36.758562500000011
30
0
11
-78.983666666666551
21
-16.708437500000009
31
0
0
LINE
5
234
100
AcDbEntity
8
0
100
AcDbLine
10
-77.188583333333213
20
-3.341687499999999
30
0
11
-77.188583333333213
21
-23.3918125
31
0
0
LINE
5
235
100
AcDbEntity
8
0
100
AcDbLine
10
-78.983666666666551
20
0
30
0
11
-78.983666666666551
21
-10.025062500000001
31
0
0
LINE
5
236
100
AcDbEntity
8
0
100
AcDbLine
10
-75.393499999999875
20
-53.466999999999999
30
0
11
-75.393499999999875
21
-43.441937500000009
31
0
0
LINE
5
237
100
AcDbEntity
8
0
100
AcDbLine
10
-73.598416666666537
20
-30.075187499999998
30
0
11
-73.598416666666537
21
-50.125312500000007
31
0
0
LINE
5
238
100
AcDbEntity
8
0
100
AcDbLine
10
-75.393499999999875
20
-36.758562500000011
30
0
11
-75.393499999999875
21
-16.708437500000009
31
0
0
LINE
5
239
100
AcDbEntity
8
0
100
AcDbLine
10
-73.598416666666537
20
-3.341687499999999
30
0
11
-73.598416666666537
21
-23.3918125
31
0
0
LINE
5
240
100
AcDbEntity
8
0
100
AcDbLine
10
-75.393499999999875
20
0
30
0
11
-75.393499999999875
21
-10.025062500000001
31
0
0
LINE
5
241
100
AcDbEntity
8
0
100
AcDbLine
10
-71.803333333333214
20
-53.466999999999999
30
0
11
-71.803333333333214
21
-43.441937500000009
31
0
0
LINE
5
242
100
AcDbEntity
8
0
100
AcDbLine
10
-70.008249999999862
20
-30.075187499999998
30
0
11
-70.008249999999862
21
-50.125312500000007
31
0
0
LINE
5
243
100
AcDbEntity
8
0
100
AcDbLine
10
-71.803333333333214
20
-36.758562500000011
30
0
11
-71.803333333333214
21
-16.708437500000009
31
0
0
LINE
5
244
100
AcDbEntity
8
0
100
AcDbLine
10
-70.008249999999862
20
-3.341687499999999
30
0
11
-70.008249999999862
21
-23.3918125
31
0
0
LINE
5
245
100
AcDbEntity
8
0
100
AcDbLine
10
-71.803333333333214
20
0
30
0
11
-71.803333333333214
21
-10.025062500000001
31
0
0
LINE
5
246
100
AcDbEntity
8
0
100
AcDbLine
10
-68.213166666666538
20
-53.466999999999999
30
0
11
-68.213166666666538
21
-43.441937500000009
31
0
0
LINE
5
247
100
AcDbEntity
8
0
100
AcDbLine
10
-66.418083333333186
20
-30.075187499999998
30
0
11
-66.418083333333186
21
-50.125312500000007
31
0
0
LINE
5
248
100
AcDbEntity
8
0
100
AcDbLine
10
-68.213166666666538
20
-36.758562500000011
30
0
11
-68.213166666666538
21
-16.708437500000009
31
0
0
LINE
5
249
100
AcDbEntity
8
0
100
AcDbLine
10
-66.418083333333186
20
-3.341687499999999
30
0
11
-66.418083333333186
21
-23.3918125
31
0
0
LINE
5
250
100
AcDbEntity
8
0
100
AcDbLine
10
-68.213166666666538
20
0
30
0
11
-68.213166666666538
21
-10.025062500000001
31
0
0
LINE
5
251
100
AcDbEntity
8
0
100
AcDbLine
10
-64.622999999999863
20
-53.466999999999999
30
0
11
-64.622999999999863
21
-43.441937500000009
31
0
0
LINE
5
252
100
AcDbEntity
8
0
100
AcDbLine
10
-62.827916666666525
20
-30.075187499999998
30
0
11
-62.827916666666525
21
-50.125312500000007
31
0
0
LINE
5
253
100
AcDbEntity
8
0
100
AcDbLine
10
-64.622999999999863
20
-36.758562500000011
30
0
11
-64.622999999999863
21
-16.708437500000009
31
0
0
LINE
5
254
100
AcDbEntity
8
0
100
AcDbLine
10
-62.827916666666525
20
-3.341687499999999
30
0
11
-62.827916666666525
21
-23.3918125
31
0
0
LINE
5
255
100
AcDbEntity
8
0
100
AcDbLine
10
-64.622999999999863
20
0
30
0
11
-64.622999999999863
21
-10.025062500000001
31
0
0
LINE
5
256
100
AcDbEntity
8
0
100
AcDbLine
10
-61.032833333333194
20
-53.466999999999999
30
0
11
-61.032833333333194
21
-43.441937500000009
31
0
0
LINE
5
257
100
AcDbEntity
8
0
100
AcDbLine
10
-59.237749999999849
20
-30.075187499999998
30
0
11
-59.237749999999849
21
-50.125312500000007
31
0
0
LINE
5
258
100
AcDbEntity
8
0
100
AcDbLine
10
-61.032833333333194
20
-36.758562500000011
30
0
11
-61.032833333333194
21
-16.708437500000009
31
0
0
LINE
5
259
100
AcDbEntity
8
0
100
AcDbLine
10
-59.237749999999849
20
-3.341687499999999
30
0
11
-59.237749999999849
21
-23.3918125
31
0
0
LINE
5
260
100
AcDbEntity
8
0
100
AcDbLine
10
-61.032833333333194
20
0
30
0
11
-61.032833333333194
21
-10.025062500000001
31
0
0
LINE
5
261
100
AcDbEntity
8
0
100
AcDbLine
10
-57.442666666666526
20
-53.466999999999999
30
0
11
-57.442666666666526
21
-43.441937500000009
31
0
0
LINE
5
262
100
AcDbEntity
8
0
100
AcDbLine
10
-55.647583333333174
20
-30.075187499999998
30
0
11
-55.647583333333174
21
-50.125312500000007
31
0
0
LINE
5
263
100
AcDbEntity
8
0
100
AcDbLine
10
-57.442666666666526
20
-36.758562500000011
30
0
11
-57.442666666666526
21
-16.708437500000009
31
0
0
LINE
5
264
100
AcDbEntity
8
0
100
AcDbLine
10
-55.647583333333174
20
-3.341687499999999
30
0
11
-55.647583333333174
21
-23.3918125
31
0
0
LINE
5
265
100
AcDbEntity
8
0
100
AcDbLine
10
-57.442666666666526
20
0
30
0
11
-57.442666666666526
21
-10.025062500000001
31
0
0
LINE
5
266
100
AcDbEntity
8
0
100
AcDbLine
10
-53.85249999999985
20
-53.466999999999999
30
0
11
-53.85249999999985
21
-43.441937500000009
31
0
0
LINE
5
267
100
AcDbEntity
8
0
100
AcDbLine
10
-52.057416666666505
20
-30.075187499999998
30
0
11
-52.057416666666505
21
-50.125312500000007
31
0
0
LINE
5
268
100
AcDbEntity
8
0
100
AcDbLine
10
-53.85249999999985
20
-36.758562500000011
30
0
11
-53.85249999999985
21
-16.708437500000009
31
0
0
LINE
5
269
100
AcDbEntity
8
0
100
AcDbLine
10
-52.057416666666505
20
-3.341687499999999
30
0
11
-52.057416666666505
21
-23.3918125
31
0
0
LINE
5
270
100
AcDbEntity
8
0
100
AcDbLine
10
-53.85249999999985
20
0
30
0
11
-53.85249999999985
21
-10.025062500000001
31
0
0
LINE
5
271
100
AcDbEntity
8
0
100
AcDbLine
10
-50.262333333333174
20
-53.466999999999999
30
0
11
-50.262333333333174
21
-43.441937500000009
31
0
0
LINE
5
272
100
AcDbEntity
8
0
100
AcDbLine
10
-48.467249999999837
20
-30.075187499999998
30
0
11
-48.467249999999837
21
-50.125312500000007
31
0
0
LINE
5
273
100
AcDbEntity
8
0
100
AcDbLine
10
-50.262333333333174
20
-36.758562500000011
30
0
11
-50.262333333333174
21
-16.708437500000009
31
0
0
LINE
5
274
100
AcDbEntity
8
0
100
AcDbLine
10
-48.467249999999837
20
-3.341687499999999
30
0
11
-48.467249999999837
21
-23.3918125
31
0
0
LINE
5
275
100
AcDbEntity
8
0
100
AcDbLine
10
-50.262333333333174
20
0
30
0
11
-50.262333333333174
21
-10.025062500000001
31
0
0
LINE
5
276
100
AcDbEntity
8
0
100
AcDbLine
10
-46.672166666666506
20
-53.466999999999999
30
0
11
-46.672166666666506
21
-43.441937500000009
31
0
0
LINE
5
277
100
AcDbEntity
8
0
100
AcDbLine
10
-44.877083333333161
20
-30.075187499999998
30
0
11
-44.877083333333161
21
-50.125312500000007
31
0
0
LINE
5
278
100
AcDbEntity
8
0
100
AcDbLine
10
-46.672166666666506
20
-36.758562500000011
30
0
11
-46.672166666666506
21
-16.708437500000009
31
0
0
LINE
5
279
100
AcDbEntity
8
0
100
AcDbLine
10
-44.877083333333161
20
-3.341687499999999
30
0
11
-44.877083333333161
21
-23.3918125
31
0
0
LINE
5
280
100
AcDbEntity
8
0
100
AcDbLine
10
-46.672166666666506
20
0
30
0
11
-46.672166666666506
21
-10.025062500000001
31
0
0
LINE
5
281
100
AcDbEntity
8
0
100
AcDbLine
10
-43.081999999999837
20
-53.466999999999999
30
0
11
-43.081999999999837
21
-43.441937500000009
31
0
0
LINE
5
282
100
AcDbEntity
8
0
100
AcDbLine
10
-41.286916666666485
20
-30.075187499999998
30
0
11
-41.286916666666485
21
-50.125312500000007
31
0
0
LINE
5
283
100
AcDbEntity
8
0
100
AcDbLine
10
-43.081999999999837
20
-36.758562500000011
30
0
11
-43.081999999999837
21
-16.708437500000009
31
0
0
LINE
5
284
100
AcDbEntity
8
0
100
AcDbLine
10
-41.286916666666485
20
-3.341687499999999
30
0
11
-41.286916666666485
21
-23.3918125
31
0
0
LINE
5
285
100
AcDbEntity
8
0
100
AcDbLine
10
-43.081999999999837
20
0
30
0
11
-43.081999999999837
21
-10.025062500000001
31
0
0
LINE
5
286
100
AcDbEntity
8
0
100
AcDbLine
10
-39.491833333333162
20
-53.466999999999999
30
0
11
-39.491833333333162
21
-43.441937500000009
31
0
0
LINE
5
287
100
AcDbEntity
8
0
100
AcDbLine
10
-37.696749999999817
20
-30.075187499999998
30
0
11
-37.696749999999817
21
-50.125312500000007
31
0
0
LINE
5
288
100
AcDbEntity
8
0
100
AcDbLine
10
-39.491833333333162
20
-36.758562500000011
30
0
11
-39.491833333333162
21
-16.708437500000009
31
0
0
LINE
5
289
100
AcDbEntity
8
0
100
AcDbLine
10
-37.696749999999817
20
-3.341687499999999
30
0
11
-37.696749999999817
21
-23.3918125
31
0
0
LINE
5
290
100
AcDbEntity
8
0
100
AcDbLine
10
-39.491833333333162
20
0
30
0
11
-39.491833333333162
21
-10.025062500000001
31
0
0
LINE
5
291
100
AcDbEntity
8
0
100
AcDbLine
10
-35.901666666666486
20
-53.466999999999999
30
0
11
-35.901666666666486
21
-43.441937500000009
31
0
0
LINE
5
292
100
AcDbEntity
8
0
100
AcDbLine
10
-34.106583333333148
20
-30.075187499999998
30
0
11
-34.106583333333148
21
-50.125312500000007
31
0
0
LINE
5
293
100
AcDbEntity
8
0
100
AcDbLine
10
-35.901666666666486
20
-36.758562500000011
30
0
11
-35.901666666666486
21
-16.708437500000009
31
0
0
LINE
5
294
100
AcDbEntity
8
0
100
AcDbLine
10
-34.106583333333148
20
-3.341687499999999
30
0
11
-34.106583333333148
21
-23.3918125
31
0
0
LINE
5
295
100
AcDbEntity
8
0
100
AcDbLine
10
-35.901666666666486
20
0
30
0
11
-35.901666666666486
21
-10.025062500000001
31
0
0
LINE
5
296
100
AcDbEntity
8
0
100
AcDbLine
10
-32.311499999999818
20
-53.466999999999999
30
0
11
-32.311499999999818
21
-43.441937500000009
31
0
0
LINE
5
297
100
AcDbEntity
8
0
100
AcDbLine
10
-30.516416666666473
20
-30.075187499999998
30
0
11
-30.516416666666473
21
-50.125312500000007
31
0
0
LINE
5
298
100
AcDbEntity
8
0
100
AcDbLine
10
-32.311499999999818
20
-36.758562500000011
30
0
11
-32.311499999999818
21
-16.708437500000009
31
0
0
LINE
5
299
100
AcDbEntity
8
0
100
AcDbLine
10
-30.516416666666473
20
-3.341687499999999
30
0
11
-30.516416666666473
21
-23.3918125
31
0
0
LINE
5
300
100
AcDbEntity
8
0
100
AcDbLine
10
-32.311499999999818
20
0
30
0
11
-32.311499999999818
21
-10.025062500000001
31
0
0
LINE
5
301
100
AcDbEntity
8
0
100
AcDbLine
10
-28.721333333333146
20
-53.466999999999999
30
0
11
-28.721333333333146
21
-43.441937500000009
31
0
0
LINE
5
302
100
AcDbEntity
8
0
100
AcDbLine
10
-26.926249999999801
20
-30.075187499999998
30
0
11
-26.926249999999801
21
-50.125312500000007
31
0
0
LINE
5
303
100
AcDbEntity
8
0
100
AcDbLine
10
-28.721333333333146
20
-36.758562500000011
30
0
11
-28.721333333333146
21
-16.708437500000009
31
0
0
LINE
5
304
100
AcDbEntity
8
0
100
AcDbLine
10
-26.926249999999801
20
-3.341687499999999
30
0
11
-26.926249999999801
21
-23.3918125
31
0
0
LINE
5
305
100
AcDbEntity
8
0
100
AcDbLine
10
-28.721333333333146
20
0
30
0
11
-28.721333333333146
21
-10.025062500000001
31
0
0
LINE
5
306
100
AcDbEntity
8
0
100
AcDbLine
10
-25.131166666666473
20
-53.466999999999999
30
0
11
-25.131166666666473
21
-43.441937500000009
31
0
0
LINE
5
307
100
AcDbEntity
8
0
100
AcDbLine
10
-23.336083333333129
20
-30.075187499999998
30
0
11
-23.336083333333129
21
-50.125312500000007
31
0
0
LINE
5
308
100
AcDbEntity
8
0
100
AcDbLine
10
-25.131166666666473
20
-36.758562500000011
30
0
11
-25.131166666666473
21
-16.708437500000009
31
0
0
LINE
5
309
100
AcDbEntity
8
0
100
AcDbLine
10
-23.336083333333129
20
-3.341687499999999
30
0
11
-23.336083333333129
21
-23.3918125
31
0
0
LINE
5
310
100
AcDbEntity
8
0
100
AcDbLine
10
-25.131166666666473
20
0
30
0
11
-25.131166666666473
21
-10.025062500000001
31
0
0
LINE
5
311
100
AcDbEntity
8
0
100
AcDbLine
10
-21.540999999999801
20
-53.466999999999999
30
0
11
-21.540999999999801
21
-43.441937500000009
31
0
0
LINE
5
312
100
AcDbEntity
8
0
100
AcDbLine
10
-19.745916666666457
20
-30.075187499999998
30
0
11
-19.745916666666457
21
-50.125312500000007
31
0
0
LINE
5
313
100
AcDbEntity
8
0
100
AcDbLine
10
-21.540999999999801
20
-36.758562500000011
30
0
11
-21.540999999999801
21
-16.708437500000009
31
0
0
LINE
5
314
100
AcDbEntity
8
0
100
AcDbLine
10
-19.745916666666457
20
-3.341687499999999
30
0
11
-19.745916666666457
21
-23.3918125
31
0
0
LINE
5
315
100
AcDbEntity
8
0
100
AcDbLine
10
-21.540999999999801
20
0
30
0
11
-21.540999999999801
21
-10.025062500000001
31
0
0
LINE
5
316
100
AcDbEntity
8
0
100
AcDbLine
10
-17.950833333333129
20
-53.466999999999999
30
0
11
-17.950833333333129
21
-43.441937500000009
31
0
0
LINE
5
317
100
AcDbEntity
8
0
100
AcDbLine
10
-16.155749999999784
20
-30.075187499999998
30
0
11
-16.155749999999784
21
-50.125312500000007
31
0
0
LINE
5
318
100
AcDbEntity
8
0
100
AcDbLine
10
-17.950833333333129
20
-36.758562500000011
30
0
11
-17.950833333333129
21
-16.708437500000009
31
0
0
LINE
5
319
100
AcDbEntity
8
0
100
AcDbLine
10
-16.155749999999784
20
-3.341687499999999
30
0
11
-16.155749999999784
21
-23.3918125
31
0
0
LINE
5
320
100
AcDbEntity
8
0
100
AcDbLine
10
-17.950833333333129
20
0
30
0
11
-17.950833333333129
21
-10.025062500000001
31
0
0
LINE
5
321
100
AcDbEntity
8
0
100
AcDbLine
10
-14.360666666666457
20
-53.466999999999999
30
0
11
-14.360666666666457
21
-43.441937500000009
31
0
0
LINE
5
322
100
AcDbEntity
8
0
100
AcDbLine
10
-12.565583333333112
20
-30.075187499999998
30
0
11
-12.565583333333112
21
-50.125312500000007
31
0
0
LINE
5
323
100
AcDbEntity
8
0
100
AcDbLine
10
-14.360666666666457
20
-36.758562500000011
30
0
11
-14.360666666666457
21
-16.708437500000009
31
0
0
LINE
5
324
100
AcDbEntity
8
0
100
AcDbLine
10
-12.565583333333112
20
-3.341687499999999
30
0
11
-12.565583333333112
21
-23.3918125
31
0
0
LINE
5
325
100
AcDbEntity
8
0
100
AcDbLine
10
-14.360666666666457
20
0
30
0
11
-14.360666666666457
21
-10.025062500000001
31
0
0
LINE
5
326
100
AcDbEntity
8
0
100
AcDbLine
10
-10.770499999999785
20
-53.466999999999999
30
0
11
-10.770499999999785
21
-43.441937500000009
31
0
0
LINE
5
327
100
AcDbEntity
8
0
100
AcDbLine
10
-8.9754166666664403
20
-30.075187499999998
30
0
11
-8.9754166666664403
21
-50.125312500000007
31
0
0
LINE
5
328
100
AcDbEntity
8
0
100
AcDbLine
10
-10.770499999999785
20
-36.758562500000011
30
0
11
-10.770499999999785
21
-16.708437500000009
31
0
0
LINE
5
329
100
AcDbEntity
8
0
100
AcDbLine
10
-8.9754166666664403
20
-3.341687499999999
30
0
11
-8.9754166666664403
21
-23.3918125
31
0
0
LINE
5
330
100
AcDbEntity
8
0
100
AcDbLine
10
-10.770499999999785
20
0
30
0
11
-10.770499999999785
21
-10.025062500000001
31
0
0
LINE
5
331
100
AcDbEntity
8
0
100
AcDbLine
10
-7.1803333333331132
20
-53.466999999999999
30
0
11
-7.1803333333331132
21
-43.441937500000009
31
0
0
LINE
5
332
100
AcDbEntity
8
0
100
AcDbLine
10
-5.3852499999997683
20
-30.075187499999998
30
0
11
-5.3852499999997683
21
-50.125312500000007
31
0
0
LINE
5
333
100
AcDbEntity
8
0
100
AcDbLine
10
-7.1803333333331132
20
-36.758562500000011
30
0
11
-7.1803333333331132
21
-16.708437500000009
31
0
0
LINE
5
334
100
AcDbEntity
8
0
100
AcDbLine
10
-5.3852499999997683
20
-3.341687499999999
30
0
11
-5.3852499999997683
21
-23.3918125
31
0
0
LINE
5
335
100
AcDbEntity
8
0
100
AcDbLine
10
-7.1803333333331132
20
0
30
0
11
-7.1803333333331132
21
-10.025062500000001
31
0
0
LINE
5
336
100
AcDbEntity
8
0
100
AcDbLine
10
-3.5901666666664411
20
-53.466999999999999
30
0
11
-3.5901666666664411
21
-43.441937500000009
31
0
0
LINE
5
337
100
AcDbEntity
8
0
100
AcDbLine
10
-1.7950833333330962
20
-30.075187499999998
30
0
11
-1.7950833333330962
21
-50.125312500000007
31
0
0
LINE
5
338
100
AcDbEntity
8
0
100
AcDbLine
10
-3.5901666666664411
20
-36.758562500000011
30
0
11
-3.5901666666664411
21
-16.708437500000009
31
0
0
LINE
5
339
100
AcDbEntity
8
0
100
AcDbLine
10
-1.7950833333330962
20
-3.341687499999999
30
0
11
-1.7950833333330962
21
-23.3918125
31
0
0
LINE
5
340
100
AcDbEntity
8
0
100
AcDbLine
10
-3.5901666666664411
20
0
30
0
11
-3.5901666666664411
21
-10.025062500000001
31
0
0
LINE
5
341
100
AcDbEntity
8
0
100
AcDbLine
10
2.4868995751603507e-13
20
-53.466999999999999
30
0
11
2.4868995751603507e-13
21
-43.441937500000009
31
0
0
LINE
5
342
100
AcDbEntity
8
0
100
AcDbLine
10
1.7950833333335936
20
-30.075187499999998
30
0
11
1.7950833333335936
21
-50.125312500000007
31
0
0
LINE
5
343
100
AcDbEntity
8
0
100
AcDbLine
10
2.4868995751603507e-13
20
-36.758562500000011
30
0
11
2.4868995751603507e-13
21
-16.708437500000009
31
0
0
LINE
5
344
100
AcDbEntity
8
0
100
AcDbLine
10
1.7950833333335936
20
-3.341687499999999
30
0
11
1.7950833333335936
21
-23.3918125
31
0
0
LINE
5
345
100
AcDbEntity
8
0
100
AcDbLine
10
2.4868995751603507e-13
20
0
30
0
11
2.4868995751603507e-13
21
-10.025062500000001
31
0
0
LINE
5
346
100
AcDbEntity
8
0
100
AcDbLine
10
3.590166666666903
20
-53.466999999999999
30
0
11
3.590166666666903
21
-43.441937500000009
31
0
0
LINE
5
347
100
AcDbEntity
8
0
100
AcDbLine
10
5.3852500000002479
20
-30.075187499999998
30
0
11
5.3852500000002479
21
-50.125312500000007
31
0
0
LINE
5
348
100
AcDbEntity
8
0
100
AcDbLine
10
3.590166666666903
20
-36.758562500000011
30
0
11
3.590166666666903
21
-16.708437500000009
31
0
0
LINE
5
349
100
AcDbEntity
8
0
100
AcDbLine
10
5.3852500000002479
20
-3.341687499999999
30
0
11
5.3852500000002479
21
-23.3918125
31
0
0
LINE
5
350
100
AcDbEntity
8
0
100
AcDbLine
10
3.590166666666903
20
0
30
0
11
3.590166666666903
21
-10.025062500000001
31
0
0
LINE
5
351
100
AcDbEntity
8
0
100
AcDbLine
10
7.1803333333335573
20
-53.466999999999999
30
0
11
7.1803333333335573
21
-43.441937500000009
31
0
0
LINE
5
352
100
AcDbEntity
8
0
100
AcDbLine
10
8.9754166666669022
20
-30.075187499999998
30
0
11
8.9754166666669022
21
-50.125312500000007
31
0
0
LINE
5
353
100
AcDbEntity
8
0
100
AcDbLine
10
7.1803333333335573
20
-36.758562500000011
30
0
11
7.1803333333335573
21
-16.708437500000009
31
0
0
LINE
5
354
100
AcDbEntity
8
0
100
AcDbLine
10
8.9754166666669022
20
-3.341687499999999
30
0
11
8.9754166666669022
21
-23.3918125
31
0
0
LINE
5
355
100
AcDbEntity
8
0
100
AcDbLine
10
7.1803333333335573
20
0
30
0
11
7.1803333333335573
21
-10.025062500000001
31
0
0
LINE
5
356
100
AcDbEntity
8
0
100
AcDbLine
10
10.770500000000247
20
-53.466999999999999
30
0
11
10.770500000000247
21
-43.441937500000009
31
0
0
LINE
5
357
100
AcDbEntity
8
0
100
AcDbLine
10
12.565583333333592
20
-30.075187499999998
30
0
11
12.565583333333592
21
-50.125312500000007
31
0
0
LINE
5
358
100
AcDbEntity
8
0
100
AcDbLine
10
10.770500000000247
20
-36.758562500000011
30
0
11
10.770500000000247
21
-16.708437500000009
31
0
0
LINE
5
359
100
AcDbEntity
8
0
100
AcDbLine
10
12.565583333333592
20
-3.341687499999999
30
0
11
12.565583333333592
21
-23.3918125
31
0
0
LINE
5
360
100
AcDbEntity
8
0
100
AcDbLine
10
10.770500000000247
20
0
30
0
11
10.770500000000247
21
-10.025062500000001
31
0
0
LINE
5
361
100
AcDbEntity
8
0
100
AcDbLine
10
14.360666666666937
20
-53.466999999999999
30
0
11
14.360666666666937
21
-43.441937500000009
31
0
0
LINE
5
362
100
AcDbEntity
8
0
100
AcDbLine
10
16.155750000000282
20
-30.075187499999998
30
0
11
16.155750000000282
21
-50.125312500000007
31
0
0
LINE
5
363
100
AcDbEntity
8
0
100
AcDbLine
10
14.360666666666937
20
-36.758562500000011
30
0
11
14.360666666666937
21
-16.708437500000009
31
0
0
LINE
5
364
100
AcDbEntity
8
0
100
AcDbLine
10
16.155750000000282
20
-3.341687499999999
30
0
11
16.155750000000282
21
-23.3918125
31
0
0
LINE
5
365
100
AcDbEntity
8
0
100
AcDbLine
10
14.360666666666937
20
0
30
0
11
14.360666666666937
21
-10.025062500000001
31
0
0
LINE
5
366
100
AcDbEntity
8
0
100
AcDbLine
10
17.950833333333591
20
-53.466999999999999
30
0
11
17.950833333333591
21
-43.441937500000009
31
0
0
LINE
5
367
100
AcDbEntity
8
0
100
AcDbLine
10
19.745916666666936
20
-30.075187499999998
30
0
11
19.745916666666936
21
-50.125312500000007
31
0
0
LINE
5
368
100
AcDbEntity
8
0
100
AcDbLine
10
17.950833333333591
20
-36.758562500000011
30
0
11
17.950833333333591
21
-16.708437500000009
31
0
0
LINE
5
369
100
AcDbEntity
8
0
100
AcDbLine
10
19.745916666666936
20
-3.341687499999999
30
0
11
19.745916666666936
21
-23.3918125
31
0
0
LINE
5
370
100
AcDbEntity
8
0
100
AcDbLine
10
17.950833333333591
20
0
30
0
11
17.950833333333591
21
-10.025062500000001
31
0
0
LINE
5
371
100
AcDbEntity
8
0
100
AcDbLine
10
21.541000000000246
20
-53.466999999999999
30
0
11
21.541000000000246
21
-43.441937500000009
31
0
0
LINE
5
372
100
AcDbEntity
8
0
100
AcDbLine
10
23.33608333333359
20
-30.075187499999998
30
0
11
23.33608333333359
21
-50.125312500000007
31
0
0
LINE
5
373
100
AcDbEntity
8
0
100
AcDbLine
10
21.541000000000246
20
-36.758562500000011
30
0
11
21.541000000000246
21
-16.708437500000009
31
0
0
LINE
5
374
100
AcDbEntity
8
0
100
AcDbLine
10
23.33608333333359
20
-3.341687499999999
30
0
11
23.33608333333359
21
-23.3918125
31
0
0
LINE
5
375
100
AcDbEntity
8
0
100
AcDbLine
10
21.541000000000246
20
0
30
0
11
21.541000000000246
21
-10.025062500000001
31
0
0
LINE
5
376
100
AcDbEntity
8
0
100
AcDbLine
10
25.131166666666935
20
-53.466999999999999
30
0
11
25.131166666666935
21
-43.441937500000009
31
0
0
LINE
5
377
100
AcDbEntity
8
0
100
AcDbLine
10
26.92625000000028
20
-30.075187499999998
30
0
11
26.92625000000028
21
-50.125312500000007
31
0
0
LINE
5
378
100
AcDbEntity
8
0
100
AcDbLine
10
25.131166666666935
20
-36.758562500000011
30
0
11
25.131166666666935
21
-16.708437500000009
31
0
0
LINE
5
379
100
AcDbEntity
8
0
100
AcDbLine
10
26.92625000000028
20
-3.341687499999999
30
0
11
26.92625000000028
21
-23.3918125
31
0
0
LINE
5
380
100
AcDbEntity
8
0
100
AcDbLine
10
25.131166666666935
20
0
30
0
11
25.131166666666935
21
-10.025062500000001
31
0
0
LINE
5
381
100
AcDbEntity
8
0
100
AcDbLine
10
28.721333333333625
20
-53.466999999999999
30
0
11
28.721333333333625
21
-43.441937500000009
31
0
0
LINE
5
382
100
AcDbEntity
8
0
100
AcDbLine
10
30.51641666666697
20
-30.075187499999998
30
0
11
30.51641666666697
21
-50.125312500000007
31
0
0
LINE
5
383
100
AcDbEntity
8
0
100
AcDbLine
10
28.721333333333625
20
-36.758562500000011
30
0
11
28.721333333333625
21
-16.708437500000009
31
0
0
LINE
5
384
100
AcDbEntity
8
0
100
AcDbLine
10
30.51641666666697
20
-3.341687499999999
30
0
11
30.51641666666697
21
-23.3918125
31
0
0
LINE
5
385
100
AcDbEntity
8
0
100
AcDbLine
10
28.721333333333625
20
0
30
0
11
28.721333333333625
21
-10.025062500000001
31
0
0
LINE
5
386
100
AcDbEntity
8
0
100
AcDbLine
10
32.311500000000279
20
-53.466999999999999
30
0
11
32.311500000000279
21
-43.441937500000009
31
0
0
LINE
5
387
100
AcDbEntity
8
0
100
AcDbLine
10
34.106583333333624
20
-30.075187499999998
30
0
11
34.106583333333624
21
-50.125312500000007
31
0
0
LINE
5
388
100
AcDbEntity
8
0
100
AcDbLine
10
32.311500000000279
20
-36.758562500000011
30
0
11
32.311500000000279
21
-16.708437500000009
31
0
0
LINE
5
389
100
AcDbEntity
8
0
100
AcDbLine
10
34.106583333333624
20
-3.341687499999999
30
0
11
34.106583333333624
21
-23.3918125
31
0
0
LINE
5
390
100
AcDbEntity
8
0
100
AcDbLine
10
32.311500000000279
20
0
30
0
11
32.311500000000279
21
-10.025062500000001
31
0
0
LINE
5
391
100
AcDbEntity
8
0
100
AcDbLine
10
35.901666666666934
20
-53.466999999999999
30
0
11
35.901666666666934
21
-43.441937500000009
31
0
0
LINE
5
392
100
AcDbEntity
8
0
100
AcDbLine
10
37.696750000000279
20
-30.075187499999998
30
0
11
37.696750000000279
21
-50.125312500000007
31
0
0
LINE
5
393
100
AcDbEntity
8
0
100
AcDbLine
10
35.901666666666934
20
-36.758562500000011
30
0
11
35.901666666666934
21
-16.708437500000009
31
0
0
LINE
5
394
100
AcDbEntity
8
0
100
AcDbLine
10
37.696750000000279
20
-3.341687499999999
30
0
11
37.696750000000279
21
-23.3918125
31
0
0
LINE
5
395
100
AcDbEntity
8
0
100
AcDbLine
10
35.901666666666934
20
0
30
0
11
35.901666666666934
21
-10.025062500000001
31
0
0
LINE
5
396
100
AcDbEntity
8
0
100
AcDbLine
10
39.491833333333624
20
-53.466999999999999
30
0
11
39.491833333333624
21
-43.441937500000009
31
0
0
LINE
5
397
100
AcDbEntity
8
0
100
AcDbLine
10
41.286916666666968
20
-30.075187499999998
30
0
11
41.286916666666968
21
-50.125312500000007
31
0
0
LINE
5
398
100
AcDbEntity
8
0
100
AcDbLine
10
39.491833333333624
20
-36.758562500000011
30
0
11
39.491833333333624
21
-16.708437500000009
31
0
0
LINE
5
399
100
AcDbEntity
8
0
100
AcDbLine
10
41.286916666666968
20
-3.341687499999999
30
0
11
41.286916666666968
21
-23.3918125
31
0
0
LINE
5
400
100
AcDbEntity
8
0
100
AcDbLine
10
39.491833333333624
20
0
30
0
11
39.491833333333624
21
-10.025062500000001
31
0
0
LINE
5
401
100
AcDbEntity
8
0
100
AcDbLine
10
43.082000000000313
20
-53.466999999999999
30
0
11
43.082000000000313
21
-43.441937500000009
31
0
0
LINE
5
402
100
AcDbEntity
8
0
100
AcDbLine
10
44.877083333333658
20
-30.075187499999998
30
0
11
44.877083333333658
21
-50.125312500000007
31
0
0
LINE
5
403
100
AcDbEntity
8
0
100
AcDbLine
10
43.082000000000313
20
-36.758562500000011
30
0
11
43.082000000000313
21
-16.708437500000009
31
0
0
LINE
5
404
100
AcDbEntity
8
0
100
AcDbLine
10
44.877083333333658
20
-3.341687499999999
30
0
11
44.877083333333658
21
-23.3918125
31
0
0
LINE
5
405
100
AcDbEntity
8
0
100
AcDbLine
10
43.082000000000313
20
0
30
0
11
43.082000000000313
21
-10.025062500000001
31
0
0
LINE
5
406
100
AcDbEntity
8
0
100
AcDbLine
10
46.672166666666968
20
-53.466999999999999
30
0
11
46.672166666666968
21
-43.441937500000009
31
0
0
LINE
5
407
100
AcDbEntity
8
0
100
AcDbLine
10
48.467250000000313
20
-30.075187499999998
30
0
11
48.467250000000313
21
-50.125312500000007
31
0
0
LINE
5
408
100
AcDbEntity
8
0
100
AcDbLine
10
46.672166666666968
20
-36.758562500000011
30
0
11
46.672166666666968
21
-16.708437500000009
31
0
0
LINE
5
409
100
AcDbEntity
8
0
100
AcDbLine
10
48.467250000000313
20
-3.341687499999999
30
0
11
48.467250000000313
21
-23.3918125
31
0
0
LINE
5
410
100
AcDbEntity
8
0
100
AcDbLine
10
46.672166666666968
20
0
30
0
11
46.672166666666968
21
-10.025062500000001
31
0
0
LINE
5
411
100
AcDbEntity
8
0
100
AcDbLine
10
50.262333333333622
20
-53.466999999999999
30
0
11
50.262333333333622
21
-43.441937500000009
31
0
0
LINE
5
412
100
AcDbEntity
8
0
100
AcDbLine
10
52.057416666666967
20
-30.075187499999998
30
0
11
52.057416666666967
21
-50.125312500000007
31
0
0
LINE
5
413
100
AcDbEntity
8
0
100
AcDbLine
10
50.262333333333622
20
-36.758562500000011
30
0
11
50.262333333333622
21
-16.708437500000009
31
0
0
LINE
5
414
100
AcDbEntity
8
0
100
AcDbLine
10
52.057416666666967
20
-3.341687499999999
30
0
11
52.057416666666967
21
-23.3918125
31
0
0
LINE
5
415
100
AcDbEntity
8
0
100
AcDbLine
10
50.262333333333622
20
0
30
0
11
50.262333333333622
21
-10.025062500000001
31
0
0
LINE
5
416
100
AcDbEntity
8
0
100
AcDbLine
10
53.852500000000312
20
-53.466999999999999
30
0
11
53.852500000000312
21
-43.441937500000009
31
0
0
LINE
5
417
100
AcDbEntity
8
0
100
AcDbLine
10
55.647583333333657
20
-30.075187499999998
30
0
11
55.647583333333657
21
-50.125312500000007
31
0
0
LINE
5
418
100
AcDbEntity
8
0
100
AcDbLine
10
53.852500000000312
20
-36.758562500000011
30
0
11
53.852500000000312
21
-16.708437500000009
31
0
0
LINE
5
419
100
AcDbEntity
8
0
100
AcDbLine
10
55.647583333333657
20
-3.341687499999999
30
0
11
55.647583333333657
21
-23.3918125
31
0
0
LINE
5
420
100
AcDbEntity
8
0
100
AcDbLine
10
53.852500000000312
20
0
30
0
11
53.852500000000312
21
-10.025062500000001
31
0
0
LINE
5
421
100
AcDbEntity
8
0
100
AcDbLine
10
57.442666666667002
20
-53.466999999999999
30
0
11
57.442666666667002
21
-43.441937500000009
31
0
0
LINE
5
422
100
AcDbEntity
8
0
100
AcDbLine
10
59.237750000000347
20
-30.075187499999998
30
0
11
59.237750000000347
21
-50.125312500000007
31
0
0
LINE
5
423
100
AcDbEntity
8
0
100
AcDbLine
10
57.442666666667002
20
-36.758562500000011
30
0
11
57.442666666667002
21
-16.708437500000009
31
0
0
LINE
5
424
100
AcDbEntity
8
0
100
AcDbLine
10
59.237750000000347
20
-3.341687499999999
30
0
11
59.237750000000347
21
-23.3918125
31
0
0
LINE
5
425
100
AcDbEntity
8
0
100
AcDbLine
10
57.442666666667002
20
0
30
0
11
57.442666666667002
21
-10.025062500000001
31
0
0
LINE
5
426
100
AcDbEntity
8
0
100
AcDbLine
10
61.032833333333656
20
-53.466999999999999
30
0
11
61.032833333333656
21
-43.441937500000009
31
0
0
LINE
5
427
100
AcDbEntity
8
0
100
AcDbLine
10
62.827916666667001
20
-30.075187499999998
30
0
11
62.827916666667001
21
-50.125312500000007
31
0
0
LINE
5
428
100
AcDbEntity
8
0
100
AcDbLine
10
61.032833333333656
20
-36.758562500000011
30
0
11
61.032833333333656
21
-16.708437500000009
31
0
0
LINE
5
429
100
AcDbEntity
8
0
100
AcDbLine
10
62.827916666667001
20
-3.341687499999999
30
0
11
62.827916666667001
21
-23.3918125
31
0
0
LINE
5
430
100
AcDbEntity
8
0
100
AcDbLine
10
61.032833333333656
20
0
30
0
11
61.032833333333656
21
-10.025062500000001
31
0
0
LINE
5
431
100
AcDbEntity
8
0
100
AcDbLine
10
64.623000000000303
20
-53.466999999999999
30
0
11
64.623000000000303
21
-43.441937500000009
31
0
0
LINE
5
432
100
AcDbEntity
8
0
100
AcDbLine
10
66.418083333333655
20
-30.075187499999998
30
0
11
66.418083333333655
21
-50.125312500000007
31
0
0
LINE
5
433
100
AcDbEntity
8
0
100
AcDbLine
10
64.623000000000303
20
-36.758562500000011
30
0
11
64.623000000000303
21
-16.708437500000009
31
0
0
LINE
5
434
100
AcDbEntity
8
0
100
AcDbLine
10
66.418083333333655
20
-3.341687499999999
30
0
11
66.418083333333655
21
-23.3918125
31
0
0
LINE
5
435
100
AcDbEntity
8
0
100
AcDbLine
10
64.623000000000303
20
0
30
0
11
64.623000000000303
21
-10.025062500000001
31
0
0
LINE
5
436
100
AcDbEntity
8
0
100
AcDbLine
10
68.213166666667007
20
-53.466999999999999
30
0
11
68.213166666667007
21
-43.441937500000009
31
0
0
LINE
5
437
100
AcDbEntity
8
0
100
AcDbLine
10
70.008250000000345
20
-30.075187499999998
30
0
11
70.008250000000345
21
-50.125312500000007
31
0
0
LINE
5
438
100
AcDbEntity
8
0
100
AcDbLine
10
68.213166666667007
20
-36.758562500000011
30
0
11
68.213166666667007
21
-16.708437500000009
31
0
0
LINE
5
439
100
AcDbEntity
8
0
100
AcDbLine
10
70.008250000000345
20
-3.341687499999999
30
0
11
70.008250000000345
21
-23.3918125
31
0
0
LINE
5
440
100
AcDbEntity
8
0
100
AcDbLine
10
68.213166666667007
20
0
30
0
11
68.213166666667007
21
-10.025062500000001
31
0
0
LINE
5
441
100
AcDbEntity
8
0
100
AcDbLine
10
71.803333333333683
20
-53.466999999999999
30
0
11
71.803333333333683
21
-43.441937500000009
31
0
0
LINE
5
442
100
AcDbEntity
8
0
100
AcDbLine
10
73.598416666667035
20
-30.075187499999998
30
0
11
73.598416666667035
21
-50.125312500000007
31
0
0
LINE
5
443
100
AcDbEntity
8
0
100
AcDbLine
10
71.803333333333683
20
-36.758562500000011
30
0
11
71.803333333333683
21
-16.708437500000009
31
0
0
LINE
5
444
100
AcDbEntity
8
0
100
AcDbLine
10
73.598416666667035
20
-3.341687499999999
30
0
11
73.598416666667035
21
-23.3918125
31
0
0
LINE
5
445
100
AcDbEntity
8
0
100
AcDbLine
10
71.803333333333683
20
0
30
0
11
71.803333333333683
21
-10.025062500000001
31
0
0
LINE
5
446
100
AcDbEntity
8
0
100
AcDbLine
10
75.393500000000344
20
-53.466999999999999
30
0
11
75.393500000000344
21
-43.441937500000009
31
0
0
LINE
5
447
100
AcDbEntity
8
0
100
AcDbLine
10
77.188583333333696
20
-30.075187499999998
30
0
11
77.188583333333696
21
-50.125312500000007
31
0
0
LINE
5
448
100
AcDbEntity
8
0
100
AcDbLine
10
75.393500000000344
20
-36.758562500000011
30
0
11
75.393500000000344
21
-16.708437500000009
31
0
0
LINE
5
449
100
AcDbEntity
8
0
100
AcDbLine
10
77.188583333333696
20
-3.341687499999999
30
0
11
77.188583333333696
21
-23.3918125
31
0
0
LINE
5
450
100
AcDbEntity
8
0
100
AcDbLine
10
75.393500000000344
20
0
30
0
11
75.393500000000344
21
-10.025062500000001
31
0
0
LINE
5
451
100
AcDbEntity
8
0
100
AcDbLine
10
78.983666666667006
20
-53.466999999999999
30
0
11
78.983666666667006
21
-43.441937500000009
31
0
0
LINE
5
452
100
AcDbEntity
8
0
100
AcDbLine
10
80.778750000000343
20
-30.075187499999998
30
0
11
80.778750000000343
21
-50.125312500000007
31
0
0
LINE
5
453
100
AcDbEntity
8
0
100
AcDbLine
10
78.983666666667006
20
-36.758562500000011
30
0
11
78.983666666667006
21
-16.708437500000009
31
0
0
LINE
5
454
100
AcDbEntity
8
0
100
AcDbLine
10
80.778750000000343
20
-3.341687499999999
30
0
11
80.778750000000343
21
-23.3918125
31
0
0
LINE
5
455
100
AcDbEntity
8
0
100
AcDbLine
10
78.983666666667006
20
0
30
0
11
78.983666666667006
21
-10.025062500000001
31
0
0
LINE
5
456
100
AcDbEntity
8
0
100
AcDbLine
10
82.573833333333681
20
-53.466999999999999
30
0
11
82.573833333333681
21
-43.441937500000009
31
0
0
LINE
5
457
100
AcDbEntity
8
0
100
AcDbLine
10
84.368916666667033
20
-30.075187499999998
30
0
11
84.368916666667033
21
-50.125312500000007
31
0
0
LINE
5
458
100
AcDbEntity
8
0
100
AcDbLine
10
82.573833333333681
20
-36.758562500000011
30
0
11
82.573833333333681
21
-16.708437500000009
31
0
0
LINE
5
459
100
AcDbEntity
8
0
100
AcDbLine
10
84.368916666667033
20
-3.341687499999999
30
0
11
84.368916666667033
21
-23.3918125
31
0
0
LINE
5
460
100
AcDbEntity
8
0
100
AcDbLine
10
82.573833333333681
20
0
30
0
11
82.573833333333681
21
-10.025062500000001
31
0
0
LINE
5
461
100
AcDbEntity
8
0
100
AcDbLine
10
86.164000000000385
20
-53.466999999999999
30
0
11
86.164000000000385
21
-43.441937500000009
31
0
0
LINE
5
462
100
AcDbEntity
8
0
100
AcDbLine
10
87.959083333333723
20
-30.075187499999998
30
0
11
87.959083333333723
21
-50.125312500000007
31
0
0
LINE
5
463
100
AcDbEntity
8
0
100
AcDbLine
10
86.164000000000385
20
-36.758562500000011
30
0
11
86.164000000000385
21
-16.708437500000009
31
0
0
LINE
5
464
100
AcDbEntity
8
0
100
AcDbLine
10
87.959083333333723
20
-3.341687499999999
30
0
11
87.959083333333723
21
-23.3918125
31
0
0
LINE
5
465
100
AcDbEntity
8
0
100
AcDbLine
10
86.164000000000385
20
0
30
0
11
86.164000000000385
21
-10.025062500000001
31
0
0
LINE
5
466
100
AcDbEntity
8
0
100
AcDbLine
10
89.754166666667032
20
-53.466999999999999
30
0
11
89.754166666667032
21
-43.441937500000009
31
0
0
LINE
5
467
100
AcDbEntity
8
0
100
AcDbLine
10
91.54925000000037
20
-30.075187499999998
30
0
11
91.54925000000037
21
-50.125312500000007
31
0
0
LINE
5
468
100
AcDbEntity
8
0
100
AcDbLine
10
89.754166666667032
20
-36.758562500000011
30
0
11
89.754166666667032
21
-16.708437500000009
31
0
0
LINE
5
469
100
AcDbEntity
8
0
100
AcDbLine
10
91.54925000000037
20
-3.341687499999999
30
0
11
91.54925000000037
21
-23.3918125
31
0
0
LINE
5
470
100
AcDbEntity
8
0
100
AcDbLine
10
89.754166666667032
20
0
30
0
11
89.754166666667032
21
-10.025062500000001
31
0
0
LINE
5
471
100
AcDbEntity
8
0
100
AcDbLine
10
93.34433333333368
20
-53.466999999999999
30
0
11
93.34433333333368
21
-43.441937500000009
31
0
0
LINE
5
472
100
AcDbEntity
8
0
100
AcDbLine
10
95.139416666667032
20
-30.075187499999998
30
0
11
95.139416666667032
21
-50.125312500000007
31
0
0
LINE
5
473
100
AcDbEntity
8
0
100
AcDbLine
10
93.34433333333368
20
-36.758562500000011
30
0
11
93.34433333333368
21
-16.708437500000009
31
0
0
LINE
5
474
100
AcDbEntity
8
0
100
AcDbLine
10
95.139416666667032
20
-3.341687499999999
30
0
11
95.139416666667032
21
-23.3918125
31
0
0
LINE
5
475
100
AcDbEntity
8
0
100
AcDbLine
10
93.34433333333368
20
0
30
0
11
93.34433333333368
21
-10.025062500000001
31
0
0
LINE
5
476
100
AcDbEntity
8
0
100
AcDbLine
10
96.934500000000384
20
-53.466999999999999
30
0
11
96.934500000000384
21
-43.441937500000009
31
0
0
LINE
5
477
100
AcDbEntity
8
0
100
AcDbLine
10
98.729583333333721
20
-30.075187499999998
30
0
11
98.729583333333721
21
-50.125312500000007
31
0
0
LINE
5
478
100
AcDbEntity
8
0
100
AcDbLine
10
96.934500000000384
20
-36.758562500000011
30
0
11
96.934500000000384
21
-16.708437500000009
31
0
0
LINE
5
479
100
AcDbEntity
8
0
100
AcDbLine
10
98.729583333333721
20
-3.341687499999999
30
0
11
98.729583333333721
21
-23.3918125
31
0
0
LINE
5
480
100
AcDbEntity
8
0
100
AcDbLine
10
96.934500000000384
20
0
30
0
11
96.934500000000384
21
-10.025062500000001
31
0
0
LINE
5
481
100
AcDbEntity
8
0
100
AcDbLine
10
100.52466666666706
20
-53.466999999999999
30
0
11
100.52466666666706
21
-43.441937500000009
31
0
0
LINE
5
482
100
AcDbEntity
8
0
100
AcDbLine
10
102.31975000000041
20
-30.075187499999998
30
0
11
102.31975000000041
21
-50.125312500000007
31
0
0
LINE
5
483
100
AcDbEntity
8
0
100
AcDbLine
10
100.52466666666706
20
-36.758562500000011
30
0
11
100.52466666666706
21
-16.708437500000009
31
0
0
LINE
5
484
100
AcDbEntity
8
0
100
AcDbLine
10
102.31975000000041
20
-3.341687499999999
30
0
11
102.31975000000041
21
-23.3918125
31
0
0
LINE
5
485
100
AcDbEntity
8
0
100
AcDbLine
10
100.52466666666706
20
0
30
0
11
100.52466666666706
21
-10.025062500000001
31
0
0
LINE
5
486
100
AcDbEntity
8
0
100
AcDbLine
10
104.11483333333372
20
-53.466999999999999
30
0
11
104.11483333333372
21
-43.441937500000009
31
0
0
LINE
5
487
100
AcDbEntity
8
0
100
AcDbLine
10
105.90991666666707
20
-30.075187499999998
30
0
11
105.90991666666707
21
-50.125312500000007
31
0
0
LINE
5
488
100
AcDbEntity
8
0
100
AcDbLine
10
104.11483333333372
20
-36.758562500000011
30
0
11
104.11483333333372
21
-16.708437500000009
31
0
0
LINE
5
489
100
AcDbEntity
8
0
100
AcDbLine
10
105.90991666666707
20
-3.341687499999999
30
0
11
105.90991666666707
21
-23.3918125
31
0
0
LINE
5
490
100
AcDbEntity
8
0
100
AcDbLine
10
104.11483333333372
20
0
30
0
11
104.11483333333372
21
-10.025062500000001
31
0
0
LINE
5
491
100
AcDbEntity
8
0
100
AcDbLine
10
107.70500000000038
20
-53.466999999999999
30
0
11
107.70500000000038
21
-43.441937500000009
31
0
0
LINE
5
492
100
AcDbEntity
8
0
100
AcDbLine
10
109.50008333333372
20
-30.075187499999998
30
0
11
109.50008333333372
21
-50.125312500000007
31
0
0
LINE
5
493
100
AcDbEntity
8
0
100
AcDbLine
10
107.70500000000038
20
-36.758562500000011
30
0
11
107.70500000000038
21
-16.708437500000009
31
0
0
LINE
5
494
100
AcDbEntity
8
0
100
AcDbLine
10
109.50008333333372
20
-3.341687499999999
30
0
11
109.50008333333372
21
-23.3918125
31
0
0
LINE
5
495
100
AcDbEntity
8
0
100
AcDbLine
10
107.70500000000038
20
0
30
0
11
107.70500000000038
21
-10.025062500000001
31
0
0
LINE
5
496
100
AcDbEntity
8
0
100
AcDbLine
10
111.29516666666706
20
-53.466999999999999
30
0
11
111.29516666666706
21
-43.441937500000009
31
0
0
LINE
5
497
100
AcDbEntity
8
0
100
AcDbLine
10
113.09025000000041
20
-30.075187499999998
30
0
11
113.09025000000041
21
-50.125312500000007
31
0
0
LINE
5
498
100
AcDbEntity
8
0
100
AcDbLine
10
111.29516666666706
20
-36.758562500000011
30
0
11
111.29516666666706
21
-16.708437500000009
31
0
0
LINE
5
499
100
AcDbEntity
8
0
100
AcDbLine
10
113.09025000000041
20
-3.341687499999999
30
0
11
113.09025000000041
21
-23.3918125
31
0
0
LINE
5
500
100
AcDbEntity
8
0
100
AcDbLine
10
111.29516666666706
20
0
30
0
11
111.29516666666706
21
-10.025062500000001
31
0
0
LINE
5
501
100
AcDbEntity
8
0
100
AcDbLine
10
114.88533333333376
20
-53.466999999999999
30
0
11
114.88533333333376
21
-43.441937500000009
31
0
0
LINE
5
502
100
AcDbEntity
8
0
100
AcDbLine
10
116.6804166666671
20
-30.075187499999998
30
0
11
116.6804166666671
21
-50.125312500000007
31
0
0
LINE
5
503
100
AcDbEntity
8
0
100
AcDbLine
10
114.88533333333376
20
-36.758562500000011
30
0
11
114.88533333333376
21
-16.708437500000009
31
0
0
LINE
5
504
100
AcDbEntity
8
0
100
AcDbLine
10
116.6804166666671
20
-3.341687499999999
30
0
11
116.6804166666671
21
-23.3918125
31
0
0
LINE
5
505
100
AcDbEntity
8
0
100
AcDbLine
10
114.88533333333376
20
0
30
0
11
114.88533333333376
21
-10.025062500000001
31
0
0
LINE
5
506
100
AcDbEntity
8
0
100
AcDbLine
10
118.47550000000041
20
-53.466999999999999
30
0
11
118.47550000000041
21
-43.441937500000009
31
0
0
LINE
5
507
100
AcDbEntity
8
0
100
AcDbLine
10
120.27058333333375
20
-30.075187499999998
30
0
11
120.27058333333375
21
-50.125312500000007
31
0
0
LINE
5
508
100
AcDbEntity
8
0
100
AcDbLine
10
118.47550000000041
20
-36.758562500000011
30
0
11
118.47550000000041
21
-16.708437500000009
31
0
0
LINE
5
509
100
AcDbEntity
8
0
100
AcDbLine
10
120.27058333333375
20
-3.341687499999999
30
0
11
120.27058333333375
21
-23.3918125
31
0
0
LINE
5
510
100
AcDbEntity
8
0
100
AcDbLine
10
118.47550000000041
20
0
30
0
11
118.47550000000041
21
-10.025062500000001
31
0
0
LINE
5
511
100
AcDbEntity
8
0
100
AcDbLine
10
122.06566666666706
20
-53.466999999999999
30
0
11
122.06566666666706
21
-43.441937500000009
31
0
0
LINE
5
512
100
AcDbEntity
8
0
100
AcDbLine
10
123.86075000000041
20
-30.075187499999998
30
0
11
123.86075000000041
21
-50.125312500000007
31
0
0
LINE
5
513
100
AcDbEntity
8
0
100
AcDbLine
10
122.06566666666706
20
-36.758562500000011
30
0
11
122.06566666666706
21
-16.708437500000009
31
0
0
LINE
5
514
100
AcDbEntity
8
0
100
AcDbLine
10
123.86075000000041
20
-3.341687499999999
30
0
11
123.86075000000041
21
-23.3918125
31
0
0
LINE
5
515
100
AcDbEntity
8
0
100
AcDbLine
10
122.06566666666706
20
0
30
0
11
122.06566666666706
21
-10.025062500000001
31
0
0
LINE
5
516
100
AcDbEntity
8
0
100
AcDbLine
10
125.65583333333376
20
-53.466999999999999
30
0
11
125.65583333333376
21
-43.441937500000009
31
0
0
LINE
5
517
100
AcDbEntity
8
0
100
AcDbLine
10
127.4509166666671
20
-30.075187499999998
30
0
11
127.4509166666671
21
-50.125312500000007
31
0
0
LINE
5
518
100
AcDbEntity
8
0
100
AcDbLine
10
125.65583333333376
20
-36.758562500000011
30
0
11
125.65583333333376
21
-16.708437500000009
31
0
0
LINE
5
519
100
AcDbEntity
8
0
100
AcDbLine
10
127.4509166666671
20
-3.341687499999999
30
0
11
127.4509166666671
21
-23.3918125
31
0
0
LINE
5
520
100
AcDbEntity
8
0
100
AcDbLine
10
125.65583333333376
20
0
30
0
11
125.65583333333376
21
-10.025062500000001
31
0
0
LINE
5
521
100
AcDbEntity
8
0
100
AcDbLine
10
129.24600000000044
20
-53.466999999999999
30
0
11
129.24600000000044
21
-43.441937500000009
31
0
0
LINE
5
522
100
AcDbEntity
8
0
100
AcDbLine
10
131.0410833333338
20
-30.075187499999998
30
0
11
131.0410833333338
21
-50.125312500000007
31
0
0
LINE
5
523
100
AcDbEntity
8
0
100
AcDbLine
10
129.24600000000044
20
-36.758562500000011
30
0
11
129.24600000000044
21
-16.708437500000009
31
0
0
LINE
5
524
100
AcDbEntity
8
0
100
AcDbLine
10
131.0410833333338
20
-3.341687499999999
30
0
11
131.0410833333338
21
-23.3918125
31
0
0
LINE
5
525
100
AcDbEntity
8
0
100
AcDbLine
10
129.24600000000044
20
0
30
0
11
129.24600000000044
21
-10.025062500000001
31
0
0
LINE
5
526
100
AcDbEntity
8
0
100
AcDbLine
10
132.83616666666711
20
-53.466999999999999
30
0
11
132.83616666666711
21
-43.441937500000009
31
0
0
LINE
5
527
100
AcDbEntity
8
0
100
AcDbLine
10
134.63125000000045
20
-30.075187499999998
30
0
11
134.63125000000045
21
-50.125312500000007
31
0
0
LINE
5
528
100
AcDbEntity
8
0
100
AcDbLine
10
132.83616666666711
20
-36.758562500000011
30
0
11
132.83616666666711
21
-16.708437500000009
31
0
0
LINE
5
529
100
AcDbEntity
8
0
100
AcDbLine
10
134.63125000000045
20
-3.341687499999999
30
0
11
134.63125000000045
21
-23.3918125
31
0
0
LINE
5
530
100
AcDbEntity
8
0
100
AcDbLine
10
132.83616666666711
20
0
30
0
11
132.83616666666711
21
-10.025062500000001
31
0
0
LINE
5
531
100
AcDbEntity
8
0
100
AcDbLine
10
136.42633333333376
20
-53.466999999999999
30
0
11
136.42633333333376
21
-43.441937500000009
31
0
0
LINE
5
532
100
AcDbEntity
8
0
100
AcDbLine
10
138.2214166666671
20
-30.075187499999998
30
0
11
138.2214166666671
21
-50.125312500000007
31
0
0
LINE
5
533
100
AcDbEntity
8
0
100
AcDbLine
10
136.42633333333376
20
-36.758562500000011
30
0
11
136.42633333333376
21
-16.708437500000009
31
0
0
LINE
5
534
100
AcDbEntity
8
0
100
AcDbLine
10
138.2214166666671
20
-3.341687499999999
30
0
11
138.2214166666671
21
-23.3918125
31
0
0
LINE
5
535
100
AcDbEntity
8
0
100
AcDbLine
10
136.42633333333376
20
0
30
0
11
136.42633333333376
21
-10.025062500000001
31
0
0
LINE
5
536
100
AcDbEntity
8
0
100
AcDbLine
10
140.01650000000043
20
-53.466999999999999
30
0
11
140.01650000000043
21
-43.441937500000009
31
0
0
LINE
5
537
100
AcDbEntity
8
0
100
AcDbLine
10
141.81158333333377
20
-30.075187499999998
30
0
11
141.81158333333377
21
-50.125312500000007
31
0
0
LINE
5
538
100
AcDbEntity
8
0
100
AcDbLine
10
140.01650000000043
20
-36.758562500000011
30
0
11
140.01650000000043
21
-16.708437500000009
31
0
0
LINE
5
539
100
AcDbEntity
8
0
100
AcDbLine
10
141.81158333333377
20
-3.341687499999999
30
0
11
141.81158333333377
21
-23.3918125
31
0
0
LINE
5
540
100
AcDbEntity
8
0
100
AcDbLine
10
140.01650000000043
20
0
30
0
11
140.01650000000043
21
-10.025062500000001
31
0
0
LINE
5
541
100
AcDbEntity
8
0
100
AcDbLine
10
143.60666666666714
20
-53.466999999999999
30
0
11
143.60666666666714
21
-43.441937500000009
31
0
0
LINE
5
542
100
AcDbEntity
8
0
100
AcDbLine
10
145.40175000000048
20
-30.075187499999998
30
0
11
145.40175000000048
21
-50.125312500000007
31
0
0
LINE
5
543
100
AcDbEntity
8
0
100
AcDbLine
10
143.60666666666714
20
-36.758562500000011
30
0
11
143.60666666666714
21
-16.708437500000009
31
0
0
LINE
5
544
100
AcDbEntity
8
0
100
AcDbLine
10
145.40175000000048
20
-3.341687499999999
30
0
11
145.40175000000048
21
-23.3918125
31
0
0
LINE
5
545
100
AcDbEntity
8
0
100
AcDbLine
10
143.60666666666714
20
0
30
0
11
143.60666666666714
21
-10.025062500000001
31
0
0
LINE
5
546
100
AcDbEntity
8
0
100
AcDbLine
10
147.19683333333379
20
-53.466999999999999
30
0
11
147.19683333333379
21
-43.441937500000009
31
0
0
LINE
5
547
100
AcDbEntity
8
0
100
AcDbLine
10
148.99191666666712
20
-30.075187499999998
30
0
11
148.99191666666712
21
-50.125312500000007
31
0
0
LINE
5
548
100
AcDbEntity
8
0
100
AcDbLine
10
147.19683333333379
20
-36.758562500000011
30
0
11
147.19683333333379
21
-16.708437500000009
31
0
0
LINE
5
549
100
AcDbEntity
8
0
100
AcDbLine
10
148.99191666666712
20
-3.341687499999999
30
0
11
148.99191666666712
21
-23.3918125
31
0
0
LINE
5
550
100
AcDbEntity
8
0
100
AcDbLine
10
147.19683333333379
20
0
30
0
11
147.19683333333379
21
-10.025062500000001
31
0
0
LINE
5
551
100
AcDbEntity
8
0
100
AcDbLine
10
150.78700000000043
20
-53.466999999999999
30
0
11
150.78700000000043
21
-43.441937500000009
31
0
0
LINE
5
552
100
AcDbEntity
8
0
100
AcDbLine
10
152.5820833333338
20
-30.075187499999998
30
0
11
152.5820833333338
21
-50.125312500000007
31
0
0
LINE
5
553
100
AcDbEntity
8
0
100
AcDbLine
10
150.78700000000043
20
-36.758562500000011
30
0
11
150.78700000000043
21
-16.708437500000009
31
0
0
LINE
5
554
100
AcDbEntity
8
0
100
AcDbLine
10
152.5820833333338
20
-3.341687499999999
30
0
11
152.5820833333338
21
-23.3918125
31
0
0
LINE
5
555
100
AcDbEntity
8
0
100
AcDbLine
10
150.78700000000043
20
0
30
0
11
150.78700000000043
21
-10.025062500000001
31
0
0
LINE
5
556
100
AcDbEntity
8
0
100
AcDbLine
10
154.37716666666714
20
-53.466999999999999
30
0
11
154.37716666666714
21
-43.441937500000009
31
0
0
LINE
5
557
100
AcDbEntity
8
0
100
AcDbLine
10
156.17225000000047
20
-30.075187499999998
30
0
11
156.17225000000047
21
-50.125312500000007
31
0
0
LINE
5
558
100
AcDbEntity
8
0
100
AcDbLine
10
154.37716666666714
20
-36.758562500000011
30
0
11
154.37716666666714
21
-16.708437500000009
31
0
0
LINE
5
559
100
AcDbEntity
8
0
100
AcDbLine
10
156.17225000000047
20
-3.341687499999999
30
0
11
156.17225000000047
21
-23.3918125
31
0
0
LINE
5
560
100
AcDbEntity
8
0
100
AcDbLine
10
154.37716666666714
20
0
30
0
11
154.37716666666714
21
-10.025062500000001
31
0
0
LINE
5
561
100
AcDbEntity
8
0
100
AcDbLine
10
157.96733333333381
20
-53.466999999999999
30
0
11
157.96733333333381
21
-43.441937500000009
31
0
0
LINE
5
562
100
AcDbEntity
8
0
100
AcDbLine
10
159.76241666666715
20
-30.075187499999998
30
0
11
159.76241666666715
21
-50.125312500000007
31
0
0
LINE
5
563
100
AcDbEntity
8
0
100
AcDbLine
10
157.96733333333381
20
-36.758562500000011
30
0
11
157.96733333333381
21
-16.708437500000009
31
0
0
LINE
5
564
100
AcDbEntity
8
0
100
AcDbLine
10
159.76241666666715
20
-3.341687499999999
30
0
11
159.76241666666715
21
-23.3918125
31
0
0
LINE
5
565
100
AcDbEntity
8
0
100
AcDbLine
10
157.96733333333381
20
0
30
0
11
157.96733333333381
21
-10.025062500000001
31
0
0
LINE
5
566
100
AcDbEntity
8
0
100
AcDbLine
10
161.5575
20
-53.466999999999999
30
0
11
161.5575
21
-43.441937500000009
31
0
0
LINE
5
567
100
AcDbEntity
8
0
100
AcDbLine
10
161.5575
20
-36.758562500000011
30
0
11
161.5575
21
-16.708437500000009
31
0
0
LINE
5
568
100
AcDbEntity
8
0
100
AcDbLine
10
161.5575
20
0
30
0
11
161.5575
21
-10.025062500000001
31
0
0
ENDSEC
0
SECTION
2
OBJECTS
0
DICTIONARY
5
C
100
AcDbDictionary
3
ACAD_GROUP
350
D
3
ACAD_MLINESTYLE
350
17
0
DICTIONARY
5
D
100
AcDbDictionary
0
DICTIONARY
5
1A
330
C
100
AcDbDictionary
0
DICTIONARY
5
17
100
AcDbDictionary
0
ENDSEC
0
EOF
