0
SECTION
2
HEADER
9
$INSUNITS
70
4
9
$ACADVER
1
AC1014
9
$HANDSEED
5
FFFF
0
ENDSEC
0
SECTION
2
TABLES
0
TABLE
2
VPORT
5
8
100
AcDbSymbolTable
0
ENDTAB
0
TABLE
2
LTYPE
5
5
100
AcDbSymbolTable
0
LTYPE
5
14
100
AcDbSymbolTableRecord
100
AcDbLinetypeTableRecord
2
BYBLOCK
70
0
0
LTYPE
5
15
100
AcDbSymbolTableRecord
100
AcDbLinetypeTableRecord
2
BYLAYER
70
0
0
ENDTAB
0
TABLE
2
LAYER
5
2
100
AcDbSymbolTable
70
2
0
LAYER
5
50
100
AcDbSymbolTableRecord
100
AcDbLayerTableRecord
2
0
70
0
6
CONTINUOUS
0
ENDTAB
0
TABLE
2
STYLE
5
3
100
AcDbSymbolTable
70
1
0
STYLE
5
11
100
AcDbSymbolTableRecord
100
AcDbTextStyleTableRecord
2
STANDARD
70
0
0
ENDTAB
0
TABLE
2
VIEW
5
6
100
AcDbSymbolTable
70
0
0
ENDTAB
0
TABLE
2
UCS
5
7
100
AcDbSymbolTable
70
0
0
ENDTAB
0
TABLE
2
APPID
5
9
100
AcDbSymbolTable
70
2
0
APPID
5
12
100
AcDbSymbolTableRecord
100
AcDbRegAppTableRecord
2
ACAD
70
0
0
ENDTAB
0
TABLE
2
DIMSTYLE
5
A
100
AcDbSymbolTable
70
1
0
ENDTAB
0
TABLE
2
BLOCK_RECORD
5
1
100
AcDbSymbolTable
70
1
0
BLOCK_RECORD
5
1F
100
AcDbSymbolTableRecord
100
AcDbBlockTableRecord
2
*MODEL_SPACE
0
BLOCK_RECORD
5
1B
100
AcDbSymbolTableRecord
100
AcDbBlockTableRecord
2
*PAPER_SPACE
0
ENDTAB
0
ENDSEC
0
SECTION
2
BLOCKS
0
BLOCK
5
20
100
AcDbEntity
100
AcDbBlockBegin
2
*MODEL_SPACE
0
ENDBLK
5
21
100
AcDbEntity
100
AcDbBlockEnd
0
BLOCK
5
1C
100
AcDbEntity
100
AcDbBlockBegin
2
*PAPER_SPACE
0
ENDBLK
5
1D
100
AcDbEntity
100
AcDbBlockEnd
0
ENDSEC
0
SECTION
2
ENTITIES
0
LWPOLYLINE
5
100
100
AcDbEntity
8
0
100
AcDbPolyline
90
30
70
1
43
0.0
10
16.27749999999617
20
3.9999999999987166
10
16.27749999999185
20
8.1100000000169494
10
29.102499999991849
20
8.1100000000304302
10
29.102499999996173
20
4.0000000000121974
10
32.277499999996174
20
4.0000000000155342
10
32.277499999991846
20
8.1100000000337662
10
40.889999999991758
20
8.1100000000428167
10
40.88999999997769
20
21.501999999969208
10
48.999999999998039
20
21.501999999969208
10
48.999999999998039
20
-3.1749999999999989
10
17.499999999971301
20
-3.1749999999999989
10
17.499999999971301
20
0
10
-17.500000000028699
20
0
10
-17.500000000028699
20
-3.1749999999999989
10
-49.000000000055444
20
-3.1749999999999989
10
-49.000000000055451
20
21.501999999969208
10
-44.388000000022188
20
21.501999999969197
42
0.38388932182225916
10
-30.77550000002222
20
6.3851271834772838
10
-30.77550000002222
20
3.0000000000000071
10
-27.600500000022219
20
3.0000000000000071
10
-27.600500000022215
20
6.3851271834773353
42
0.38388932182224983
10
-13.988000000022737
20
21.501999999969208
10
-11.91000000002234
20
21.501999999969208
10
-11.910000000008267
20
8.1099999999873091
10
-3.897500000008165
20
8.1099999999957326
10
-3.8975000000038307
20
4.0000000000121974
10
-0.72250000000383174
20
4.0000000000155342
10
-0.72250000000815273
20
8.1100000000337662
10
13.102499999991846
20
8.1100000000136045
10
13.102499999996171
20
3.9999999999953797
0
ENDSEC
0
SECTION
2
OBJECTS
0
DICTIONARY
5
C
100
AcDbDictionary
3
ACAD_GROUP
350
D
3
ACAD_MLINESTYLE
350
17
0
DICTIONARY
5
D
100
AcDbDictionary
0
DICTIONARY
5
1A
330
C
100
AcDbDictionary
0
DICTIONARY
5
17
100
AcDbDictionary
0
ENDSEC
0
EOF
