<?xml version="1.0" encoding="UTF-8" standalone="no"?>
<!-- Created with Inkscape (http://www.inkscape.org/) -->

<svg
   xmlns:dc="http://purl.org/dc/elements/1.1/"
   xmlns:cc="http://creativecommons.org/ns#"
   xmlns:rdf="http://www.w3.org/1999/02/22-rdf-syntax-ns#"
   xmlns:svg="http://www.w3.org/2000/svg"
   xmlns="http://www.w3.org/2000/svg"
   xmlns:sodipodi="http://sodipodi.sourceforge.net/DTD/sodipodi-0.dtd"
   xmlns:inkscape="http://www.inkscape.org/namespaces/inkscape"
   width="6in"
   height="6in"
   viewBox="0 0 152.4 152.4"
   version="1.1"
   id="svg1702"
   inkscape:version="0.92.3 (2405546, 2018-03-11)"
   sodipodi:docname="wood_base_top.svg">
  <defs
     id="defs1696" />
  <sodipodi:namedview
     id="base"
     pagecolor="#ffffff"
     bordercolor="#666666"
     borderopacity="1.0"
     inkscape:pageopacity="0.0"
     inkscape:pageshadow="2"
     inkscape:zoom="1.4756944"
     inkscape:cx="288"
     inkscape:cy="288"
     inkscape:document-units="mm"
     inkscape:current-layer="layer1"
     showgrid="false"
     inkscape:window-width="1920"
     inkscape:window-height="1017"
     inkscape:window-x="-8"
     inkscape:window-y="-8"
     inkscape:window-maximized="1"
     units="in" />
  <metadata
     id="metadata1699">
    <rdf:RDF>
      <cc:Work
         rdf:about="">
        <dc:format>image/svg+xml</dc:format>
        <dc:type
           rdf:resource="http://purl.org/dc/dcmitype/StillImage" />
        <dc:title></dc:title>
      </cc:Work>
    </rdf:RDF>
  </metadata>
  <g
     inkscape:label="Layer 1"
     inkscape:groupmode="layer"
     id="layer1"
     transform="translate(0,-144.59998)">
    <g
       id="g1242"
       transform="translate(1.7490253,-2.1395581)"
       style="stroke-width:0.001;stroke-miterlimit:4;stroke-dasharray:none">
      <g
         id="g1260"
         transform="translate(4.8091062,-1.0635576)"
         style="stroke-width:0.001;stroke-miterlimit:4;stroke-dasharray:none">
        <path
           inkscape:connector-curvature="0"
           d="M 69.641867,296.0531 V 152.00308"
           style="fill:none;stroke:#ff0000;stroke-width:0.001;stroke-miterlimit:4;stroke-dasharray:none;stroke-opacity:1"
           id="path1043" />
        <path
           inkscape:connector-curvature="0"
           d="m 44.066557,238.88077 h 6.89144 v -29.70538 h -6.89144 z"
           style="fill:none;stroke:#000000;stroke-width:0.001;stroke-miterlimit:4;stroke-dasharray:none"
           id="path1003" />
        <path
           inkscape:connector-curvature="0"
           d="M 139.21268,242.66952 0.071057,205.38664"
           style="fill:none;stroke:#ff0000;stroke-width:0.001;stroke-miterlimit:4;stroke-dasharray:none;stroke-opacity:1"
           id="path1053" />
        <path
           inkscape:connector-curvature="0"
           d="m 75.991867,179.61438 a 6.35,6.35 0 1 0 -12.7,0 6.35,6.35 0 1 0 12.7,0 z"
           style="fill:none;stroke:#000000;stroke-width:0.001;stroke-miterlimit:4;stroke-dasharray:none"
           id="path999" />
        <path
           inkscape:connector-curvature="0"
           d="m 95.21718,238.88077 v -29.70538 h -6.89144 v 29.70538 z"
           style="fill:none;stroke:#000000;stroke-width:0.001;stroke-miterlimit:4;stroke-dasharray:none"
           id="path1001" />
        <path
           inkscape:connector-curvature="0"
           d="m 58.957997,224.02809 v 53.71142 a 54.763698,54.763698 0 0 1 -19.74121,-8.17708 l -9.58987,14.35224 A 72.024998,72.024998 0 0 1 9.755267,264.04304 l 14.35225,-9.58988 a 54.763698,54.763698 0 0 1 -8.17708,-19.74119 l -16.92963,3.36751 a 72.024998,72.024998 0 0 1 0,-28.10278 l 16.92963,3.36751 a 54.763698,54.763698 0 0 1 8.17708,-19.74119 l -14.35225,-9.58988 a 72.024998,72.024998 0 0 1 19.87165,-19.87165 l 9.58987,14.35224 a 54.763698,54.763698 0 0 1 19.74121,-8.17708 l -3.36751,-16.92962 a 72.024998,72.024998 0 0 1 28.10276,0 l -3.36751,16.92962 a 54.763698,54.763698 0 0 1 19.741213,8.17708 l 9.58987,-14.35224 a 72.024998,72.024998 0 0 1 19.87165,19.87165 l -14.35225,9.58988 a 54.763698,54.763698 0 0 1 8.17708,19.74119 l 16.92963,-3.36751 a 72.024998,72.024998 0 0 1 0,28.10278 l -16.92963,-3.36751 a 54.763698,54.763698 0 0 1 -8.17708,19.74119 l 14.35225,9.58988 a 72.024998,72.024998 0 0 1 -19.87165,19.87163 l -9.58987,-14.35224 a 54.763698,54.763698 0 0 1 -19.741213,8.17708 v -53.71142 a 10.68387,10.68387 0 0 0 -21.36774,0 z"
           style="fill:none;stroke:#000000;stroke-width:0.001;stroke-miterlimit:4;stroke-dasharray:none"
           id="path1005" />
        <path
           inkscape:connector-curvature="0"
           d="M -2.3831341,224.02809 H 141.66687"
           style="fill:none;stroke:#ff0000;stroke-width:0.001;stroke-miterlimit:4;stroke-dasharray:none;stroke-opacity:1"
           id="path1031" />
        <path
           inkscape:connector-curvature="0"
           d="M 0.071057,242.66952 139.21268,205.38663"
           style="fill:none;stroke:#ff0000;stroke-width:0.001;stroke-miterlimit:4;stroke-dasharray:none;stroke-opacity:1"
           id="path1033" />
        <path
           inkscape:connector-curvature="0"
           d="M 7.266387,260.04058 132.01735,188.01559"
           style="fill:none;stroke:#ff0000;stroke-width:0.001;stroke-miterlimit:4;stroke-dasharray:none;stroke-opacity:1"
           id="path1035" />
        <path
           inkscape:connector-curvature="0"
           d="M 18.712507,274.95744 120.57123,173.09872"
           style="fill:none;stroke:#ff0000;stroke-width:0.001;stroke-miterlimit:4;stroke-dasharray:none;stroke-opacity:1"
           id="path1037" />
        <path
           inkscape:connector-curvature="0"
           d="M 33.629367,286.40356 105.65437,161.65261"
           style="fill:none;stroke:#ff0000;stroke-width:0.001;stroke-miterlimit:4;stroke-dasharray:none;stroke-opacity:1"
           id="path1039" />
        <path
           inkscape:connector-curvature="0"
           d="M 51.000427,293.5989 88.28331,154.45728"
           style="fill:none;stroke:#ff0000;stroke-width:0.001;stroke-miterlimit:4;stroke-dasharray:none;stroke-opacity:1"
           id="path1041" />
        <path
           inkscape:connector-curvature="0"
           d="M 88.28331,293.5989 51.000427,154.45728"
           style="fill:none;stroke:#ff0000;stroke-width:0.001;stroke-miterlimit:4;stroke-dasharray:none;stroke-opacity:1"
           id="path1045" />
        <path
           inkscape:connector-curvature="0"
           d="M 105.65437,286.40356 33.629367,161.65261"
           style="fill:none;stroke:#ff0000;stroke-width:0.001;stroke-miterlimit:4;stroke-dasharray:none;stroke-opacity:1"
           id="path1047" />
        <path
           inkscape:connector-curvature="0"
           d="M 120.57123,274.95744 18.712507,173.09872"
           style="fill:none;stroke:#ff0000;stroke-width:0.001;stroke-miterlimit:4;stroke-dasharray:none;stroke-opacity:1"
           id="path1049" />
        <path
           inkscape:connector-curvature="0"
           d="M 132.01735,260.04058 7.266387,188.01559"
           style="fill:none;stroke:#ff0000;stroke-width:0.001;stroke-miterlimit:4;stroke-dasharray:none;stroke-opacity:1"
           id="path1051" />
      </g>
    </g>
  </g>
</svg>
