0
SECTION
2
HEADER
9
$INSUNITS
70
4
9
$ACADVER
1
AC1014
9
$HANDSEED
5
FFFF
0
ENDSEC
0
SECTION
2
TABLES
0
TABLE
2
VPORT
5
8
100
AcDbSymbolTable
0
ENDTAB
0
TABLE
2
LTYPE
5
5
100
AcDbSymbolTable
0
LTYPE
5
14
100
AcDbSymbolTableRecord
100
AcDbLinetypeTableRecord
2
BYBLOCK
70
0
0
LTYPE
5
15
100
AcDbSymbolTableRecord
100
AcDbLinetypeTableRecord
2
BYLAYER
70
0
0
ENDTAB
0
TABLE
2
LAYER
5
2
100
AcDbSymbolTable
70
2
0
LAYER
5
50
100
AcDbSymbolTableRecord
100
AcDbLayerTableRecord
2
0
70
0
6
CONTINUOUS
0
ENDTAB
0
TABLE
2
STYLE
5
3
100
AcDbSymbolTable
70
1
0
STYLE
5
11
100
AcDbSymbolTableRecord
100
AcDbTextStyleTableRecord
2
STANDARD
70
0
0
ENDTAB
0
TABLE
2
VIEW
5
6
100
AcDbSymbolTable
70
0
0
ENDTAB
0
TABLE
2
UCS
5
7
100
AcDbSymbolTable
70
0
0
ENDTAB
0
TABLE
2
APPID
5
9
100
AcDbSymbolTable
70
2
0
APPID
5
12
100
AcDbSymbolTableRecord
100
AcDbRegAppTableRecord
2
ACAD
70
0
0
ENDTAB
0
TABLE
2
DIMSTYLE
5
A
100
AcDbSymbolTable
70
1
0
ENDTAB
0
TABLE
2
BLOCK_RECORD
5
1
100
AcDbSymbolTable
70
1
0
BLOCK_RECORD
5
1F
100
AcDbSymbolTableRecord
100
AcDbBlockTableRecord
2
*MODEL_SPACE
0
BLOCK_RECORD
5
1B
100
AcDbSymbolTableRecord
100
AcDbBlockTableRecord
2
*PAPER_SPACE
0
ENDTAB
0
ENDSEC
0
SECTION
2
BLOCKS
0
BLOCK
5
20
100
AcDbEntity
100
AcDbBlockBegin
2
*MODEL_SPACE
0
ENDBLK
5
21
100
AcDbEntity
100
AcDbBlockEnd
0
BLOCK
5
1C
100
AcDbEntity
100
AcDbBlockBegin
2
*PAPER_SPACE
0
ENDBLK
5
1D
100
AcDbEntity
100
AcDbBlockEnd
0
ENDSEC
0
SECTION
2
ENTITIES
0
LWPOLYLINE
5
100
100
AcDbEntity
8
0
100
AcDbPolyline
90
4
70
1
43
0.0
10
44.181708926460274
20
41.936644896194068
10
49.930577586534532
20
47.685513556268319
10
47.685513556267253
20
49.930577586535605
10
41.936644896192988
20
44.181708926461347
0
LWPOLYLINE
5
101
100
AcDbEntity
8
0
100
AcDbPolyline
90
4
70
1
43
0.0
10
58.409054292821232
20
-17.294159864827247
10
66.262154925502855
20
-19.39839183743463
10
67.083905393703361
20
-16.331577338966841
10
59.230804761021723
20
-14.227345366359467
0
LWPOLYLINE
5
102
100
AcDbEntity
8
0
100
AcDbPolyline
90
4
70
1
43
0.0
10
14.227345366360979
20
-59.230804761021318
10
16.331577338968366
20
-67.083905393702963
10
19.398391837436151
20
-66.262154925502458
10
17.294159864828757
20
-58.409054292820819
0
LWPOLYLINE
5
103
100
AcDbEntity
8
0
100
AcDbPolyline
90
4
70
1
43
0.0
10
-44.181708926460246
20
-41.936644896194089
10
-49.930577586534497
20
-47.68551355626834
10
-47.685513556267203
20
-49.930577586535634
10
-41.936644896192959
20
-44.181708926461376
0
LWPOLYLINE
5
104
100
AcDbEntity
8
0
100
AcDbPolyline
90
4
70
1
43
0.0
10
-58.409054292821224
20
17.294159864827275
10
-66.262154925502855
20
19.398391837434662
10
-67.083905393703361
20
16.331577338966877
10
-59.230804761021716
20
14.227345366359499
0
LWPOLYLINE
5
105
100
AcDbEntity
8
0
100
AcDbPolyline
90
4
70
1
43
0.0
10
-14.227345366360943
20
59.230804761021332
10
-16.331577338968323
20
67.083905393702977
10
-19.398391837436112
20
66.262154925502472
10
-17.294159864828725
20
58.409054292820841
0
LWPOLYLINE
5
106
100
AcDbEntity
8
0
100
AcDbPolyline
90
4
70
1
43
0.0
10
-29.072620657803515
20
53.530256088490695
10
-33.137684671492835
20
60.571153496220482
10
-35.887315328508429
20
58.983653496220484
10
-31.822251314819098
20
51.942756088490711
0
LWPOLYLINE
5
107
100
AcDbEntity
8
0
100
AcDbPolyline
90
4
70
1
43
0.0
10
-69.024999999999977
20
-1.5875000000007946
10
-60.894871972621317
20
-1.5875000000007846
10
-60.894871972621317
20
1.5874999999992021
10
-69.024999999999977
20
1.587499999999201
0
LWPOLYLINE
5
108
100
AcDbEntity
8
0
100
AcDbPolyline
90
4
70
1
43
0.0
10
-31.822251314817773
20
-51.942756088491471
10
-35.8873153285071
20
-58.983653496221251
10
-33.137684671491513
20
-60.571153496221243
10
-29.072620657802194
20
-53.530256088491456
0
LWPOLYLINE
5
109
100
AcDbEntity
8
0
100
AcDbPolyline
90
4
70
1
43
0.0
10
29.072620657803544
20
-53.530256088490688
10
33.13768467149287
20
-60.571153496220461
10
35.887315328508457
20
-58.983653496220469
10
31.822251314819123
20
-51.942756088490697
0
LWPOLYLINE
5
110
100
AcDbEntity
8
0
100
AcDbPolyline
90
4
70
1
43
0.0
10
60.894871972621317
20
-1.5874999999992092
10
69.024999999999977
20
-1.5874999999992092
10
69.024999999999977
20
1.5875000000007864
10
60.894871972621317
20
1.5875000000007775
0
LWPOLYLINE
5
111
100
AcDbEntity
8
0
100
AcDbPolyline
90
4
70
1
43
0.0
10
31.822251314817777
20
51.942756088491464
10
35.8873153285071
20
58.983653496221237
10
33.137684671491513
20
60.571153496221228
10
29.072620657802197
20
53.530256088491456
0
LWPOLYLINE
5
112
100
AcDbEntity
8
0
100
AcDbPolyline
90
4
70
1
43
0.0
10
53.530256088490688
20
29.072620657803544
10
60.571153496220461
20
33.13768467149287
10
58.983653496220469
20
35.887315328508457
10
51.942756088490697
20
31.822251314819123
0
LWPOLYLINE
5
113
100
AcDbEntity
8
0
100
AcDbPolyline
90
4
70
1
43
0.0
10
51.942756088491464
20
-31.822251314817787
10
58.983653496221237
20
-35.887315328507114
10
60.571153496221228
20
-33.13768467149152
10
53.530256088491456
20
-29.072620657802204
0
LWPOLYLINE
5
114
100
AcDbEntity
8
0
100
AcDbPolyline
90
4
70
1
43
0.0
10
-1.5874999999991886
20
-60.894871972621338
10
-1.5874999999991859
20
-69.024999999999991
10
1.5875000000008102
20
-69.024999999999991
10
1.5875000000007984
20
-60.894871972621338
0
LWPOLYLINE
5
115
100
AcDbEntity
8
0
100
AcDbPolyline
90
4
70
1
43
0.0
10
-53.530256088490674
20
-29.072620657803551
10
-60.571153496220454
20
-33.137684671492877
10
-58.983653496220462
20
-35.887315328508464
10
-51.94275608849069
20
-31.822251314819134
0
LWPOLYLINE
5
116
100
AcDbEntity
8
0
100
AcDbPolyline
90
4
70
1
43
0.0
10
-51.942756088491464
20
31.822251314817791
10
-58.983653496221237
20
35.887315328507121
10
-60.571153496221228
20
33.137684671491535
10
-53.530256088491456
20
29.072620657802211
0
LWPOLYLINE
5
117
100
AcDbEntity
8
0
100
AcDbPolyline
90
4
70
1
43
0.0
10
1.5874999999992154
20
60.894871972621317
10
1.5874999999992161
20
69.024999999999977
10
-1.5875000000007793
20
69.024999999999977
10
-1.5875000000007713
20
60.894871972621317
0
LWPOLYLINE
5
118
100
AcDbEntity
8
0
100
AcDbPolyline
90
4
70
1
43
0.0
10
-41.936644896194075
20
44.18170892646026
10
-47.685513556268333
20
49.930577586534511
10
-49.930577586535627
20
47.685513556267225
10
-44.181708926461354
20
41.936644896192981
0
LWPOLYLINE
5
119
100
AcDbEntity
8
0
100
AcDbPolyline
90
4
70
1
43
0.0
10
-59.230804761021318
20
-14.227345366360979
10
-67.083905393702963
20
-16.331577338968366
10
-66.262154925502458
20
-19.398391837436151
10
-58.409054292820819
20
-17.294159864828757
0
LWPOLYLINE
5
120
100
AcDbEntity
8
0
100
AcDbPolyline
90
4
70
1
43
0.0
10
-17.294159864827243
20
-58.409054292821232
10
-19.398391837434627
20
-66.26215492550287
10
-16.331577338966838
20
-67.083905393703375
10
-14.227345366359465
20
-59.230804761021723
0
LWPOLYLINE
5
121
100
AcDbEntity
8
0
100
AcDbPolyline
90
4
70
1
43
0.0
10
41.936644896194082
20
-44.18170892646026
10
47.685513556268333
20
-49.930577586534511
10
49.930577586535627
20
-47.685513556267225
10
44.181708926461368
20
-41.936644896192981
0
LWPOLYLINE
5
122
100
AcDbEntity
8
0
100
AcDbPolyline
90
4
70
1
43
0.0
10
59.230804761021346
20
14.227345366360955
10
67.083905393702977
20
16.331577338968334
10
66.262154925502472
20
19.398391837436122
10
58.409054292820848
20
17.294159864828735
0
LWPOLYLINE
5
123
100
AcDbEntity
8
0
100
AcDbPolyline
90
4
70
1
43
0.0
10
17.294159864827272
20
58.409054292821224
10
19.398391837434655
20
66.262154925502855
10
16.33157733896687
20
67.083905393703361
10
14.227345366359492
20
59.230804761021716
0
CIRCLE
5
124
100
AcDbEntity
8
0
100
AcDbCircle
10
5.5709841816036754
20
-22.33930000000025
30
0
40
1.7780000000000005
0
CIRCLE
5
125
100
AcDbEntity
8
0
100
AcDbCircle
10
-5.5709841816036771
20
22.33930000000025
30
0
40
1.7780000000000005
0
CIRCLE
5
126
100
AcDbEntity
8
0
100
AcDbCircle
10
-22.339300000000254
20
5.5796158183963165
30
0
40
1.7779999999999996
0
CIRCLE
5
127
100
AcDbEntity
8
0
100
AcDbCircle
10
22.33930000000025
20
-5.5796158183963236
30
0
40
1.7779999999999996
0
CIRCLE
5
128
100
AcDbEntity
8
0
100
AcDbCircle
10
-5.5796158183963218
20
-22.33930000000025
30
0
40
1.7779999999999996
0
CIRCLE
5
129
100
AcDbEntity
8
0
100
AcDbCircle
10
5.57961581839632
20
22.33930000000025
30
0
40
1.7779999999999996
0
CIRCLE
5
130
100
AcDbEntity
8
0
100
AcDbCircle
10
-22.339300000000254
20
-5.5709841816036834
30
0
40
1.7779999999999996
0
CIRCLE
5
131
100
AcDbEntity
8
0
100
AcDbCircle
10
22.33930000000025
20
5.5709841816036736
30
0
40
1.7779999999999996
0
LWPOLYLINE
5
132
100
AcDbEntity
8
0
100
AcDbPolyline
90
4
70
1
43
0.0
10
16.690809671491579
20
32.084330370486867
10
19.440440328507169
20
30.496830370486869
10
26.494127399285311
20
42.71417475776633
10
23.74449674226971
20
44.301674757766293
0
LWPOLYLINE
5
133
100
AcDbEntity
8
0
100
AcDbPolyline
90
4
70
1
43
0.0
10
-19.440440328508451
20
30.496830370486126
10
-16.690809671492861
20
32.084330370486128
10
-23.744496742271043
20
44.301674757765568
10
-26.494127399286604
20
42.714174757765534
0
LWPOLYLINE
5
134
100
AcDbEntity
8
0
100
AcDbPolyline
90
4
70
1
43
0.0
10
36.131250000000001
20
1.5875000000007411
10
36.131250000000009
20
-1.5874999999992578
10
50.238624141556308
20
-1.5874999999992312
10
50.238624141556272
20
1.5875000000007544
0
LWPOLYLINE
5
135
100
AcDbEntity
8
0
100
AcDbPolyline
90
4
70
1
43
0.0
10
-16.690809671491561
20
-32.084330370486875
10
-19.440440328507158
20
-30.49683037048688
10
-26.49412739928529
20
-42.714174757766344
10
-23.744496742269689
20
-44.301674757766307
0
LWPOLYLINE
5
136
100
AcDbEntity
8
0
100
AcDbPolyline
90
4
70
1
43
0.0
10
-36.131250000000009
20
-1.5875000000007478
10
-36.131250000000009
20
1.5874999999992512
10
-50.238624141556315
20
1.5874999999992223
10
-50.238624141556286
20
-1.5875000000007677
0
LWPOLYLINE
5
137
100
AcDbEntity
8
0
100
AcDbPolyline
90
4
70
1
43
0.0
10
19.440440328508444
20
-30.49683037048613
10
16.690809671492858
20
-32.084330370486128
10
23.744496742271039
20
-44.301674757765568
10
26.494127399286601
20
-42.714174757765534
0
CIRCLE
5
138
100
AcDbEntity
8
0
100
AcDbCircle
10
49.982225497967569
20
17.310245962155541
30
0
40
5
0
CIRCLE
5
139
100
AcDbEntity
8
0
100
AcDbCircle
10
39.982225497967498
20
-34.630754037844454
30
0
40
5
0
CIRCLE
5
140
100
AcDbEntity
8
0
100
AcDbCircle
10
-10.000000000000053
20
-51.941000000000003
30
0
40
5
0
CIRCLE
5
141
100
AcDbEntity
8
0
100
AcDbCircle
10
-22.661717422278798
20
-24.630754037844337
30
0
40
5
0
CIRCLE
5
142
100
AcDbEntity
8
0
100
AcDbCircle
10
-39.982225497967512
20
34.630754037844433
30
0
40
5
0
CIRCLE
5
143
100
AcDbEntity
8
0
100
AcDbCircle
10
-9.9999999999999396
20
46.940999999999981
30
0
40
5
0
CIRCLE
5
144
100
AcDbEntity
8
0
100
AcDbCircle
10
10.000000000000046
20
36.941000000000052
30
0
40
5
0
CIRCLE
5
145
100
AcDbEntity
8
0
100
AcDbCircle
10
-45.652098479045279
20
14.810245962155658
30
0
40
5
0
CIRCLE
5
146
100
AcDbEntity
8
0
100
AcDbCircle
10
-49.982225497967569
20
-17.310245962155566
30
0
40
5
0
CIRCLE
5
147
100
AcDbEntity
8
0
100
AcDbCircle
10
9.9999999999999396
20
-31.94100000000002
30
0
40
4.9999999999999991
0
CIRCLE
5
148
100
AcDbEntity
8
0
100
AcDbCircle
10
45.652098479045272
20
-14.810245962155674
30
0
40
5
0
CIRCLE
5
149
100
AcDbEntity
8
0
100
AcDbCircle
10
35.652098479045371
20
32.130754037844291
30
0
40
5
0
CIRCLE
5
150
100
AcDbEntity
8
0
100
AcDbCircle
10
36.991844441201017
20
9.8102459621555678
30
0
40
4.9999999999999956
0
CIRCLE
5
151
100
AcDbEntity
8
0
100
AcDbCircle
10
26.991844441200953
20
-27.130754037844461
30
0
40
5
0
CIRCLE
5
152
100
AcDbEntity
8
0
100
AcDbCircle
10
-10.00000000000005
20
-36.941000000000045
30
0
40
5
0
CIRCLE
5
153
100
AcDbEntity
8
0
100
AcDbCircle
10
-36.99184444120101
20
-9.8102459621555855
30
0
40
5
0
CIRCLE
5
154
100
AcDbEntity
8
0
100
AcDbCircle
10
-26.991844441200961
20
27.130754037844458
30
0
40
5
0
CIRCLE
5
155
100
AcDbEntity
8
0
100
AcDbCircle
10
10.00000000000005
20
51.941000000000003
30
0
40
5
0
CIRCLE
5
156
100
AcDbEntity
8
0
100
AcDbCircle
10
-9.9999999999999432
20
31.94100000000002
30
0
40
5
0
CIRCLE
5
157
100
AcDbEntity
8
0
100
AcDbCircle
10
-32.661717422278741
20
7.310245962155677
30
0
40
5
0
CIRCLE
5
158
100
AcDbEntity
8
0
100
AcDbCircle
10
-35.65209847904535
20
-32.130754037844312
30
0
40
5
0
CIRCLE
5
159
100
AcDbEntity
8
0
100
AcDbCircle
10
9.9999999999999343
20
-46.940999999999981
30
0
40
4.9999999999999991
0
CIRCLE
5
160
100
AcDbEntity
8
0
100
AcDbCircle
10
32.661717422278741
20
-7.3102459621556894
30
0
40
5
0
CIRCLE
5
161
100
AcDbEntity
8
0
100
AcDbCircle
10
22.661717422278823
20
24.630754037844326
30
0
40
5
0
CIRCLE
5
162
100
AcDbEntity
8
0
100
AcDbCircle
10
11.146702054088848
20
65.514364031815859
30
0
40
0.99999999999999645
0
CIRCLE
5
163
100
AcDbEntity
8
0
100
AcDbCircle
10
-23.103854868650807
20
62.310454591378459
30
0
40
0.99999999999999645
0
CIRCLE
5
164
100
AcDbEntity
8
0
100
AcDbCircle
10
-51.163752537289625
20
42.410509163165031
30
0
40
0.99999999999999645
0
CIRCLE
5
165
100
AcDbEntity
8
0
100
AcDbCircle
10
-65.514364031815859
20
11.146702054088852
30
0
40
0.99999999999999645
0
CIRCLE
5
166
100
AcDbEntity
8
0
100
AcDbCircle
10
-62.310454591378452
20
-23.103854868650842
30
0
40
0.99999999999999645
0
CIRCLE
5
167
100
AcDbEntity
8
0
100
AcDbCircle
10
-42.410509163165024
20
-51.163752537289646
30
0
40
0.99999999999999645
0
CIRCLE
5
168
100
AcDbEntity
8
0
100
AcDbCircle
10
-11.146702054088816
20
-65.514364031815873
30
0
40
0.99999999999999645
0
CIRCLE
5
169
100
AcDbEntity
8
0
100
AcDbCircle
10
27.723252531207283
20
-60.397037429553002
30
0
40
0.99999999999999645
0
CIRCLE
5
170
100
AcDbEntity
8
0
100
AcDbCircle
10
54.20755968233324
20
-38.443742461708858
30
0
40
0.99999999999999645
0
CIRCLE
5
171
100
AcDbEntity
8
0
100
AcDbCircle
10
66.166994992916131
20
-6.1894777472197715
30
0
40
0.99999999999999645
0
CIRCLE
5
172
100
AcDbEntity
8
0
100
AcDbCircle
10
65.514364031815873
20
11.146702054088776
30
0
40
0.99999999999999645
0
CIRCLE
5
173
100
AcDbEntity
8
0
100
AcDbCircle
10
51.163752537289675
20
42.410509163164996
30
0
40
0.99999999999999645
0
CIRCLE
5
174
100
AcDbEntity
8
0
100
AcDbCircle
10
54.207559682333262
20
38.443742461708823
30
0
40
0.99999999999999645
0
CIRCLE
5
175
100
AcDbEntity
8
0
100
AcDbCircle
10
66.166994992916131
20
6.1894777472197262
30
0
40
0.99999999999999645
0
CIRCLE
5
176
100
AcDbEntity
8
0
100
AcDbCircle
10
65.514364031815859
20
-11.14670205408882
30
0
40
0.99999999999999645
0
CIRCLE
5
177
100
AcDbEntity
8
0
100
AcDbCircle
10
51.163752537289639
20
-42.410509163165031
30
0
40
0.99999999999999645
0
CIRCLE
5
178
100
AcDbEntity
8
0
100
AcDbCircle
10
23.103854868650842
20
-62.310454591378452
30
0
40
0.99999999999999645
0
CIRCLE
5
179
100
AcDbEntity
8
0
100
AcDbCircle
10
-23.103854868650874
20
-62.310454591378445
30
0
40
0.99999999999999645
0
CIRCLE
5
180
100
AcDbEntity
8
0
100
AcDbCircle
10
-51.163752537289668
20
-42.410509163165003
30
0
40
0.99999999999999645
0
CIRCLE
5
181
100
AcDbEntity
8
0
100
AcDbCircle
10
-65.514364031815873
20
-11.146702054088784
30
0
40
0.99999999999999645
0
CIRCLE
5
182
100
AcDbEntity
8
0
100
AcDbCircle
10
-62.310454591378424
20
23.103854868650902
30
0
40
0.99999999999999645
0
CIRCLE
5
183
100
AcDbEntity
8
0
100
AcDbCircle
10
-42.410509163164967
20
51.163752537289682
30
0
40
0.99999999999999645
0
CIRCLE
5
184
100
AcDbEntity
8
0
100
AcDbCircle
10
-11.146702054088768
20
65.514364031815873
30
0
40
0.99999999999999645
0
CIRCLE
5
185
100
AcDbEntity
8
0
100
AcDbCircle
10
23.103854868650885
20
62.310454591378424
30
0
40
0.99999999999999645
0
CIRCLE
5
186
100
AcDbEntity
8
0
100
AcDbCircle
10
6.1894777472197982
20
66.166994992916116
30
0
40
0.99999999999999645
0
CIRCLE
5
187
100
AcDbEntity
8
0
100
AcDbCircle
10
-27.723252531207248
20
60.397037429553031
30
0
40
0.99999999999999645
0
CIRCLE
5
188
100
AcDbEntity
8
0
100
AcDbCircle
10
-54.207559682333233
20
38.443742461708858
30
0
40
0.99999999999999645
0
CIRCLE
5
189
100
AcDbEntity
8
0
100
AcDbCircle
10
-66.166994992916116
20
6.189477747219807
30
0
40
0.99999999999999645
0
CIRCLE
5
190
100
AcDbEntity
8
0
100
AcDbCircle
10
-60.397037429553002
20
-27.723252531207283
30
0
40
0.99999999999999645
0
CIRCLE
5
191
100
AcDbEntity
8
0
100
AcDbCircle
10
-38.443742461708851
20
-54.207559682333255
30
0
40
0.99999999999999645
0
CIRCLE
5
192
100
AcDbEntity
8
0
100
AcDbCircle
10
-6.1894777472197653
20
-66.166994992916131
30
0
40
0.99999999999999645
0
CIRCLE
5
193
100
AcDbEntity
8
0
100
AcDbCircle
10
38.443742461708823
20
-54.207559682333262
30
0
40
0.99999999999999645
0
CIRCLE
5
194
100
AcDbEntity
8
0
100
AcDbCircle
10
60.397037429552974
20
-27.723252531207322
30
0
40
0.99999999999999645
0
CIRCLE
5
195
100
AcDbEntity
8
0
100
AcDbCircle
10
38.443742461708879
20
54.207559682333219
30
0
40
0.99999999999999645
0
CIRCLE
5
196
100
AcDbEntity
8
0
100
AcDbCircle
10
62.310454591378466
20
23.103854868650821
30
0
40
0.99999999999999645
0
CIRCLE
5
197
100
AcDbEntity
8
0
100
AcDbCircle
10
11.146702054088802
20
-65.514364031815887
30
0
40
0.99999999999999645
0
CIRCLE
5
198
100
AcDbEntity
8
0
100
AcDbCircle
10
60.397037429553023
20
27.723252531207258
30
0
40
0.99999999999999645
0
CIRCLE
5
199
100
AcDbEntity
8
0
100
AcDbCircle
10
42.410509163165045
20
51.163752537289611
30
0
40
0.99999999999999645
0
CIRCLE
5
200
100
AcDbEntity
8
0
100
AcDbCircle
10
62.310454591378424
20
-23.103854868650892
30
0
40
0.99999999999999645
0
CIRCLE
5
201
100
AcDbEntity
8
0
100
AcDbCircle
10
42.410509163164996
20
-51.163752537289675
30
0
40
0.99999999999999645
0
CIRCLE
5
202
100
AcDbEntity
8
0
100
AcDbCircle
10
6.1894777472197493
20
-66.166994992916145
30
0
40
0.99999999999999645
0
CIRCLE
5
203
100
AcDbEntity
8
0
100
AcDbCircle
10
-27.723252531207304
20
-60.397037429552995
30
0
40
0.99999999999999645
0
CIRCLE
5
204
100
AcDbEntity
8
0
100
AcDbCircle
10
-54.207559682333255
20
-38.44374246170883
30
0
40
0.99999999999999645
0
CIRCLE
5
205
100
AcDbEntity
8
0
100
AcDbCircle
10
-66.166994992916131
20
-6.1894777472197333
30
0
40
0.99999999999999645
0
CIRCLE
5
206
100
AcDbEntity
8
0
100
AcDbCircle
10
-60.397037429552974
20
27.723252531207333
30
0
40
0.99999999999999645
0
CIRCLE
5
207
100
AcDbEntity
8
0
100
AcDbCircle
10
-38.443742461708787
20
54.20755968233329
30
0
40
0.99999999999999645
0
CIRCLE
5
208
100
AcDbEntity
8
0
100
AcDbCircle
10
-6.1894777472197191
20
66.166994992916131
30
0
40
0.99999999999999645
0
CIRCLE
5
209
100
AcDbEntity
8
0
100
AcDbCircle
10
27.723252531207315
20
60.397037429552974
30
0
40
0.99999999999999645
0
LWPOLYLINE
5
210
100
AcDbEntity
8
0
100
AcDbPolyline
90
4
70
1
43
0.0
10
32.391844441200966
20
17.777679676972451
10
41.052098479045355
20
22.777679676972458
10
40.252098479045351
20
24.163320323027556
10
31.591844441200973
20
19.163320323027556
0
LWPOLYLINE
5
211
100
AcDbEntity
8
0
100
AcDbPolyline
90
4
70
1
43
0.0
10
0.80000000000001403
20
36.941000000000017
10
0.80000000000001403
20
46.941000000000017
10
-0.79999999999998295
20
46.941000000000017
10
-0.79999999999998739
20
36.941000000000024
0
LWPOLYLINE
5
212
100
AcDbEntity
8
0
100
AcDbPolyline
90
4
70
1
43
0.0
10
31.591844441200962
20
-19.16332032302757
10
40.252098479045351
20
-24.163320323027577
10
41.052098479045341
20
-22.777679676972468
10
32.391844441200966
20
-17.777679676972472
0
LWPOLYLINE
5
213
100
AcDbEntity
8
0
100
AcDbPolyline
90
4
70
1
43
0.0
10
-32.391844441200966
20
-17.777679676972454
10
-41.052098479045355
20
-22.777679676972461
10
-40.252098479045351
20
-24.163320323027563
10
-31.591844441200969
20
-19.163320323027563
0
LWPOLYLINE
5
214
100
AcDbEntity
8
0
100
AcDbPolyline
90
4
70
1
43
0.0
10
-31.591844441200948
20
19.163320323027587
10
-40.252098479045337
20
24.163320323027591
10
-41.052098479045334
20
22.777679676972493
10
-32.391844441200959
20
17.777679676972483
0
LWPOLYLINE
5
215
100
AcDbEntity
8
0
100
AcDbPolyline
90
4
70
1
43
0.0
10
-0.80000000000000959
20
-36.941000000000017
10
-0.80000000000000293
20
-46.941000000000024
10
0.79999999999999627
20
-46.941000000000024
10
0.79999999999999405
20
-36.941000000000024
0
LWPOLYLINE
5
216
100
AcDbEntity
8
0
100
AcDbPolyline
90
4
70
1
43
0.0
10
-19.050000000000001
20
19.049999999999748
10
-19.050000000000001
20
-19.049999999999748
10
19.050000000000001
20
-19.049999999999748
10
19.050000000000001
20
19.049999999999748
0
CIRCLE
5
217
100
AcDbEntity
8
0
100
AcDbCircle
10
0
20
0
30
0
40
72.024999999999991
0
LINE
5
218
100
AcDbEntity
8
0
100
AcDbLine
10
0
20
0
30
0
11
-72.024999999999977
21
3.5527136788005009e-14
31
0
0
LINE
5
219
100
AcDbEntity
8
0
100
AcDbLine
10
0
20
0
30
0
11
-69.570807638470143
21
-18.641441723509018
31
0
0
LINE
5
220
100
AcDbEntity
8
0
100
AcDbLine
10
0
20
0
30
0
11
-62.375479707574193
21
-36.012499999999953
31
0
0
LINE
5
221
100
AcDbEntity
8
0
100
AcDbLine
10
0
20
0
30
0
11
-50.929365914961089
21
-50.929365914961046
31
0
0
LINE
5
222
100
AcDbEntity
8
0
100
AcDbLine
10
0
20
0
30
0
11
-36.012500000000031
21
-62.375479707574151
31
0
0
LINE
5
223
100
AcDbEntity
8
0
100
AcDbLine
10
0
20
0
30
0
11
-18.6414417235091
21
-69.570807638470114
31
0
0
LINE
5
224
100
AcDbEntity
8
0
100
AcDbLine
10
0
20
0
30
0
11
-1.9534374118279644e-14
21
-72.024999999999991
31
0
0
LINE
5
225
100
AcDbEntity
8
0
100
AcDbLine
10
0
20
0
30
0
11
18.641441723509018
21
-69.570807638470143
31
0
0
LINE
5
226
100
AcDbEntity
8
0
100
AcDbLine
10
0
20
0
30
0
11
36.012499999999939
21
-62.3754797075742
31
0
0
LINE
5
227
100
AcDbEntity
8
0
100
AcDbLine
10
0
20
0
30
0
11
50.929365914961039
21
-50.92936591496111
31
0
0
LINE
5
228
100
AcDbEntity
8
0
100
AcDbLine
10
0
20
0
30
0
11
62.375479707574144
21
-36.012500000000045
31
0
0
LINE
5
229
100
AcDbEntity
8
0
100
AcDbLine
10
0
20
0
30
0
11
69.570807638470114
21
-18.641441723509104
31
0
0
LINE
5
230
100
AcDbEntity
8
0
100
AcDbLine
10
0
20
0
30
0
11
72.024999999999977
21
-4.4347655358863814e-14
31
0
0
LINE
5
231
100
AcDbEntity
8
0
100
AcDbLine
10
0
20
0
30
0
11
69.570807638470157
21
18.64144172350899
31
0
0
LINE
5
232
100
AcDbEntity
8
0
100
AcDbLine
10
0
20
0
30
0
11
62.3754797075742
21
36.012499999999939
31
0
0
LINE
5
233
100
AcDbEntity
8
0
100
AcDbLine
10
0
20
0
30
0
11
50.929365914961124
21
50.929365914961018
31
0
0
LINE
5
234
100
AcDbEntity
8
0
100
AcDbLine
10
0
20
0
30
0
11
36.012500000000038
21
62.375479707574144
31
0
0
LINE
5
235
100
AcDbEntity
8
0
100
AcDbLine
10
0
20
0
30
0
11
18.641441723509132
21
69.5708076384701
31
0
0
LINE
5
236
100
AcDbEntity
8
0
100
AcDbLine
10
0
20
0
30
0
11
5.1519899457730384e-14
21
72.024999999999977
31
0
0
LINE
5
237
100
AcDbEntity
8
0
100
AcDbLine
10
0
20
0
30
0
11
-18.641441723508979
21
69.570807638470157
31
0
0
LINE
5
238
100
AcDbEntity
8
0
100
AcDbLine
10
0
20
0
30
0
11
-36.01249999999991
21
62.375479707574222
31
0
0
LINE
5
239
100
AcDbEntity
8
0
100
AcDbLine
10
0
20
0
30
0
11
-50.929365914961039
21
50.92936591496111
31
0
0
LINE
5
240
100
AcDbEntity
8
0
100
AcDbLine
10
0
20
0
30
0
11
-62.375479707574144
21
36.012500000000053
31
0
0
LINE
5
241
100
AcDbEntity
8
0
100
AcDbLine
10
0
20
0
30
0
11
-69.5708076384701
21
18.641441723509139
31
0
0
ENDSEC
0
SECTION
2
OBJECTS
0
DICTIONARY
5
C
100
AcDbDictionary
3
ACAD_GROUP
350
D
3
ACAD_MLINESTYLE
350
17
0
DICTIONARY
5
D
100
AcDbDictionary
0
DICTIONARY
5
1A
330
C
100
AcDbDictionary
0
DICTIONARY
5
17
100
AcDbDictionary
0
ENDSEC
0
EOF
