0
SECTION
2
HEADER
9
$INSUNITS
70
4
9
$ACADVER
1
AC1014
9
$HANDSEED
5
FFFF
0
ENDSEC
0
SECTION
2
TABLES
0
TABLE
2
VPORT
5
8
100
AcDbSymbolTable
0
ENDTAB
0
TABLE
2
LTYPE
5
5
100
AcDbSymbolTable
0
LTYPE
5
14
100
AcDbSymbolTableRecord
100
AcDbLinetypeTableRecord
2
BYBLOCK
70
0
0
LTYPE
5
15
100
AcDbSymbolTableRecord
100
AcDbLinetypeTableRecord
2
BYLAYER
70
0
0
ENDTAB
0
TABLE
2
LAYER
5
2
100
AcDbSymbolTable
70
2
0
LAYER
5
50
100
AcDbSymbolTableRecord
100
AcDbLayerTableRecord
2
0
70
0
6
CONTINUOUS
0
ENDTAB
0
TABLE
2
STYLE
5
3
100
AcDbSymbolTable
70
1
0
STYLE
5
11
100
AcDbSymbolTableRecord
100
AcDbTextStyleTableRecord
2
STANDARD
70
0
0
ENDTAB
0
TABLE
2
VIEW
5
6
100
AcDbSymbolTable
70
0
0
ENDTAB
0
TABLE
2
UCS
5
7
100
AcDbSymbolTable
70
0
0
ENDTAB
0
TABLE
2
APPID
5
9
100
AcDbSymbolTable
70
2
0
APPID
5
12
100
AcDbSymbolTableRecord
100
AcDbRegAppTableRecord
2
ACAD
70
0
0
ENDTAB
0
TABLE
2
DIMSTYLE
5
A
100
AcDbSymbolTable
70
1
0
ENDTAB
0
TABLE
2
BLOCK_RECORD
5
1
100
AcDbSymbolTable
70
1
0
BLOCK_RECORD
5
1F
100
AcDbSymbolTableRecord
100
AcDbBlockTableRecord
2
*MODEL_SPACE
0
BLOCK_RECORD
5
1B
100
AcDbSymbolTableRecord
100
AcDbBlockTableRecord
2
*PAPER_SPACE
0
ENDTAB
0
ENDSEC
0
SECTION
2
BLOCKS
0
BLOCK
5
20
100
AcDbEntity
100
AcDbBlockBegin
2
*MODEL_SPACE
0
ENDBLK
5
21
100
AcDbEntity
100
AcDbBlockEnd
0
BLOCK
5
1C
100
AcDbEntity
100
AcDbBlockBegin
2
*PAPER_SPACE
0
ENDBLK
5
1D
100
AcDbEntity
100
AcDbBlockEnd
0
ENDSEC
0
SECTION
2
ENTITIES
0
CIRCLE
5
100
100
AcDbEntity
8
0
100
AcDbCircle
10
-39.687500007686594
20
-8.6653097221052519e-10
30
0
40
8.1437500146203483
0
CIRCLE
5
101
100
AcDbEntity
8
0
100
AcDbCircle
10
-8.0000000000000036
20
36.413699743319398
30
0
40
3.0000000000000004
0
LWPOLYLINE
5
102
100
AcDbEntity
8
0
100
AcDbPolyline
90
4
70
1
43
0.0
10
12.000000000000083
20
46.001199743319404
10
4.0000000000000844
20
46.001199743319404
10
4.0000000000000835
20
42.826199743319407
10
12.000000000000082
20
42.826199743319407
0
LWPOLYLINE
5
103
100
AcDbEntity
8
0
100
AcDbPolyline
90
4
70
1
43
0.0
10
-1.5875000000000039
20
40.41369974331932
10
-1.5874999999999997
20
35.413699743319484
10
1.5874999999999992
20
35.413699743319484
10
1.587499999999995
20
40.41369974331932
0
LWPOLYLINE
5
104
100
AcDbEntity
8
0
100
AcDbPolyline
90
4
70
1
43
0.0
10
-11.999999999999922
20
46.001199743319404
10
-11.999999999999924
20
42.826199743319407
10
-4.0000000000000817
20
42.826199743319407
10
-4.0000000000000817
20
46.001199743319404
0
CIRCLE
5
105
100
AcDbEntity
8
0
100
AcDbCircle
10
-5.5752999999999631
20
22.339300000000257
30
0
40
1.7780000000000005
0
CIRCLE
5
106
100
AcDbEntity
8
0
100
AcDbCircle
10
5.5753000000000386
20
22.339300000000257
30
0
40
1.7780000000000005
0
CIRCLE
5
107
100
AcDbEntity
8
0
100
AcDbCircle
10
5.5752999999999648
20
-22.339300000000257
30
0
40
1.7780000000000005
0
CIRCLE
5
108
100
AcDbEntity
8
0
100
AcDbCircle
10
22.339300000000257
20
-5.5753000000000377
30
0
40
1.7779999999999996
0
CIRCLE
5
109
100
AcDbEntity
8
0
100
AcDbCircle
10
22.339300000000257
20
5.575299999999964
30
0
40
1.7779999999999996
0
CIRCLE
5
110
100
AcDbEntity
8
0
100
AcDbCircle
10
-5.5753000000000359
20
-22.339300000000257
30
0
40
1.7780000000000005
0
LWPOLYLINE
5
111
100
AcDbEntity
8
0
100
AcDbPolyline
90
4
70
1
43
0.0
10
36.131250000000009
20
-1.5874999999992578
10
50.238624141556308
20
-1.5874999999992312
10
50.238624141556272
20
1.5875000000007544
10
36.131250000000001
20
1.5875000000007411
0
LWPOLYLINE
5
112
100
AcDbEntity
8
0
100
AcDbPolyline
90
4
70
1
43
0.0
10
-16.690809671492861
20
32.084330370486128
10
-23.744496742271043
20
44.301674757765568
10
-26.494127399286604
20
42.714174757765534
10
-19.440440328508451
20
30.496830370486126
0
LWPOLYLINE
5
113
100
AcDbEntity
8
0
100
AcDbPolyline
90
4
70
1
43
0.0
10
16.690809671492858
20
-32.084330370486128
10
23.744496742271039
20
-44.301674757765568
10
26.494127399286601
20
-42.714174757765534
10
19.440440328508444
20
-30.49683037048613
0
LWPOLYLINE
5
114
100
AcDbEntity
8
0
100
AcDbPolyline
90
4
70
1
43
0.0
10
19.440440328507169
20
30.496830370486869
10
26.494127399285311
20
42.71417475776633
10
23.74449674226971
20
44.301674757766293
10
16.690809671491579
20
32.084330370486867
0
LWPOLYLINE
5
115
100
AcDbEntity
8
0
100
AcDbPolyline
90
4
70
1
43
0.0
10
-19.440440328507158
20
-30.49683037048688
10
-26.49412739928529
20
-42.714174757766344
10
-23.744496742269689
20
-44.301674757766307
10
-16.690809671491561
20
-32.084330370486875
0
CIRCLE
5
116
100
AcDbEntity
8
0
100
AcDbCircle
10
-47.687500007686637
20
17.499999999133493
30
0
40
2.0999999999999996
0
CIRCLE
5
117
100
AcDbEntity
8
0
100
AcDbCircle
10
-47.687500007686637
20
-17.500000000866546
30
0
40
2.1000000000000085
0
LWPOLYLINE
5
118
100
AcDbEntity
8
0
100
AcDbPolyline
90
4
70
1
43
0.0
10
-19.049999999999962
20
16.764000000000259
10
-19.049999999999962
20
-16.763999999999783
10
16.764000000000006
20
-16.763999999999783
10
16.764000000000006
20
16.764000000000259
0
LWPOLYLINE
5
119
100
AcDbEntity
8
0
100
AcDbPolyline
90
24
70
1
43
0.0
10
59.886598826090832
20
40.014946033236853
10
47.613026224587138
20
31.81400700996047
42
-0.098491403357164248
10
56.163393809677899
20
11.171593622759035
10
70.641059821042674
20
14.05138044321156
42
-0.098491403357163915
10
70.641059821042674
20
-14.051380443211627
10
56.163393809677878
20
-11.171593622759113
42
-0.098491403357163915
10
47.613026224587131
20
-31.81400700996047
10
59.886598826090854
20
-40.014946033236839
42
-0.098491403357164359
10
40.014946033236853
20
-59.886598826090832
10
31.814007009960452
20
-47.613026224587152
42
-0.098491403357163915
10
11.171593622759087
20
-56.163393809677885
10
14.0513804432117
20
-70.641059821042674
42
-0.098491403357164359
10
-14.051380443211618
20
-70.641059821042688
10
-11.171593622759094
20
-56.163393809677885
42
-0.098491403357164248
10
-31.814007009960513
20
-47.613026224587102
10
-40.014946033236868
20
-59.88659882609079
42
-0.53451113595079147
10
-40.014946033236839
20
59.886598826090811
10
-31.814007009960442
20
47.613026224587145
42
-0.098491403357164026
10
-11.171593622759055
20
56.163393809677885
10
-14.051380443211601
20
70.641059821042674
42
-0.098491403357164137
10
14.051380443211654
20
70.641059821042674
10
11.171593622759135
20
56.163393809677871
42
-0.098491403357163804
10
31.81400700996047
20
47.613026224587131
10
40.014946033236839
20
59.886598826090854
42
-0.098491403357164359
0
ENDSEC
0
SECTION
2
OBJECTS
0
DICTIONARY
5
C
100
AcDbDictionary
3
ACAD_GROUP
350
D
3
ACAD_MLINESTYLE
350
17
0
DICTIONARY
5
D
100
AcDbDictionary
0
DICTIONARY
5
1A
330
C
100
AcDbDictionary
0
DICTIONARY
5
17
100
AcDbDictionary
0
ENDSEC
0
EOF
