  0
SECTION
  2
HEADER
  9
$ACADVER
  1
AC1009
  9
$FILLMODE
 70
0
  9
$EXTMIN
 10
-0.2540
 20
-0.2540
 30
0.0000
  9
$EXTMAX
 10
114.0635
 20
114.0440
 30
0.0000
  0
ENDSEC
  0
SECTION
  2
TABLES
  0
TABLE
  2
LTYPE
 70
1
  0
LTYPE
  2
CONTINUOUS
 70
64
  3
Solid line
 72
65
 73
0
 40
0
  0
ENDTAB
  0
TABLE
  2
LAYER
 70
255
  0
LAYER
  2
20
 70
64
 62
30
  6
CONTINUOUS
  0
LAYER
  2
31
 70
64
 62
253
  6
CONTINUOUS
  0
ENDTAB
  0
ENDSEC
  0
SECTION
  2
BLOCKS
  0
BLOCK
  8
0
  2
RECT
 70
64
 10
0.0000
 20
0.0000
 30
0.0000
  3
RECT
  0
SOLID
  8
0
 10
-0.5000
 20
-0.5000
 30
0.0000
 11
0.5000
 21
-0.5000
 31
0.0000
 12
-0.5000
 22
0.5000
 32
0.0000
 13
0.5000
 23
0.5000
 33
0.0000
  0
ENDBLK
  8
0
  0
BLOCK
  8
0
  2
PIE
 70
64
 10
0.0000
 20
0.0000
 30
0.0000
  3
PIE
  0
CIRCLE
  8
0
 10
0.0000
 20
0.0000
 30
0.0000
 40
0.5000
  0
ENDBLK
  8
0
  0
BLOCK
  8
0
  2
OCTAGONP
 70
64
 10
0.0000
 20
0.0000
 30
0.0000
  3
OCTAGONP
  0
POLYLINE
  8
0
 66
1
 10
0.0000
 20
0.0000
 30
0.0000
 40
0.0000
 41
0.0000
 70
1
  0
VERTEX
  8
0
 10
-0.5000
 20
-0.2071
 30
0.0000
  0
VERTEX
  8
0
 10
-0.5000
 20
0.2071
 30
0.0000
  0
VERTEX
  8
0
 10
-0.2071
 20
0.5000
 30
0.0000
  0
VERTEX
  8
0
 10
0.2071
 20
0.5000
 30
0.0000
  0
VERTEX
  8
0
 10
0.5000
 20
0.2071
 30
0.0000
  0
VERTEX
  8
0
 10
0.5000
 20
-0.2071
 30
0.0000
  0
VERTEX
  8
0
 10
0.2071
 20
-0.5000
 30
0.0000
  0
VERTEX
  8
0
 10
-0.2071
 20
-0.5000
 30
0.0000
  0
SEQEND
  8
0
  0
ENDBLK
  8
0
  0
BLOCK
  8
0
  2
SQUAREP
 70
64
 10
0.0000
 20
0.0000
 30
0.0000
  3
SQUAREP
  0
SOLID
  8
0
 10
-0.5000
 20
-0.5000
 30
0.0000
 11
0.5000
 21
-0.5000
 31
0.0000
 12
-0.5000
 22
0.5000
 32
0.0000
 13
0.5000
 23
0.5000
 33
0.0000
  0
ENDBLK
  8
0
  0
BLOCK
  8
0
  2
ROUNDP
 70
64
 10
0.0000
 20
0.0000
 30
0.0000
  3
ROUNDP
  0
CIRCLE
  8
0
 10
0.0000
 20
0.0000
 30
0.0000
 40
0.5000
  0
ENDBLK
  8
0
  0
BLOCK
  8
0
  2
ANNULUSP
 70
64
 10
0.0000
 20
0.0000
 30
0.0000
  3
ANNULUSP
  0
CIRCLE
  8
0
 10
0.0000
 20
0.0000
 30
0.0000
 40
0.5000
  0
ENDBLK
  8
0
  0
BLOCK
  8
0
  2
THERMALP
 70
64
 10
0.0000
 20
0.0000
 30
0.0000
  3
THERMALP
  0
LINE
  8
0
 10
-0.2379
 20
0.4500
 30
0.0000
 11
0.2379
 21
0.4500
 31
0.0000
  0
LINE
  8
0
 10
0.4500
 20
0.2379
 30
0.0000
 11
0.4500
 21
-0.2379
 31
0.0000
  0
LINE
  8
0
 10
0.2379
 20
-0.4500
 30
0.0000
 11
-0.2379
 21
-0.4500
 31
0.0000
  0
LINE
  8
0
 10
-0.4500
 20
-0.2379
 30
0.0000
 11
-0.4500
 21
0.2379
 31
0.0000
  0
ENDBLK
  8
0
  0
BLOCK
  8
0
  2
OCTAGONV
 70
64
 10
0.0000
 20
0.0000
 30
0.0000
  3
OCTAGONV
  0
POLYLINE
  8
0
 66
1
 10
0.0000
 20
0.0000
 30
0.0000
 40
0.0000
 41
0.0000
 70
1
  0
VERTEX
  8
0
 10
-0.5000
 20
-0.2071
 30
0.0000
  0
VERTEX
  8
0
 10
-0.5000
 20
0.2071
 30
0.0000
  0
VERTEX
  8
0
 10
-0.2071
 20
0.5000
 30
0.0000
  0
VERTEX
  8
0
 10
0.2071
 20
0.5000
 30
0.0000
  0
VERTEX
  8
0
 10
0.5000
 20
0.2071
 30
0.0000
  0
VERTEX
  8
0
 10
0.5000
 20
-0.2071
 30
0.0000
  0
VERTEX
  8
0
 10
0.2071
 20
-0.5000
 30
0.0000
  0
VERTEX
  8
0
 10
-0.2071
 20
-0.5000
 30
0.0000
  0
SEQEND
  8
0
  0
ENDBLK
  8
0
  0
BLOCK
  8
0
  2
SQUAREV
 70
64
 10
0.0000
 20
0.0000
 30
0.0000
  3
SQUAREV
  0
SOLID
  8
0
 10
-0.5000
 20
-0.5000
 30
0.0000
 11
0.5000
 21
-0.5000
 31
0.0000
 12
-0.5000
 22
0.5000
 32
0.0000
 13
0.5000
 23
0.5000
 33
0.0000
  0
ENDBLK
  8
0
  0
BLOCK
  8
0
  2
ROUNDV
 70
64
 10
0.0000
 20
0.0000
 30
0.0000
  3
ROUNDV
  0
CIRCLE
  8
0
 10
0.0000
 20
0.0000
 30
0.0000
 40
0.5000
  0
ENDBLK
  8
0
  0
BLOCK
  8
0
  2
ANNULUSV
 70
64
 10
0.0000
 20
0.0000
 30
0.0000
  3
ANNULUSV
  0
CIRCLE
  8
0
 10
0.0000
 20
0.0000
 30
0.0000
 40
0.5000
  0
ENDBLK
  8
0
  0
BLOCK
  8
0
  2
THERMALV
 70
64
 10
0.0000
 20
0.0000
 30
0.0000
  3
THERMALV
  0
LINE
  8
0
 10
-0.2379
 20
0.4500
 30
0.0000
 11
0.2379
 21
0.4500
 31
0.0000
  0
LINE
  8
0
 10
0.4500
 20
0.2379
 30
0.0000
 11
0.4500
 21
-0.2379
 31
0.0000
  0
LINE
  8
0
 10
0.2379
 20
-0.4500
 30
0.0000
 11
-0.2379
 21
-0.4500
 31
0.0000
  0
LINE
  8
0
 10
-0.4500
 20
-0.2379
 30
0.0000
 11
-0.4500
 21
0.2379
 31
0.0000
  0
ENDBLK
  8
0
  0
BLOCK
  8
0
  2
LONGP100
 70
64
 10
0.0000
 20
0.0000
 30
0.0000
  3
LONGP100
  0
POLYLINE
  8
0
 66
1
 10
0.0000
 20
0.0000
 30
0.0000
 40
0.0000
 41
0.0000
 70
1
  0
VERTEX
  8
0
 10
-0.5000
 20
-0.5000
 30
0.0000
  0
VERTEX
  8
0
 10
0.5000
 20
-0.5000
 30
0.0000
 42
1.0000
  0
VERTEX
  8
0
 10
0.5000
 20
0.5000
 30
0.0000
  0
VERTEX
  8
0
 10
-0.5000
 20
0.5000
 30
0.0000
 42
1.0000
  0
SEQEND
  8
0
  0
ENDBLK
  8
0
  0
ENDSEC
  0
SECTION
  2
ENTITIES
  0
LINE
  8
20
 10
37.3005
 20
37.3005
 30
0.0000
 11
76.4895
 21
37.3005
 31
0.0000
  0
LINE
  8
20
 10
76.4895
 20
37.3005
 30
0.0000
 11
76.4895
 21
76.4895
 31
0.0000
  0
LINE
  8
20
 10
76.4895
 20
76.4895
 30
0.0000
 11
37.3005
 21
76.4895
 31
0.0000
  0
LINE
  8
20
 10
37.3005
 20
76.4895
 30
0.0000
 11
37.3005
 21
37.3005
 31
0.0000
  0
CIRCLE
  8
20
 10
56.8950
 20
56.8950
 30
0.0000
 40
56.8950
  0
CIRCLE
  8
20
 10
79.1900
 20
51.3240
 30
0.0000
 40
1.7780
  0
CIRCLE
  8
20
 10
79.1900
 20
62.4660
 30
0.0000
 40
1.7780
  0
CIRCLE
  8
20
 10
34.6000
 20
51.3240
 30
0.0000
 40
1.7780
  0
CIRCLE
  8
20
 10
34.6000
 20
62.4660
 30
0.0000
 40
1.7780
  0
CIRCLE
  8
20
 10
34.7609
 20
95.2323
 30
0.0000
 40
0.6000
  0
CIRCLE
  8
20
 10
30.1859
 20
103.1565
 30
0.0000
 40
0.6000
  0
CIRCLE
  8
20
 10
12.6269
 20
56.8950
 30
0.0000
 40
0.6000
  0
CIRCLE
  8
20
 10
3.4769
 20
56.8950
 30
0.0000
 40
0.6000
  0
CIRCLE
  8
20
 10
34.7609
 20
18.5577
 30
0.0000
 40
0.6000
  0
CIRCLE
  8
20
 10
30.1859
 20
10.6335
 30
0.0000
 40
0.6000
  0
CIRCLE
  8
20
 10
79.0291
 20
18.5577
 30
0.0000
 40
0.6000
  0
CIRCLE
  8
20
 10
83.6041
 20
10.6335
 30
0.0000
 40
0.6000
  0
CIRCLE
  8
20
 10
101.1632
 20
56.8950
 30
0.0000
 40
0.6000
  0
CIRCLE
  8
20
 10
110.3132
 20
56.8950
 30
0.0000
 40
0.6000
  0
CIRCLE
  8
20
 10
79.0291
 20
95.2323
 30
0.0000
 40
0.6000
  0
CIRCLE
  8
20
 10
83.6041
 20
103.1565
 30
0.0000
 40
0.6000
  0
INSERT
  8
31
  2
RECT
 10
92.5220
 20
62.1030
 30
0.0000
 41
1.3000
 42
1.5000
 43
1.0000
 50
0.0000
  0
INSERT
  8
31
  2
RECT
 10
94.4220
 20
62.1030
 30
0.0000
 41
1.3000
 42
1.5000
 43
1.0000
 50
0.0000
  0
INSERT
  8
31
  2
RECT
 10
85.9180
 20
70.1040
 30
0.0000
 41
1.3000
 42
1.5000
 43
1.0000
 50
0.0000
  0
INSERT
  8
31
  2
RECT
 10
87.8180
 20
70.1040
 30
0.0000
 41
1.3000
 42
1.5000
 43
1.0000
 50
0.0000
  0
INSERT
  8
31
  2
RECT
 10
67.6910
 20
82.9970
 30
0.0000
 41
1.3000
 42
1.5000
 43
1.0000
 50
90.0000
  0
INSERT
  8
31
  2
RECT
 10
67.6910
 20
84.8970
 30
0.0000
 41
1.3000
 42
1.5000
 43
1.0000
 50
90.0000
  0
INSERT
  8
31
  2
RECT
 10
32.2580
 20
86.9340
 30
0.0000
 41
1.3000
 42
1.5000
 43
1.0000
 50
90.0000
  0
INSERT
  8
31
  2
RECT
 10
32.2580
 20
88.8340
 30
0.0000
 41
1.3000
 42
1.5000
 43
1.0000
 50
90.0000
  0
INSERT
  8
31
  2
RECT
 10
46.9240
 20
22.0980
 30
0.0000
 41
1.3000
 42
1.5000
 43
1.0000
 50
180.0000
  0
INSERT
  8
31
  2
RECT
 10
45.0240
 20
22.0980
 30
0.0000
 41
1.3000
 42
1.5000
 43
1.0000
 50
180.0000
  0
INSERT
  8
31
  2
RECT
 10
102.1195
 20
26.1274
 30
0.0000
 41
1.3000
 42
1.5000
 43
1.0000
 50
235.0000
  0
INSERT
  8
31
  2
RECT
 10
101.0297
 20
24.5710
 30
0.0000
 41
1.3000
 42
1.5000
 43
1.0000
 50
235.0000
  0
INSERT
  8
31
  2
RECT
 10
102.6964
 20
67.6784
 30
0.0000
 41
1.3000
 42
1.5000
 43
1.0000
 50
10.0000
  0
INSERT
  8
31
  2
RECT
 10
104.5676
 20
68.0084
 30
0.0000
 41
1.3000
 42
1.5000
 43
1.0000
 50
10.0000
  0
INSERT
  8
31
  2
RECT
 10
91.3820
 20
49.6720
 30
0.0000
 41
1.6000
 42
1.8030
 43
1.0000
 50
180.0000
  0
INSERT
  8
31
  2
RECT
 10
88.5380
 20
49.6720
 30
0.0000
 41
1.6000
 42
1.8030
 43
1.0000
 50
180.0000
  0
INSERT
  8
31
  2
RECT
 10
95.4020
 20
59.9440
 30
0.0000
 41
1.6000
 42
1.8030
 43
1.0000
 50
180.0000
  0
INSERT
  8
31
  2
RECT
 10
92.5580
 20
59.9440
 30
0.0000
 41
1.6000
 42
1.8030
 43
1.0000
 50
180.0000
  0
INSERT
  8
31
  2
RECT
 10
98.0072
 20
21.0452
 30
0.0000
 41
1.3000
 42
1.5000
 43
1.0000
 50
45.0000
  0
INSERT
  8
31
  2
RECT
 10
99.3508
 20
22.3888
 30
0.0000
 41
1.3000
 42
1.5000
 43
1.0000
 50
45.0000
  0
INSERT
  8
31
  2
RECT
 10
21.7538
 20
89.4728
 30
0.0000
 41
1.3000
 42
1.5000
 43
1.0000
 50
135.0000
  0
INSERT
  8
31
  2
RECT
 10
20.4102
 20
90.8163
 30
0.0000
 41
1.3000
 42
1.5000
 43
1.0000
 50
135.0000
  0
INSERT
  8
31
  2
RECT
 10
101.1645
 20
73.0811
 30
0.0000
 41
1.3000
 42
1.5000
 43
1.0000
 50
20.0000
  0
INSERT
  8
31
  2
RECT
 10
102.9499
 20
73.7309
 30
0.0000
 41
1.3000
 42
1.5000
 43
1.0000
 50
20.0000
  0
INSERT
  8
31
  2
RECT
 10
106.7853
 20
36.3781
 30
0.0000
 41
1.3000
 42
1.5000
 43
1.0000
 50
160.0000
  0
INSERT
  8
31
  2
RECT
 10
104.9999
 20
37.0279
 30
0.0000
 41
1.3000
 42
1.5000
 43
1.0000
 50
160.0000
  0
INSERT
  8
31
  2
RECT
 10
25.5362
 20
13.1179
 30
0.0000
 41
1.3000
 42
1.5000
 43
1.0000
 50
325.0000
  0
INSERT
  8
31
  2
RECT
 10
27.0926
 20
12.0281
 30
0.0000
 41
1.3000
 42
1.5000
 43
1.0000
 50
325.0000
  0
INSERT
  8
31
  2
RECT
 10
3.2664
 20
53.6702
 30
0.0000
 41
1.3000
 42
1.5000
 43
1.0000
 50
0.0000
  0
INSERT
  8
31
  2
RECT
 10
5.1664
 20
53.6702
 30
0.0000
 41
1.3000
 42
1.5000
 43
1.0000
 50
0.0000
  0
INSERT
  8
31
  2
RECT
 10
20.5143
 20
86.1050
 30
0.0000
 41
1.3000
 42
1.5000
 43
1.0000
 50
140.0000
  0
INSERT
  8
31
  2
RECT
 10
19.0589
 20
87.3262
 30
0.0000
 41
1.3000
 42
1.5000
 43
1.0000
 50
140.0000
  0
INSERT
  8
31
  2
RECT
 10
88.6060
 20
51.8970
 30
0.0000
 41
1.0000
 42
1.4000
 43
1.0000
 50
270.0000
  0
INSERT
  8
31
  2
RECT
 10
90.8060
 20
52.8470
 30
0.0000
 41
1.0000
 42
1.4000
 43
1.0000
 50
270.0000
  0
INSERT
  8
31
  2
RECT
 10
88.6060
 20
53.7970
 30
0.0000
 41
1.0000
 42
1.4000
 43
1.0000
 50
270.0000
  0
INSERT
  8
31
  2
RECT
 10
32.7650
 20
91.0230
 30
0.0000
 41
1.2700
 42
1.7800
 43
1.0000
 50
180.0000
  0
INSERT
  8
31
  2
RECT
 10
32.7650
 20
100.6730
 30
0.0000
 41
1.2700
 42
1.7800
 43
1.0000
 50
0.0000
  0
INSERT
  8
31
  2
RECT
 10
35.3050
 20
91.0230
 30
0.0000
 41
1.2700
 42
1.7800
 43
1.0000
 50
180.0000
  0
INSERT
  8
31
  2
RECT
 10
35.3050
 20
100.6730
 30
0.0000
 41
1.2700
 42
1.7800
 43
1.0000
 50
0.0000
  0
INSERT
  8
31
  2
RECT
 10
37.8450
 20
91.0230
 30
0.0000
 41
1.2700
 42
1.7800
 43
1.0000
 50
180.0000
  0
INSERT
  8
31
  2
RECT
 10
37.8450
 20
100.6730
 30
0.0000
 41
1.2700
 42
1.7800
 43
1.0000
 50
0.0000
  0
INSERT
  8
31
  2
RECT
 10
40.3850
 20
91.0230
 30
0.0000
 41
1.2700
 42
1.7800
 43
1.0000
 50
180.0000
  0
INSERT
  8
31
  2
RECT
 10
40.3850
 20
100.6730
 30
0.0000
 41
1.2700
 42
1.7800
 43
1.0000
 50
0.0000
  0
INSERT
  8
31
  2
RECT
 10
42.9250
 20
91.0230
 30
0.0000
 41
1.2700
 42
1.7800
 43
1.0000
 50
180.0000
  0
INSERT
  8
31
  2
RECT
 10
42.9250
 20
100.6730
 30
0.0000
 41
1.2700
 42
1.7800
 43
1.0000
 50
0.0000
  0
INSERT
  8
31
  2
RECT
 10
45.4650
 20
91.0230
 30
0.0000
 41
1.2700
 42
1.7800
 43
1.0000
 50
180.0000
  0
INSERT
  8
31
  2
RECT
 10
45.4650
 20
100.6730
 30
0.0000
 41
1.2700
 42
1.7800
 43
1.0000
 50
0.0000
  0
INSERT
  8
31
  2
RECT
 10
48.0050
 20
91.0230
 30
0.0000
 41
1.2700
 42
1.7800
 43
1.0000
 50
180.0000
  0
INSERT
  8
31
  2
RECT
 10
48.0050
 20
100.6730
 30
0.0000
 41
1.2700
 42
1.7800
 43
1.0000
 50
0.0000
  0
INSERT
  8
31
  2
RECT
 10
50.5450
 20
91.0230
 30
0.0000
 41
1.2700
 42
1.7800
 43
1.0000
 50
180.0000
  0
INSERT
  8
31
  2
RECT
 10
50.5450
 20
100.6730
 30
0.0000
 41
1.2700
 42
1.7800
 43
1.0000
 50
0.0000
  0
INSERT
  8
31
  2
RECT
 10
53.0850
 20
91.0230
 30
0.0000
 41
1.2700
 42
1.7800
 43
1.0000
 50
180.0000
  0
INSERT
  8
31
  2
RECT
 10
53.0850
 20
100.6730
 30
0.0000
 41
1.2700
 42
1.7800
 43
1.0000
 50
0.0000
  0
INSERT
  8
31
  2
RECT
 10
55.6250
 20
91.0230
 30
0.0000
 41
1.2700
 42
1.7800
 43
1.0000
 50
180.0000
  0
INSERT
  8
31
  2
RECT
 10
55.6250
 20
100.6730
 30
0.0000
 41
1.2700
 42
1.7800
 43
1.0000
 50
0.0000
  0
INSERT
  8
31
  2
RECT
 10
58.1650
 20
91.0230
 30
0.0000
 41
1.2700
 42
1.7800
 43
1.0000
 50
180.0000
  0
INSERT
  8
31
  2
RECT
 10
58.1650
 20
100.6730
 30
0.0000
 41
1.2700
 42
1.7800
 43
1.0000
 50
0.0000
  0
INSERT
  8
31
  2
RECT
 10
60.7050
 20
91.0230
 30
0.0000
 41
1.2700
 42
1.7800
 43
1.0000
 50
180.0000
  0
INSERT
  8
31
  2
RECT
 10
60.7050
 20
100.6730
 30
0.0000
 41
1.2700
 42
1.7800
 43
1.0000
 50
0.0000
  0
INSERT
  8
31
  2
RECT
 10
63.2450
 20
91.0230
 30
0.0000
 41
1.2700
 42
1.7800
 43
1.0000
 50
180.0000
  0
INSERT
  8
31
  2
RECT
 10
63.2450
 20
100.6730
 30
0.0000
 41
1.2700
 42
1.7800
 43
1.0000
 50
0.0000
  0
INSERT
  8
31
  2
RECT
 10
65.7850
 20
91.0230
 30
0.0000
 41
1.2700
 42
1.7800
 43
1.0000
 50
180.0000
  0
INSERT
  8
31
  2
RECT
 10
65.7850
 20
100.6730
 30
0.0000
 41
1.2700
 42
1.7800
 43
1.0000
 50
0.0000
  0
INSERT
  8
31
  2
RECT
 10
68.3250
 20
91.0230
 30
0.0000
 41
1.2700
 42
1.7800
 43
1.0000
 50
180.0000
  0
INSERT
  8
31
  2
RECT
 10
68.3250
 20
100.6730
 30
0.0000
 41
1.2700
 42
1.7800
 43
1.0000
 50
0.0000
  0
INSERT
  8
31
  2
RECT
 10
70.8650
 20
91.0230
 30
0.0000
 41
1.2700
 42
1.7800
 43
1.0000
 50
180.0000
  0
INSERT
  8
31
  2
RECT
 10
70.8650
 20
100.6730
 30
0.0000
 41
1.2700
 42
1.7800
 43
1.0000
 50
0.0000
  0
INSERT
  8
31
  2
RECT
 10
73.4050
 20
91.0230
 30
0.0000
 41
1.2700
 42
1.7800
 43
1.0000
 50
180.0000
  0
INSERT
  8
31
  2
RECT
 10
73.4050
 20
100.6730
 30
0.0000
 41
1.2700
 42
1.7800
 43
1.0000
 50
0.0000
  0
INSERT
  8
31
  2
RECT
 10
75.9450
 20
91.0230
 30
0.0000
 41
1.2700
 42
1.7800
 43
1.0000
 50
180.0000
  0
INSERT
  8
31
  2
RECT
 10
75.9450
 20
100.6730
 30
0.0000
 41
1.2700
 42
1.7800
 43
1.0000
 50
0.0000
  0
INSERT
  8
31
  2
RECT
 10
78.4850
 20
91.0230
 30
0.0000
 41
1.2700
 42
1.7800
 43
1.0000
 50
180.0000
  0
INSERT
  8
31
  2
RECT
 10
78.4850
 20
100.6730
 30
0.0000
 41
1.2700
 42
1.7800
 43
1.0000
 50
0.0000
  0
INSERT
  8
31
  2
RECT
 10
81.0250
 20
91.0230
 30
0.0000
 41
1.2700
 42
1.7800
 43
1.0000
 50
180.0000
  0
INSERT
  8
31
  2
RECT
 10
81.0250
 20
100.6730
 30
0.0000
 41
1.2700
 42
1.7800
 43
1.0000
 50
0.0000
  0
INSERT
  8
31
  2
RECT
 10
44.2964
 20
29.3260
 30
0.0000
 41
1.5151
 42
0.4091
 43
1.0000
 50
0.0000
  0
INSERT
  8
31
  2
RECT
 10
44.2964
 20
28.6760
 30
0.0000
 41
1.5151
 42
0.4091
 43
1.0000
 50
0.0000
  0
INSERT
  8
31
  2
RECT
 10
44.2964
 20
28.0260
 30
0.0000
 41
1.5151
 42
0.4091
 43
1.0000
 50
0.0000
  0
INSERT
  8
31
  2
RECT
 10
44.2964
 20
27.3760
 30
0.0000
 41
1.5151
 42
0.4091
 43
1.0000
 50
0.0000
  0
INSERT
  8
31
  2
RECT
 10
44.2964
 20
26.7260
 30
0.0000
 41
1.5151
 42
0.4091
 43
1.0000
 50
0.0000
  0
INSERT
  8
31
  2
RECT
 10
44.2964
 20
26.0760
 30
0.0000
 41
1.5151
 42
0.4091
 43
1.0000
 50
0.0000
  0
INSERT
  8
31
  2
RECT
 10
44.2964
 20
25.4260
 30
0.0000
 41
1.5151
 42
0.4091
 43
1.0000
 50
0.0000
  0
INSERT
  8
31
  2
RECT
 10
44.2964
 20
24.7760
 30
0.0000
 41
1.5151
 42
0.4091
 43
1.0000
 50
0.0000
  0
INSERT
  8
31
  2
RECT
 10
50.1916
 20
24.7760
 30
0.0000
 41
1.5151
 42
0.4091
 43
1.0000
 50
0.0000
  0
INSERT
  8
31
  2
RECT
 10
50.1916
 20
25.4260
 30
0.0000
 41
1.5151
 42
0.4091
 43
1.0000
 50
0.0000
  0
INSERT
  8
31
  2
RECT
 10
50.1916
 20
26.0760
 30
0.0000
 41
1.5151
 42
0.4091
 43
1.0000
 50
0.0000
  0
INSERT
  8
31
  2
RECT
 10
50.1916
 20
26.7260
 30
0.0000
 41
1.5151
 42
0.4091
 43
1.0000
 50
0.0000
  0
INSERT
  8
31
  2
RECT
 10
50.1916
 20
27.3760
 30
0.0000
 41
1.5151
 42
0.4091
 43
1.0000
 50
0.0000
  0
INSERT
  8
31
  2
RECT
 10
50.1916
 20
28.0260
 30
0.0000
 41
1.5151
 42
0.4091
 43
1.0000
 50
0.0000
  0
INSERT
  8
31
  2
RECT
 10
50.1916
 20
28.6760
 30
0.0000
 41
1.5151
 42
0.4091
 43
1.0000
 50
0.0000
  0
INSERT
  8
31
  2
RECT
 10
50.1916
 20
29.3260
 30
0.0000
 41
1.5151
 42
0.4091
 43
1.0000
 50
0.0000
  0
INSERT
  8
31
  2
RECT
 10
17.8441
 20
34.3304
 30
0.0000
 41
3.4686
 42
0.9939
 43
1.0000
 50
110.0000
  0
INSERT
  8
31
  2
RECT
 10
19.4416
 20
34.9119
 30
0.0000
 41
3.4686
 42
0.9939
 43
1.0000
 50
110.0000
  0
INSERT
  8
31
  2
RECT
 10
21.0390
 20
35.4933
 30
0.0000
 41
3.4686
 42
0.9939
 43
1.0000
 50
110.0000
  0
INSERT
  8
31
  2
RECT
 10
22.6365
 20
36.0747
 30
0.0000
 41
3.4686
 42
0.9939
 43
1.0000
 50
110.0000
  0
INSERT
  8
31
  2
RECT
 10
24.2340
 20
36.6562
 30
0.0000
 41
3.4686
 42
0.9939
 43
1.0000
 50
110.0000
  0
INSERT
  8
31
  2
RECT
 10
17.3082
 20
45.7437
 30
0.0000
 41
7.8849
 42
10.7000
 43
1.0000
 50
110.0000
  0
INSERT
  8
31
  2
RECT
 10
29.2507
 20
22.1587
 30
0.0000
 41
1.1587
 42
0.8391
 43
1.0000
 50
325.0000
  0
INSERT
  8
31
  2
RECT
 10
31.9633
 20
20.2593
 30
0.0000
 41
1.1587
 42
0.8391
 43
1.0000
 50
325.0000
  0
INSERT
  8
31
  2
RECT
 10
24.5454
 20
26.8314
 30
0.0000
 41
6.6000
 42
2.8500
 43
1.0000
 50
135.0000
  0
INSERT
  8
31
  2
RECT
 10
28.5406
 20
30.8266
 30
0.0000
 41
6.6000
 42
2.8500
 43
1.0000
 50
135.0000
  0
INSERT
  8
31
  2
RECT
 10
38.9028
 20
17.1838
 30
0.0000
 41
4.1098
 42
2.1202
 43
1.0000
 50
335.0000
  0
INSERT
  8
31
  2
RECT
 10
46.6952
 20
13.5502
 30
0.0000
 41
4.1098
 42
2.1202
 43
1.0000
 50
335.0000
  0
INSERT
  8
31
  2
RECT
 10
66.5713
 20
24.1065
 30
0.0000
 41
1.1587
 42
0.8391
 43
1.0000
 50
195.0000
  0
INSERT
  8
31
  2
RECT
 10
63.3727
 20
23.2495
 30
0.0000
 41
1.1587
 42
0.8391
 43
1.0000
 50
195.0000
  0
INSERT
  8
31
  2
RECT
 10
97.3355
 20
69.1337
 30
0.0000
 41
1.1587
 42
0.8391
 43
1.0000
 50
105.0000
  0
INSERT
  8
31
  2
RECT
 10
96.4785
 20
72.3323
 30
0.0000
 41
1.1587
 42
0.8391
 43
1.0000
 50
105.0000
  0
INSERT
  8
31
  2
RECT
 10
87.6031
 20
26.1869
 30
0.0000
 41
4.1098
 42
2.1202
 43
1.0000
 50
315.0000
  0
INSERT
  8
31
  2
RECT
 10
93.6828
 20
20.1072
 30
0.0000
 41
4.1098
 42
2.1202
 43
1.0000
 50
315.0000
  0
INSERT
  8
31
  2
RECT
 10
59.6313
 20
84.9630
 30
0.0000
 41
1.9716
 42
0.5991
 43
1.0000
 50
0.0000
  0
INSERT
  8
31
  2
RECT
 10
59.6313
 20
83.6930
 30
0.0000
 41
1.9716
 42
0.5991
 43
1.0000
 50
0.0000
  0
INSERT
  8
31
  2
RECT
 10
59.6313
 20
82.4230
 30
0.0000
 41
1.9716
 42
0.5991
 43
1.0000
 50
0.0000
  0
INSERT
  8
31
  2
RECT
 10
59.6313
 20
81.1530
 30
0.0000
 41
1.9716
 42
0.5991
 43
1.0000
 50
0.0000
  0
INSERT
  8
31
  2
RECT
 10
64.5747
 20
81.1530
 30
0.0000
 41
1.9716
 42
0.5991
 43
1.0000
 50
0.0000
  0
INSERT
  8
31
  2
RECT
 10
64.5747
 20
82.4230
 30
0.0000
 41
1.9716
 42
0.5991
 43
1.0000
 50
0.0000
  0
INSERT
  8
31
  2
RECT
 10
64.5747
 20
83.6930
 30
0.0000
 41
1.9716
 42
0.5991
 43
1.0000
 50
0.0000
  0
INSERT
  8
31
  2
RECT
 10
64.5747
 20
84.9630
 30
0.0000
 41
1.9716
 42
0.5991
 43
1.0000
 50
0.0000
  0
INSERT
  8
31
  2
RECT
 10
79.0900
 20
78.4860
 30
0.0000
 41
6.6000
 42
2.8500
 43
1.0000
 50
90.0000
  0
INSERT
  8
31
  2
RECT
 10
84.7400
 20
78.4860
 30
0.0000
 41
6.6000
 42
2.8500
 43
1.0000
 50
90.0000
  0
INSERT
  8
31
  2
RECT
 10
84.9630
 20
66.6797
 30
0.0000
 41
1.1587
 42
0.8391
 43
1.0000
 50
270.0000
  0
INSERT
  8
31
  2
RECT
 10
84.9630
 20
63.3683
 30
0.0000
 41
1.1587
 42
0.8391
 43
1.0000
 50
270.0000
  0
INSERT
  8
31
  2
RECT
 10
87.3841
 20
87.5111
 30
0.0000
 41
4.1098
 42
2.1202
 43
1.0000
 50
45.0000
  0
INSERT
  8
31
  2
RECT
 10
93.4639
 20
93.5909
 30
0.0000
 41
4.1098
 42
2.1202
 43
1.0000
 50
45.0000
  0
INSERT
  8
31
  2
RECT
 10
94.5046
 20
35.1811
 30
0.0000
 41
4.1098
 42
2.1202
 43
1.0000
 50
330.0000
  0
INSERT
  8
31
  2
RECT
 10
101.9506
 20
30.8821
 30
0.0000
 41
4.1098
 42
2.1202
 43
1.0000
 50
330.0000
  0
INSERT
  8
31
  2
RECT
 10
98.8430
 20
45.6551
 30
0.0000
 41
4.1098
 42
2.1202
 43
1.0000
 50
345.0000
  0
INSERT
  8
31
  2
RECT
 10
107.1480
 20
43.4297
 30
0.0000
 41
4.1098
 42
2.1202
 43
1.0000
 50
345.0000
  0
INSERT
  8
31
  2
RECT
 10
88.4170
 20
45.9820
 30
0.0000
 41
4.1098
 42
2.1202
 43
1.0000
 50
270.0000
  0
INSERT
  8
31
  2
RECT
 10
88.4170
 20
37.3840
 30
0.0000
 41
4.1098
 42
2.1202
 43
1.0000
 50
270.0000
  0
INSERT
  8
31
  2
RECT
 10
37.0430
 20
87.8783
 30
0.0000
 41
1.1500
 42
0.4500
 43
1.0000
 50
270.0000
  0
INSERT
  8
31
  2
RECT
 10
36.3930
 20
87.8783
 30
0.0000
 41
1.1500
 42
0.4500
 43
1.0000
 50
270.0000
  0
INSERT
  8
31
  2
RECT
 10
35.7430
 20
87.8783
 30
0.0000
 41
1.1500
 42
0.4500
 43
1.0000
 50
270.0000
  0
INSERT
  8
31
  2
RECT
 10
35.0930
 20
87.8783
 30
0.0000
 41
1.1500
 42
0.4500
 43
1.0000
 50
270.0000
  0
INSERT
  8
31
  2
RECT
 10
35.0930
 20
83.5717
 30
0.0000
 41
1.1500
 42
0.4500
 43
1.0000
 50
270.0000
  0
INSERT
  8
31
  2
RECT
 10
35.7430
 20
83.5717
 30
0.0000
 41
1.1500
 42
0.4500
 43
1.0000
 50
270.0000
  0
INSERT
  8
31
  2
RECT
 10
36.3930
 20
83.5717
 30
0.0000
 41
1.1500
 42
0.4500
 43
1.0000
 50
270.0000
  0
INSERT
  8
31
  2
RECT
 10
37.0430
 20
83.5717
 30
0.0000
 41
1.1500
 42
0.4500
 43
1.0000
 50
270.0000
  0
INSERT
  8
31
  2
RECT
 10
93.5624
 20
64.1350
 30
0.0000
 41
1.6546
 42
0.5919
 43
1.0000
 50
180.0000
  0
INSERT
  8
31
  2
RECT
 10
93.5624
 20
65.4050
 30
0.0000
 41
1.6546
 42
0.5919
 43
1.0000
 50
180.0000
  0
INSERT
  8
31
  2
RECT
 10
93.5624
 20
66.6750
 30
0.0000
 41
1.6546
 42
0.5919
 43
1.0000
 50
180.0000
  0
INSERT
  8
31
  2
RECT
 10
93.5624
 20
67.9450
 30
0.0000
 41
1.6546
 42
0.5919
 43
1.0000
 50
180.0000
  0
INSERT
  8
31
  2
RECT
 10
88.3016
 20
67.9450
 30
0.0000
 41
1.6546
 42
0.5919
 43
1.0000
 50
180.0000
  0
INSERT
  8
31
  2
RECT
 10
88.3016
 20
66.6750
 30
0.0000
 41
1.6546
 42
0.5919
 43
1.0000
 50
180.0000
  0
INSERT
  8
31
  2
RECT
 10
88.3016
 20
65.4050
 30
0.0000
 41
1.6546
 42
0.5919
 43
1.0000
 50
180.0000
  0
INSERT
  8
31
  2
RECT
 10
88.3016
 20
64.1350
 30
0.0000
 41
1.6546
 42
0.5919
 43
1.0000
 50
180.0000
  0
INSERT
  8
31
  2
RECT
 10
90.9320
 20
66.0400
 30
0.0000
 41
2.6500
 42
3.0000
 43
1.0000
 50
180.0000
  0
ENDSEC
  0
EOF
