  0
SECTION
  2
HEADER
  9
$ACADVER
  1
AC1009
  9
$FILLMODE
 70
1
  9
$EXTMIN
 10
0.0000
 20
-1.0160
 30
0.0000
  9
$EXTMAX
 10
74.2766
 20
30.6222
 30
0.0000
  0
ENDSEC
  0
SECTION
  2
TABLES
  0
TABLE
  2
LTYPE
 70
1
  0
LTYPE
  2
CONTINUOUS
 70
64
  3
Solid line
 72
65
 73
0
 40
0
  0
ENDTAB
  0
TABLE
  2
LAYER
 70
255
  0
LAYER
  2
20
 70
64
 62
30
  6
CONTINUOUS
  0
LAYER
  2
32
 70
64
 62
253
  6
CONTINUOUS
  0
ENDTAB
  0
ENDSEC
  0
SECTION
  2
BLOCKS
  0
BLOCK
  8
0
  2
RECT
 70
64
 10
0.0000
 20
0.0000
 30
0.0000
  3
RECT
  0
SOLID
  8
0
 10
-0.5000
 20
-0.5000
 30
0.0000
 11
0.5000
 21
-0.5000
 31
0.0000
 12
-0.5000
 22
0.5000
 32
0.0000
 13
0.5000
 23
0.5000
 33
0.0000
  0
ENDBLK
  8
0
  0
BLOCK
  8
0
  2
PIE
 70
64
 10
0.0000
 20
0.0000
 30
0.0000
  3
PIE
  0
POLYLINE
  8
0
 66
1
 10
0.0000
 20
0.0000
 30
0.0000
 40
0.5000
 41
0.5000
 70
0
  0
VERTEX
  8
0
 10
0.0000
 20
-0.2500
 30
0.0000
 42
1.0000
  0
VERTEX
  8
0
 10
0.0000
 20
0.2500
 30
0.0000
 42
1.0000
  0
VERTEX
  8
0
 10
0.0000
 20
-0.2500
 30
0.0000
  0
SEQEND
  8
0
  0
ENDBLK
  8
0
  0
BLOCK
  8
0
  2
OCTAGONP
 70
64
 10
0.0000
 20
0.0000
 30
0.0000
  3
OCTAGONP
  0
POLYLINE
  8
0
 66
1
 10
0.0000
 20
0.0000
 30
0.0000
 40
0.5000
 41
0.5000
 70
0
  0
VERTEX
  8
0
 10
-0.2500
 20
-0.1036
 30
0.0000
  0
VERTEX
  8
0
 10
-0.2500
 20
0.1036
 30
0.0000
  0
VERTEX
  8
0
 10
-0.1036
 20
0.2500
 30
0.0000
  0
VERTEX
  8
0
 10
0.1036
 20
0.2500
 30
0.0000
  0
VERTEX
  8
0
 10
0.2500
 20
0.1036
 30
0.0000
  0
VERTEX
  8
0
 10
0.2500
 20
-0.1036
 30
0.0000
  0
VERTEX
  8
0
 10
0.1036
 20
-0.2500
 30
0.0000
  0
VERTEX
  8
0
 10
-0.1036
 20
-0.2500
 30
0.0000
  0
VERTEX
  8
0
 10
-0.2500
 20
-0.1036
 30
0.0000
  0
VERTEX
  8
0
 10
-0.2500
 20
0.1036
 30
0.0000
  0
SEQEND
  8
0
  0
ENDBLK
  8
0
  0
BLOCK
  8
0
  2
SQUAREP
 70
64
 10
0.0000
 20
0.0000
 30
0.0000
  3
SQUAREP
  0
SOLID
  8
0
 10
-0.5000
 20
-0.5000
 30
0.0000
 11
0.5000
 21
-0.5000
 31
0.0000
 12
-0.5000
 22
0.5000
 32
0.0000
 13
0.5000
 23
0.5000
 33
0.0000
  0
ENDBLK
  8
0
  0
BLOCK
  8
0
  2
ROUNDP
 70
64
 10
0.0000
 20
0.0000
 30
0.0000
  3
ROUNDP
  0
POLYLINE
  8
0
 66
1
 10
0.0000
 20
0.0000
 30
0.0000
 40
0.5000
 41
0.5000
 70
0
  0
VERTEX
  8
0
 10
0.0000
 20
-0.2500
 30
0.0000
 42
1.0000
  0
VERTEX
  8
0
 10
0.0000
 20
0.2500
 30
0.0000
 42
1.0000
  0
VERTEX
  8
0
 10
0.0000
 20
-0.2500
 30
0.0000
  0
SEQEND
  8
0
  0
ENDBLK
  8
0
  0
BLOCK
  8
0
  2
ANNULUSP
 70
64
 10
0.0000
 20
0.0000
 30
0.0000
  3
ANNULUSP
  0
POLYLINE
  8
0
 66
1
 10
0.0000
 20
0.0000
 30
0.0000
 40
0.5000
 41
0.5000
 70
0
  0
VERTEX
  8
0
 10
0.0000
 20
-0.2500
 30
0.0000
 42
1.0000
  0
VERTEX
  8
0
 10
0.0000
 20
0.2500
 30
0.0000
 42
1.0000
  0
VERTEX
  8
0
 10
0.0000
 20
-0.2500
 30
0.0000
  0
SEQEND
  8
0
  0
ENDBLK
  8
0
  0
BLOCK
  8
0
  2
THERMALP
 70
64
 10
0.0000
 20
0.0000
 30
0.0000
  3
THERMALP
  0
POLYLINE
  8
0
 66
1
 10
0.0000
 20
0.0000
 30
0.0000
 40
0.1000
 41
0.1000
 70
0
  0
VERTEX
  8
0
 10
-0.2379
 20
0.4500
 30
0.0000
  0
VERTEX
  8
0
 10
0.2379
 20
0.4500
 30
0.0000
  0
SEQEND
  8
0
  0
POLYLINE
  8
0
 66
1
 10
0.0000
 20
0.0000
 30
0.0000
 40
0.0500
 41
0.0500
 70
0
  0
VERTEX
  8
0
 10
0.2379
 20
0.4250
 30
0.0000
 42
1.0000
  0
VERTEX
  8
0
 10
0.2379
 20
0.4750
 30
0.0000
  0
SEQEND
  8
0
  0
POLYLINE
  8
0
 66
1
 10
0.0000
 20
0.0000
 30
0.0000
 40
0.0500
 41
0.0500
 70
0
  0
VERTEX
  8
0
 10
-0.2379
 20
0.4750
 30
0.0000
 42
1.0000
  0
VERTEX
  8
0
 10
-0.2379
 20
0.4250
 30
0.0000
  0
SEQEND
  8
0
  0
POLYLINE
  8
0
 66
1
 10
0.0000
 20
0.0000
 30
0.0000
 40
0.1000
 41
0.1000
 70
0
  0
VERTEX
  8
0
 10
0.4500
 20
0.2379
 30
0.0000
  0
VERTEX
  8
0
 10
0.4500
 20
-0.2379
 30
0.0000
  0
SEQEND
  8
0
  0
POLYLINE
  8
0
 66
1
 10
0.0000
 20
0.0000
 30
0.0000
 40
0.0500
 41
0.0500
 70
0
  0
VERTEX
  8
0
 10
0.4250
 20
-0.2379
 30
0.0000
 42
1.0000
  0
VERTEX
  8
0
 10
0.4750
 20
-0.2379
 30
0.0000
  0
SEQEND
  8
0
  0
POLYLINE
  8
0
 66
1
 10
0.0000
 20
0.0000
 30
0.0000
 40
0.0500
 41
0.0500
 70
0
  0
VERTEX
  8
0
 10
0.4750
 20
0.2379
 30
0.0000
 42
1.0000
  0
VERTEX
  8
0
 10
0.4250
 20
0.2379
 30
0.0000
  0
SEQEND
  8
0
  0
POLYLINE
  8
0
 66
1
 10
0.0000
 20
0.0000
 30
0.0000
 40
0.1000
 41
0.1000
 70
0
  0
VERTEX
  8
0
 10
0.2379
 20
-0.4500
 30
0.0000
  0
VERTEX
  8
0
 10
-0.2379
 20
-0.4500
 30
0.0000
  0
SEQEND
  8
0
  0
POLYLINE
  8
0
 66
1
 10
0.0000
 20
0.0000
 30
0.0000
 40
0.0500
 41
0.0500
 70
0
  0
VERTEX
  8
0
 10
-0.2379
 20
-0.4250
 30
0.0000
 42
1.0000
  0
VERTEX
  8
0
 10
-0.2379
 20
-0.4750
 30
0.0000
  0
SEQEND
  8
0
  0
POLYLINE
  8
0
 66
1
 10
0.0000
 20
0.0000
 30
0.0000
 40
0.0500
 41
0.0500
 70
0
  0
VERTEX
  8
0
 10
0.2379
 20
-0.4750
 30
0.0000
 42
1.0000
  0
VERTEX
  8
0
 10
0.2379
 20
-0.4250
 30
0.0000
  0
SEQEND
  8
0
  0
POLYLINE
  8
0
 66
1
 10
0.0000
 20
0.0000
 30
0.0000
 40
0.1000
 41
0.1000
 70
0
  0
VERTEX
  8
0
 10
-0.4500
 20
-0.2379
 30
0.0000
  0
VERTEX
  8
0
 10
-0.4500
 20
0.2379
 30
0.0000
  0
SEQEND
  8
0
  0
POLYLINE
  8
0
 66
1
 10
0.0000
 20
0.0000
 30
0.0000
 40
0.0500
 41
0.0500
 70
0
  0
VERTEX
  8
0
 10
-0.4250
 20
0.2379
 30
0.0000
 42
1.0000
  0
VERTEX
  8
0
 10
-0.4750
 20
0.2379
 30
0.0000
  0
SEQEND
  8
0
  0
POLYLINE
  8
0
 66
1
 10
0.0000
 20
0.0000
 30
0.0000
 40
0.0500
 41
0.0500
 70
0
  0
VERTEX
  8
0
 10
-0.4750
 20
-0.2379
 30
0.0000
 42
1.0000
  0
VERTEX
  8
0
 10
-0.4250
 20
-0.2379
 30
0.0000
  0
SEQEND
  8
0
  0
ENDBLK
  8
0
  0
BLOCK
  8
0
  2
OCTAGONV
 70
64
 10
0.0000
 20
0.0000
 30
0.0000
  3
OCTAGONV
  0
POLYLINE
  8
0
 66
1
 10
0.0000
 20
0.0000
 30
0.0000
 40
0.5000
 41
0.5000
 70
0
  0
VERTEX
  8
0
 10
-0.2500
 20
-0.1036
 30
0.0000
  0
VERTEX
  8
0
 10
-0.2500
 20
0.1036
 30
0.0000
  0
VERTEX
  8
0
 10
-0.1036
 20
0.2500
 30
0.0000
  0
VERTEX
  8
0
 10
0.1036
 20
0.2500
 30
0.0000
  0
VERTEX
  8
0
 10
0.2500
 20
0.1036
 30
0.0000
  0
VERTEX
  8
0
 10
0.2500
 20
-0.1036
 30
0.0000
  0
VERTEX
  8
0
 10
0.1036
 20
-0.2500
 30
0.0000
  0
VERTEX
  8
0
 10
-0.1036
 20
-0.2500
 30
0.0000
  0
VERTEX
  8
0
 10
-0.2500
 20
-0.1036
 30
0.0000
  0
VERTEX
  8
0
 10
-0.2500
 20
0.1036
 30
0.0000
  0
SEQEND
  8
0
  0
ENDBLK
  8
0
  0
BLOCK
  8
0
  2
SQUAREV
 70
64
 10
0.0000
 20
0.0000
 30
0.0000
  3
SQUAREV
  0
SOLID
  8
0
 10
-0.5000
 20
-0.5000
 30
0.0000
 11
0.5000
 21
-0.5000
 31
0.0000
 12
-0.5000
 22
0.5000
 32
0.0000
 13
0.5000
 23
0.5000
 33
0.0000
  0
ENDBLK
  8
0
  0
BLOCK
  8
0
  2
ROUNDV
 70
64
 10
0.0000
 20
0.0000
 30
0.0000
  3
ROUNDV
  0
POLYLINE
  8
0
 66
1
 10
0.0000
 20
0.0000
 30
0.0000
 40
0.5000
 41
0.5000
 70
0
  0
VERTEX
  8
0
 10
0.0000
 20
-0.2500
 30
0.0000
 42
1.0000
  0
VERTEX
  8
0
 10
0.0000
 20
0.2500
 30
0.0000
 42
1.0000
  0
VERTEX
  8
0
 10
0.0000
 20
-0.2500
 30
0.0000
  0
SEQEND
  8
0
  0
ENDBLK
  8
0
  0
BLOCK
  8
0
  2
ANNULUSV
 70
64
 10
0.0000
 20
0.0000
 30
0.0000
  3
ANNULUSV
  0
POLYLINE
  8
0
 66
1
 10
0.0000
 20
0.0000
 30
0.0000
 40
0.5000
 41
0.5000
 70
0
  0
VERTEX
  8
0
 10
0.0000
 20
-0.2500
 30
0.0000
 42
1.0000
  0
VERTEX
  8
0
 10
0.0000
 20
0.2500
 30
0.0000
 42
1.0000
  0
VERTEX
  8
0
 10
0.0000
 20
-0.2500
 30
0.0000
  0
SEQEND
  8
0
  0
ENDBLK
  8
0
  0
BLOCK
  8
0
  2
THERMALV
 70
64
 10
0.0000
 20
0.0000
 30
0.0000
  3
THERMALV
  0
POLYLINE
  8
0
 66
1
 10
0.0000
 20
0.0000
 30
0.0000
 40
0.1000
 41
0.1000
 70
0
  0
VERTEX
  8
0
 10
-0.2379
 20
0.4500
 30
0.0000
  0
VERTEX
  8
0
 10
0.2379
 20
0.4500
 30
0.0000
  0
SEQEND
  8
0
  0
POLYLINE
  8
0
 66
1
 10
0.0000
 20
0.0000
 30
0.0000
 40
0.0500
 41
0.0500
 70
0
  0
VERTEX
  8
0
 10
0.2379
 20
0.4250
 30
0.0000
 42
1.0000
  0
VERTEX
  8
0
 10
0.2379
 20
0.4750
 30
0.0000
  0
SEQEND
  8
0
  0
POLYLINE
  8
0
 66
1
 10
0.0000
 20
0.0000
 30
0.0000
 40
0.0500
 41
0.0500
 70
0
  0
VERTEX
  8
0
 10
-0.2379
 20
0.4750
 30
0.0000
 42
1.0000
  0
VERTEX
  8
0
 10
-0.2379
 20
0.4250
 30
0.0000
  0
SEQEND
  8
0
  0
POLYLINE
  8
0
 66
1
 10
0.0000
 20
0.0000
 30
0.0000
 40
0.1000
 41
0.1000
 70
0
  0
VERTEX
  8
0
 10
0.4500
 20
0.2379
 30
0.0000
  0
VERTEX
  8
0
 10
0.4500
 20
-0.2379
 30
0.0000
  0
SEQEND
  8
0
  0
POLYLINE
  8
0
 66
1
 10
0.0000
 20
0.0000
 30
0.0000
 40
0.0500
 41
0.0500
 70
0
  0
VERTEX
  8
0
 10
0.4250
 20
-0.2379
 30
0.0000
 42
1.0000
  0
VERTEX
  8
0
 10
0.4750
 20
-0.2379
 30
0.0000
  0
SEQEND
  8
0
  0
POLYLINE
  8
0
 66
1
 10
0.0000
 20
0.0000
 30
0.0000
 40
0.0500
 41
0.0500
 70
0
  0
VERTEX
  8
0
 10
0.4750
 20
0.2379
 30
0.0000
 42
1.0000
  0
VERTEX
  8
0
 10
0.4250
 20
0.2379
 30
0.0000
  0
SEQEND
  8
0
  0
POLYLINE
  8
0
 66
1
 10
0.0000
 20
0.0000
 30
0.0000
 40
0.1000
 41
0.1000
 70
0
  0
VERTEX
  8
0
 10
0.2379
 20
-0.4500
 30
0.0000
  0
VERTEX
  8
0
 10
-0.2379
 20
-0.4500
 30
0.0000
  0
SEQEND
  8
0
  0
POLYLINE
  8
0
 66
1
 10
0.0000
 20
0.0000
 30
0.0000
 40
0.0500
 41
0.0500
 70
0
  0
VERTEX
  8
0
 10
-0.2379
 20
-0.4250
 30
0.0000
 42
1.0000
  0
VERTEX
  8
0
 10
-0.2379
 20
-0.4750
 30
0.0000
  0
SEQEND
  8
0
  0
POLYLINE
  8
0
 66
1
 10
0.0000
 20
0.0000
 30
0.0000
 40
0.0500
 41
0.0500
 70
0
  0
VERTEX
  8
0
 10
0.2379
 20
-0.4750
 30
0.0000
 42
1.0000
  0
VERTEX
  8
0
 10
0.2379
 20
-0.4250
 30
0.0000
  0
SEQEND
  8
0
  0
POLYLINE
  8
0
 66
1
 10
0.0000
 20
0.0000
 30
0.0000
 40
0.1000
 41
0.1000
 70
0
  0
VERTEX
  8
0
 10
-0.4500
 20
-0.2379
 30
0.0000
  0
VERTEX
  8
0
 10
-0.4500
 20
0.2379
 30
0.0000
  0
SEQEND
  8
0
  0
POLYLINE
  8
0
 66
1
 10
0.0000
 20
0.0000
 30
0.0000
 40
0.0500
 41
0.0500
 70
0
  0
VERTEX
  8
0
 10
-0.4250
 20
0.2379
 30
0.0000
 42
1.0000
  0
VERTEX
  8
0
 10
-0.4750
 20
0.2379
 30
0.0000
  0
SEQEND
  8
0
  0
POLYLINE
  8
0
 66
1
 10
0.0000
 20
0.0000
 30
0.0000
 40
0.0500
 41
0.0500
 70
0
  0
VERTEX
  8
0
 10
-0.4750
 20
-0.2379
 30
0.0000
 42
1.0000
  0
VERTEX
  8
0
 10
-0.4250
 20
-0.2379
 30
0.0000
  0
SEQEND
  8
0
  0
ENDBLK
  8
0
  0
BLOCK
  8
0
  2
RECT0X0R20
 70
64
 10
0.0000
 20
0.0000
 30
0.0000
  3
RECT0X0R20
  0
POLYLINE
  8
0
 66
1
 10
0.0000
 20
0.0000
 30
0.0000
 40
0.0000
 41
0.0000
 70
1
  0
VERTEX
  8
0
 10
0.0000
 20
0.0000
 30
0.0000
  0
VERTEX
  8
0
 10
0.0000
 20
0.0000
 30
0.0000
 42
0.4142
  0
VERTEX
  8
0
 10
0.0000
 20
0.0000
 30
0.0000
  0
VERTEX
  8
0
 10
0.0000
 20
0.0000
 30
0.0000
 42
0.4142
  0
VERTEX
  8
0
 10
0.0000
 20
0.0000
 30
0.0000
  0
VERTEX
  8
0
 10
0.0000
 20
0.0000
 30
0.0000
 42
0.4142
  0
VERTEX
  8
0
 10
0.0000
 20
0.0000
 30
0.0000
  0
VERTEX
  8
0
 10
0.0000
 20
0.0000
 30
0.0000
 42
0.4142
  0
SEQEND
  8
0
  0
SOLID
  8
0
 10
0.0000
 20
0.0000
 30
0.0000
 11
0.0000
 21
0.0000
 31
0.0000
 12
0.0000
 22
0.0000
 32
0.0000
 13
0.0000
 23
0.0000
 33
0.0000
  0
ENDBLK
  8
0
  0
ENDSEC
  0
SECTION
  2
ENTITIES
  0
LINE
  8
20
 10
3.1750
 20
30.0000
 30
0.0000
 11
65.7750
 21
30.0000
 31
0.0000
  0
LINE
  8
20
 10
3.1750
 20
0.0000
 30
0.0000
 11
65.7750
 21
0.0000
 31
0.0000
  0
LINE
  8
20
 10
65.7750
 20
0.0000
 30
0.0000
 11
65.7750
 21
5.0500
 31
0.0000
  0
LINE
  8
20
 10
65.7750
 20
5.0500
 30
0.0000
 11
74.1750
 21
5.0500
 31
0.0000
  0
LINE
  8
20
 10
74.1750
 20
5.0500
 30
0.0000
 11
74.1750
 21
16.2500
 31
0.0000
  0
LINE
  8
20
 10
74.1750
 20
16.2500
 30
0.0000
 11
65.7750
 21
16.2500
 31
0.0000
  0
LINE
  8
20
 10
65.7750
 20
16.2500
 30
0.0000
 11
65.7750
 21
18.1500
 31
0.0000
  0
LINE
  8
20
 10
65.7750
 20
18.1500
 30
0.0000
 11
74.1750
 21
18.1500
 31
0.0000
  0
LINE
  8
20
 10
74.1750
 20
18.1500
 30
0.0000
 11
74.1750
 21
25.3500
 31
0.0000
  0
LINE
  8
20
 10
74.1750
 20
25.3500
 30
0.0000
 11
65.7750
 21
25.3500
 31
0.0000
  0
LINE
  8
20
 10
65.7750
 20
25.3500
 30
0.0000
 11
65.7750
 21
30.0000
 31
0.0000
  0
LINE
  8
20
 10
3.1750
 20
30.0000
 30
0.0000
 11
3.1750
 21
20.0000
 31
0.0000
  0
LINE
  8
20
 10
3.1750
 20
20.0000
 30
0.0000
 11
0.0000
 21
20.0000
 31
0.0000
  0
LINE
  8
20
 10
0.0000
 20
20.0000
 30
0.0000
 11
0.0000
 21
10.0000
 31
0.0000
  0
LINE
  8
20
 10
0.0000
 20
10.0000
 30
0.0000
 11
3.1750
 21
10.0000
 31
0.0000
  0
LINE
  8
20
 10
3.1750
 20
10.0000
 30
0.0000
 11
3.1750
 21
0.0000
 31
0.0000
  0
INSERT
  8
32
  2
RECT
 10
45.9770
 20
17.6530
 30
0.0000
 41
1.6000
 42
1.8000
 43
1.0000
 50
180.0000
  0
INSERT
  8
32
  2
RECT
 10
43.1770
 20
17.6530
 30
0.0000
 41
1.6000
 42
1.8000
 43
1.0000
 50
180.0000
  0
INSERT
  8
32
  2
RECT
 10
60.3508
 20
11.8326
 30
0.0000
 41
1.6000
 42
1.8000
 43
1.0000
 50
0.0000
  0
INSERT
  8
32
  2
RECT
 10
63.1508
 20
11.8326
 30
0.0000
 41
1.6000
 42
1.8000
 43
1.0000
 50
0.0000
  0
INSERT
  8
32
  2
RECT
 10
51.8926
 20
5.7404
 30
0.0000
 41
1.6000
 42
1.8030
 43
1.0000
 50
0.0000
  0
INSERT
  8
32
  2
RECT
 10
54.7366
 20
5.7404
 30
0.0000
 41
1.6000
 42
1.8030
 43
1.0000
 50
0.0000
  0
INSERT
  8
32
  2
RECT
 10
54.7366
 20
3.3020
 30
0.0000
 41
1.6000
 42
1.8030
 43
1.0000
 50
180.0000
  0
INSERT
  8
32
  2
RECT
 10
51.8926
 20
3.3020
 30
0.0000
 41
1.6000
 42
1.8030
 43
1.0000
 50
180.0000
  0
INSERT
  8
32
  2
RECT
 10
21.3470
 20
7.5000
 30
0.0000
 41
1.6000
 42
1.8030
 43
1.0000
 50
180.0000
  0
INSERT
  8
32
  2
RECT
 10
18.5030
 20
7.5000
 30
0.0000
 41
1.6000
 42
1.8030
 43
1.0000
 50
180.0000
  0
INSERT
  8
32
  2
RECT
 10
21.3470
 20
12.5000
 30
0.0000
 41
1.6000
 42
1.8030
 43
1.0000
 50
180.0000
  0
INSERT
  8
32
  2
RECT
 10
18.5030
 20
12.5000
 30
0.0000
 41
1.6000
 42
1.8030
 43
1.0000
 50
180.0000
  0
INSERT
  8
32
  2
RECT
 10
21.3470
 20
17.5000
 30
0.0000
 41
1.6000
 42
1.8030
 43
1.0000
 50
180.0000
  0
INSERT
  8
32
  2
RECT
 10
18.5030
 20
17.5000
 30
0.0000
 41
1.6000
 42
1.8030
 43
1.0000
 50
180.0000
  0
INSERT
  8
32
  2
RECT
 10
21.3470
 20
22.5000
 30
0.0000
 41
1.6000
 42
1.8030
 43
1.0000
 50
180.0000
  0
INSERT
  8
32
  2
RECT
 10
18.5030
 20
22.5000
 30
0.0000
 41
1.6000
 42
1.8030
 43
1.0000
 50
180.0000
  0
INSERT
  8
32
  2
RECT
 10
31.5970
 20
7.5000
 30
0.0000
 41
1.6000
 42
1.8030
 43
1.0000
 50
180.0000
  0
INSERT
  8
32
  2
RECT
 10
28.7530
 20
7.5000
 30
0.0000
 41
1.6000
 42
1.8030
 43
1.0000
 50
180.0000
  0
INSERT
  8
32
  2
RECT
 10
31.5970
 20
12.5000
 30
0.0000
 41
1.6000
 42
1.8030
 43
1.0000
 50
180.0000
  0
INSERT
  8
32
  2
RECT
 10
28.7530
 20
12.5000
 30
0.0000
 41
1.6000
 42
1.8030
 43
1.0000
 50
180.0000
  0
INSERT
  8
32
  2
RECT
 10
31.5970
 20
17.5000
 30
0.0000
 41
1.6000
 42
1.8030
 43
1.0000
 50
180.0000
  0
INSERT
  8
32
  2
RECT
 10
28.7530
 20
17.5000
 30
0.0000
 41
1.6000
 42
1.8030
 43
1.0000
 50
180.0000
  0
INSERT
  8
32
  2
RECT
 10
31.5970
 20
22.5000
 30
0.0000
 41
1.6000
 42
1.8030
 43
1.0000
 50
180.0000
  0
INSERT
  8
32
  2
RECT
 10
28.7530
 20
22.5000
 30
0.0000
 41
1.6000
 42
1.8030
 43
1.0000
 50
180.0000
  0
INSERT
  8
32
  2
RECT
 10
47.7130
 20
22.8600
 30
0.0000
 41
1.0000
 42
1.1000
 43
1.0000
 50
180.0000
  0
INSERT
  8
32
  2
RECT
 10
46.0130
 20
22.8600
 30
0.0000
 41
1.0000
 42
1.1000
 43
1.0000
 50
180.0000
  0
INSERT
  8
32
  2
RECT
 10
47.7130
 20
26.9240
 30
0.0000
 41
1.0000
 42
1.1000
 43
1.0000
 50
180.0000
  0
INSERT
  8
32
  2
RECT
 10
46.0130
 20
26.9240
 30
0.0000
 41
1.0000
 42
1.1000
 43
1.0000
 50
180.0000
  0
INSERT
  8
32
  2
RECT
 10
26.0250
 20
6.5500
 30
0.0000
 41
1.0000
 42
1.4000
 43
1.0000
 50
270.0000
  0
INSERT
  8
32
  2
RECT
 10
23.8250
 20
7.5000
 30
0.0000
 41
1.0000
 42
1.4000
 43
1.0000
 50
270.0000
  0
INSERT
  8
32
  2
RECT
 10
26.0250
 20
8.4500
 30
0.0000
 41
1.0000
 42
1.4000
 43
1.0000
 50
270.0000
  0
INSERT
  8
32
  2
RECT
 10
26.0250
 20
11.5500
 30
0.0000
 41
1.0000
 42
1.4000
 43
1.0000
 50
270.0000
  0
INSERT
  8
32
  2
RECT
 10
23.8250
 20
12.5000
 30
0.0000
 41
1.0000
 42
1.4000
 43
1.0000
 50
270.0000
  0
INSERT
  8
32
  2
RECT
 10
26.0250
 20
13.4500
 30
0.0000
 41
1.0000
 42
1.4000
 43
1.0000
 50
270.0000
  0
INSERT
  8
32
  2
RECT
 10
26.0250
 20
16.5500
 30
0.0000
 41
1.0000
 42
1.4000
 43
1.0000
 50
270.0000
  0
INSERT
  8
32
  2
RECT
 10
23.8250
 20
17.5000
 30
0.0000
 41
1.0000
 42
1.4000
 43
1.0000
 50
270.0000
  0
INSERT
  8
32
  2
RECT
 10
26.0250
 20
18.4500
 30
0.0000
 41
1.0000
 42
1.4000
 43
1.0000
 50
270.0000
  0
INSERT
  8
32
  2
RECT
 10
26.0250
 20
21.5500
 30
0.0000
 41
1.0000
 42
1.4000
 43
1.0000
 50
270.0000
  0
INSERT
  8
32
  2
RECT
 10
23.8250
 20
22.5000
 30
0.0000
 41
1.0000
 42
1.4000
 43
1.0000
 50
270.0000
  0
INSERT
  8
32
  2
RECT
 10
26.0250
 20
23.4500
 30
0.0000
 41
1.0000
 42
1.4000
 43
1.0000
 50
270.0000
  0
INSERT
  8
32
  2
RECT
 10
37.0250
 20
6.5500
 30
0.0000
 41
1.0000
 42
1.4000
 43
1.0000
 50
270.0000
  0
INSERT
  8
32
  2
RECT
 10
34.8250
 20
7.5000
 30
0.0000
 41
1.0000
 42
1.4000
 43
1.0000
 50
270.0000
  0
INSERT
  8
32
  2
RECT
 10
37.0250
 20
8.4500
 30
0.0000
 41
1.0000
 42
1.4000
 43
1.0000
 50
270.0000
  0
INSERT
  8
32
  2
RECT
 10
37.0250
 20
11.5500
 30
0.0000
 41
1.0000
 42
1.4000
 43
1.0000
 50
270.0000
  0
INSERT
  8
32
  2
RECT
 10
34.8250
 20
12.5000
 30
0.0000
 41
1.0000
 42
1.4000
 43
1.0000
 50
270.0000
  0
INSERT
  8
32
  2
RECT
 10
37.0250
 20
13.4500
 30
0.0000
 41
1.0000
 42
1.4000
 43
1.0000
 50
270.0000
  0
INSERT
  8
32
  2
RECT
 10
37.0250
 20
16.5500
 30
0.0000
 41
1.0000
 42
1.4000
 43
1.0000
 50
270.0000
  0
INSERT
  8
32
  2
RECT
 10
34.8250
 20
17.5000
 30
0.0000
 41
1.0000
 42
1.4000
 43
1.0000
 50
270.0000
  0
INSERT
  8
32
  2
RECT
 10
37.0250
 20
18.4500
 30
0.0000
 41
1.0000
 42
1.4000
 43
1.0000
 50
270.0000
  0
INSERT
  8
32
  2
RECT
 10
37.0250
 20
21.5500
 30
0.0000
 41
1.0000
 42
1.4000
 43
1.0000
 50
270.0000
  0
INSERT
  8
32
  2
RECT
 10
34.8250
 20
22.5000
 30
0.0000
 41
1.0000
 42
1.4000
 43
1.0000
 50
270.0000
  0
INSERT
  8
32
  2
RECT
 10
37.0250
 20
23.4500
 30
0.0000
 41
1.0000
 42
1.4000
 43
1.0000
 50
270.0000
  0
INSERT
  8
32
  2
RECT
 10
47.4389
 20
12.3638
 30
0.0000
 41
1.7455
 42
0.3769
 43
1.0000
 50
180.0000
  0
INSERT
  8
32
  2
RECT
 10
47.4389
 20
11.0938
 30
0.0000
 41
1.7455
 42
0.3769
 43
1.0000
 50
180.0000
  0
INSERT
  8
32
  2
RECT
 10
47.4389
 20
9.8238
 30
0.0000
 41
1.7455
 42
0.3769
 43
1.0000
 50
180.0000
  0
INSERT
  8
32
  2
RECT
 10
47.4389
 20
8.5538
 30
0.0000
 41
1.7455
 42
0.3769
 43
1.0000
 50
180.0000
  0
INSERT
  8
32
  2
RECT
 10
47.4389
 20
7.2838
 30
0.0000
 41
1.7455
 42
0.3769
 43
1.0000
 50
180.0000
  0
INSERT
  8
32
  2
RECT
 10
47.4389
 20
6.0138
 30
0.0000
 41
1.7455
 42
0.3769
 43
1.0000
 50
180.0000
  0
INSERT
  8
32
  2
RECT
 10
47.4389
 20
4.7438
 30
0.0000
 41
1.7455
 42
0.3769
 43
1.0000
 50
180.0000
  0
INSERT
  8
32
  2
RECT
 10
42.2691
 20
4.7438
 30
0.0000
 41
1.7455
 42
0.3769
 43
1.0000
 50
180.0000
  0
INSERT
  8
32
  2
RECT
 10
42.2691
 20
6.0138
 30
0.0000
 41
1.7455
 42
0.3769
 43
1.0000
 50
180.0000
  0
INSERT
  8
32
  2
RECT
 10
42.2691
 20
7.2838
 30
0.0000
 41
1.7455
 42
0.3769
 43
1.0000
 50
180.0000
  0
INSERT
  8
32
  2
RECT
 10
42.2691
 20
8.5538
 30
0.0000
 41
1.7455
 42
0.3769
 43
1.0000
 50
180.0000
  0
INSERT
  8
32
  2
RECT
 10
42.2691
 20
9.8238
 30
0.0000
 41
1.7455
 42
0.3769
 43
1.0000
 50
180.0000
  0
INSERT
  8
32
  2
RECT
 10
42.2691
 20
11.0938
 30
0.0000
 41
1.7455
 42
0.3769
 43
1.0000
 50
180.0000
  0
INSERT
  8
32
  2
RECT
 10
42.2691
 20
12.3638
 30
0.0000
 41
1.7455
 42
0.3769
 43
1.0000
 50
180.0000
  0
INSERT
  8
32
  2
RECT
 10
57.5332
 20
11.9349
 30
0.0000
 41
1.5966
 42
0.6019
 43
1.0000
 50
90.0000
  0
INSERT
  8
32
  2
RECT
 10
56.2632
 20
11.9349
 30
0.0000
 41
1.5966
 42
0.6019
 43
1.0000
 50
90.0000
  0
INSERT
  8
32
  2
RECT
 10
54.9932
 20
11.9349
 30
0.0000
 41
1.5966
 42
0.6019
 43
1.0000
 50
90.0000
  0
INSERT
  8
32
  2
RECT
 10
53.7232
 20
11.9349
 30
0.0000
 41
1.5966
 42
0.6019
 43
1.0000
 50
90.0000
  0
INSERT
  8
32
  2
RECT
 10
53.7232
 20
17.2535
 30
0.0000
 41
1.5966
 42
0.6019
 43
1.0000
 50
90.0000
  0
INSERT
  8
32
  2
RECT
 10
54.9932
 20
17.2535
 30
0.0000
 41
1.5966
 42
0.6019
 43
1.0000
 50
90.0000
  0
INSERT
  8
32
  2
RECT
 10
56.2632
 20
17.2535
 30
0.0000
 41
1.5966
 42
0.6019
 43
1.0000
 50
90.0000
  0
INSERT
  8
32
  2
RECT
 10
57.5332
 20
17.2535
 30
0.0000
 41
1.5966
 42
0.6019
 43
1.0000
 50
90.0000
  0
ENDSEC
  0
EOF
