0
SECTION
2
HEADER
9
$INSUNITS
70
4
9
$ACADVER
1
AC1014
9
$HANDSEED
5
FFFF
0
ENDSEC
0
SECTION
2
TABLES
0
TABLE
2
VPORT
5
8
100
AcDbSymbolTable
0
ENDTAB
0
TABLE
2
LTYPE
5
5
100
AcDbSymbolTable
0
LTYPE
5
14
100
AcDbSymbolTableRecord
100
AcDbLinetypeTableRecord
2
BYBLOCK
70
0
0
LTYPE
5
15
100
AcDbSymbolTableRecord
100
AcDbLinetypeTableRecord
2
BYLAYER
70
0
0
ENDTAB
0
TABLE
2
LAYER
5
2
100
AcDbSymbolTable
70
2
0
LAYER
5
50
100
AcDbSymbolTableRecord
100
AcDbLayerTableRecord
2
0
70
0
6
CONTINUOUS
0
ENDTAB
0
TABLE
2
STYLE
5
3
100
AcDbSymbolTable
70
1
0
STYLE
5
11
100
AcDbSymbolTableRecord
100
AcDbTextStyleTableRecord
2
STANDARD
70
0
0
ENDTAB
0
TABLE
2
VIEW
5
6
100
AcDbSymbolTable
70
0
0
ENDTAB
0
TABLE
2
UCS
5
7
100
AcDbSymbolTable
70
0
0
ENDTAB
0
TABLE
2
APPID
5
9
100
AcDbSymbolTable
70
2
0
APPID
5
12
100
AcDbSymbolTableRecord
100
AcDbRegAppTableRecord
2
ACAD
70
0
0
ENDTAB
0
TABLE
2
DIMSTYLE
5
A
100
AcDbSymbolTable
70
1
0
ENDTAB
0
TABLE
2
BLOCK_RECORD
5
1
100
AcDbSymbolTable
70
1
0
BLOCK_RECORD
5
1F
100
AcDbSymbolTableRecord
100
AcDbBlockTableRecord
2
*MODEL_SPACE
0
BLOCK_RECORD
5
1B
100
AcDbSymbolTableRecord
100
AcDbBlockTableRecord
2
*PAPER_SPACE
0
ENDTAB
0
ENDSEC
0
SECTION
2
BLOCKS
0
BLOCK
5
20
100
AcDbEntity
100
AcDbBlockBegin
2
*MODEL_SPACE
0
ENDBLK
5
21
100
AcDbEntity
100
AcDbBlockEnd
0
BLOCK
5
1C
100
AcDbEntity
100
AcDbBlockBegin
2
*PAPER_SPACE
0
ENDBLK
5
1D
100
AcDbEntity
100
AcDbBlockEnd
0
ENDSEC
0
SECTION
2
ENTITIES
0
LWPOLYLINE
5
100
100
AcDbEntity
8
0
100
AcDbPolyline
90
4
70
1
43
0.0
10
-37.116721871863739
20
-19.596262259481176
10
-35.529221871863733
20
-22.345892916496769
10
-22.598973299511556
20
-14.88061042255924
10
-24.186473299511565
20
-12.130979765543639
0
LWPOLYLINE
5
101
100
AcDbEntity
8
0
100
AcDbPolyline
90
4
70
1
43
0.0
10
42.477515992447877
20
9.9999999999975575
10
45.652515992447888
20
9.9999999999975628
10
45.652515992447888
20
27.566381540779656
10
42.477515992447877
20
27.566381540779645
0
LWPOLYLINE
5
102
100
AcDbEntity
8
0
100
AcDbPolyline
90
4
70
1
43
0.0
10
32.876257996223984
20
1.587499999997557
10
32.876257996223984
20
-1.5875000000024431
10
42.477515992447877
20
-1.587500000002442
10
42.477515992447877
20
1.587499999997557
0
LWPOLYLINE
5
103
100
AcDbEntity
8
0
100
AcDbPolyline
90
4
70
1
43
0.0
10
-1.5831841816040497
20
-25.628600000001409
10
-1.5831841816040497
20
-41.250720234150918
10
1.5918158183959501
20
-41.250720234150918
10
1.5918158183959501
20
-25.628600000001409
0
LWPOLYLINE
5
104
100
AcDbEntity
8
0
100
AcDbPolyline
90
4
70
1
43
0.0
10
1.5918158183959501
20
41.25072023414603
10
-1.5831841816040497
20
41.25072023414603
10
-1.5831841816040497
20
25.628599999996531
10
1.5918158183959501
20
25.628599999996531
0
LWPOLYLINE
5
105
100
AcDbEntity
8
0
100
AcDbPolyline
90
4
70
1
43
0.0
10
-22.598973299511556
20
14.880610422554357
10
-35.529221871863733
20
22.345892916491895
10
-37.116721871863739
20
19.596262259476291
10
-24.186473299511565
20
12.130979765538758
0
LWPOLYLINE
5
106
100
AcDbEntity
8
0
100
AcDbPolyline
90
4
70
1
43
0.0
10
42.477515992447877
20
-10.000000000002441
10
42.477515992447877
20
-27.566381540784519
10
45.652515992447888
20
-27.566381540784526
10
45.652515992447888
20
-10.000000000002442
0
CIRCLE
5
107
100
AcDbEntity
8
0
100
AcDbCircle
10
19.383000000003644
20
-33.572340803107885
30
0
40
4.9999999850988441
0
CIRCLE
5
108
100
AcDbEntity
8
0
100
AcDbCircle
10
19.383000000000006
20
33.572340803105114
30
0
40
4.9999999850988441
0
CIRCLE
5
109
100
AcDbEntity
8
0
100
AcDbCircle
10
-38.765999999996346
20
-4.5386024673882936e-12
30
0
40
4.9999999850988424
0
CIRCLE
5
110
100
AcDbEntity
8
0
100
AcDbCircle
10
-19.382999999999992
20
33.572340803105121
30
0
40
4.9999999850988441
0
CIRCLE
5
111
100
AcDbEntity
8
0
100
AcDbCircle
10
-8.7500000000000036
20
15.155444566225233
30
0
40
2.6000000000000001
0
CIRCLE
5
112
100
AcDbEntity
8
0
100
AcDbCircle
10
17.500000000000004
20
-2.4428025738275316e-12
30
0
40
2.6000000000000005
0
CIRCLE
5
113
100
AcDbEntity
8
0
100
AcDbCircle
10
2.0816681711846249e-16
20
-2.4400069478042693e-12
30
0
40
12.000000014901165
0
CIRCLE
5
114
100
AcDbEntity
8
0
100
AcDbCircle
10
-8.75
20
-15.155444566230116
30
0
40
2.6000000000000001
0
CIRCLE
5
115
100
AcDbEntity
8
0
100
AcDbCircle
10
2.0816681711846249e-16
20
-2.4400069478042693e-12
30
0
40
56.89487195772017
0
CIRCLE
5
116
100
AcDbEntity
8
0
100
AcDbCircle
10
-2.7149631196411546e-28
20
-2.4407757772488218e-12
30
0
40
32.766000000000005
0
CIRCLE
5
117
100
AcDbEntity
8
0
100
AcDbCircle
10
-2.7149631196411546e-28
20
-2.4407757772488218e-12
30
0
40
26.161999999999995
0
LINE
5
118
100
AcDbEntity
8
0
100
AcDbLine
10
-2.7149631196411546e-28
20
-2.4407757772488218e-12
30
0
11
-56.894871957720298
21
-1.3644023706282429e-12
31
0
0
LINE
5
119
100
AcDbEntity
8
0
100
AcDbLine
10
6.317192559769027e-13
20
-2.3576083594254112e-12
30
0
11
-54.956226207371365
21
-14.725476431328669
31
0
0
LINE
5
120
100
AcDbEntity
8
0
100
AcDbLine
10
1.2203878886244105e-12
20
-2.1137738280391884e-12
30
0
11
-49.272404460447973
21
-28.447435978861325
31
0
0
LINE
5
121
100
AcDbEntity
8
0
100
AcDbLine
10
1.7258891034485082e-12
20
-1.7258891034485084e-12
30
0
11
-40.230749776043389
21
-40.230749776045336
31
0
0
LINE
5
122
100
AcDbEntity
8
0
100
AcDbLine
10
2.1137738280391876e-12
20
-1.2203878886244115e-12
30
0
11
-28.447435978858969
21
-49.272404460449337
31
0
0
LINE
5
123
100
AcDbEntity
8
0
100
AcDbLine
10
2.3576083594254112e-12
20
-6.3171925597690371e-13
30
0
11
-14.725476431326046
21
-54.956226207372076
31
0
0
LINE
5
124
100
AcDbEntity
8
0
100
AcDbLine
10
2.4407757772488226e-12
20
2.7046478120568539e-28
30
0
11
1.3770355699943555e-12
21
-56.894871957720305
31
0
0
LINE
5
125
100
AcDbEntity
8
0
100
AcDbLine
10
2.3576083594254112e-12
20
6.317192559769027e-13
30
0
11
14.725476431328669
21
-54.956226207371365
31
0
0
LINE
5
126
100
AcDbEntity
8
0
100
AcDbLine
10
2.1137738280391888e-12
20
1.2203878886244103e-12
30
0
11
28.447435978861314
21
-49.27240446044798
31
0
0
LINE
5
127
100
AcDbEntity
8
0
100
AcDbLine
10
1.725889103448509e-12
20
1.7258891034485078e-12
30
0
11
40.230749776045329
21
-40.230749776043396
31
0
0
LINE
5
128
100
AcDbEntity
8
0
100
AcDbLine
10
1.2203878886244121e-12
20
2.1137738280391872e-12
30
0
11
49.272404460449323
21
-28.447435978858984
31
0
0
LINE
5
129
100
AcDbEntity
8
0
100
AcDbLine
10
6.3171925597690401e-13
20
2.3576083594254112e-12
30
0
11
54.956226207372069
21
-14.725476431326047
31
0
0
LINE
5
130
100
AcDbEntity
8
0
100
AcDbLine
10
5.7040513626853169e-28
20
2.4407757772488218e-12
30
0
11
56.894871957720298
21
1.3574347583451511e-12
31
0
0
LINE
5
131
100
AcDbEntity
8
0
100
AcDbLine
10
-6.3171925597690179e-13
20
2.357608359425412e-12
30
0
11
54.95622620737138
21
14.725476431328648
31
0
0
LINE
5
132
100
AcDbEntity
8
0
100
AcDbLine
10
-1.2203878886244103e-12
20
2.1137738280391888e-12
30
0
11
49.27240446044798
21
28.447435978861314
31
0
0
LINE
5
133
100
AcDbEntity
8
0
100
AcDbLine
10
-1.725889103448507e-12
20
1.7258891034485094e-12
30
0
11
40.230749776043417
21
40.230749776045307
31
0
0
LINE
5
134
100
AcDbEntity
8
0
100
AcDbLine
10
-2.1137738280391872e-12
20
1.2203878886244117e-12
30
0
11
28.44743597885898
21
49.272404460449323
31
0
0
LINE
5
135
100
AcDbEntity
8
0
100
AcDbLine
10
-2.3576083594254108e-12
20
6.3171925597690482e-13
30
0
11
14.72547643132607
21
54.956226207372055
31
0
0
LINE
5
136
100
AcDbEntity
8
0
100
AcDbLine
10
-2.4407757772488218e-12
20
8.1345740513391631e-28
30
0
11
-1.3517691712621307e-12
21
56.894871957720298
31
0
0
LINE
5
137
100
AcDbEntity
8
0
100
AcDbLine
10
-2.3576083594254116e-12
20
-6.3171925597690129e-13
30
0
11
-14.725476431328639
21
54.956226207371373
31
0
0
LINE
5
138
100
AcDbEntity
8
0
100
AcDbLine
10
-2.1137738280391896e-12
20
-1.2203878886244093e-12
30
0
11
-28.447435978861289
21
49.272404460447994
31
0
0
LINE
5
139
100
AcDbEntity
8
0
100
AcDbLine
10
-1.725889103448509e-12
20
-1.7258891034485076e-12
30
0
11
-40.230749776045315
21
40.230749776043396
31
0
0
LINE
5
140
100
AcDbEntity
8
0
100
AcDbLine
10
-1.2203878886244123e-12
20
-2.1137738280391872e-12
30
0
11
-49.272404460449323
21
28.447435978858991
31
0
0
LINE
5
141
100
AcDbEntity
8
0
100
AcDbLine
10
-6.3171925597690512e-13
20
-2.3576083594254108e-12
30
0
11
-54.956226207372055
21
14.725476431326076
31
0
0
ENDSEC
0
SECTION
2
OBJECTS
0
DICTIONARY
5
C
100
AcDbDictionary
3
ACAD_GROUP
350
D
3
ACAD_MLINESTYLE
350
17
0
DICTIONARY
5
D
100
AcDbDictionary
0
DICTIONARY
5
1A
330
C
100
AcDbDictionary
0
DICTIONARY
5
17
100
AcDbDictionary
0
ENDSEC
0
EOF
