<?xml version="1.0" encoding="UTF-8" standalone="no"?>
<!-- Created with Inkscape (http://www.inkscape.org/) -->

<svg
   xmlns:dc="http://purl.org/dc/elements/1.1/"
   xmlns:cc="http://creativecommons.org/ns#"
   xmlns:rdf="http://www.w3.org/1999/02/22-rdf-syntax-ns#"
   xmlns:svg="http://www.w3.org/2000/svg"
   xmlns="http://www.w3.org/2000/svg"
   xmlns:sodipodi="http://sodipodi.sourceforge.net/DTD/sodipodi-0.dtd"
   xmlns:inkscape="http://www.inkscape.org/namespaces/inkscape"
   width="6in"
   height="6in"
   viewBox="0 0 152.4 152.4"
   version="1.1"
   id="svg3017"
   inkscape:version="0.92.3 (2405546, 2018-03-11)"
   sodipodi:docname="wood_floor.svg">
  <defs
     id="defs3011" />
  <sodipodi:namedview
     id="base"
     pagecolor="#ffffff"
     bordercolor="#666666"
     borderopacity="1.0"
     inkscape:pageopacity="0.0"
     inkscape:pageshadow="2"
     inkscape:zoom="1.4756944"
     inkscape:cx="288"
     inkscape:cy="288"
     inkscape:document-units="mm"
     inkscape:current-layer="layer1"
     showgrid="false"
     units="in"
     inkscape:window-width="1920"
     inkscape:window-height="1017"
     inkscape:window-x="-8"
     inkscape:window-y="-8"
     inkscape:window-maximized="1" />
  <metadata
     id="metadata3014">
    <rdf:RDF>
      <cc:Work
         rdf:about="">
        <dc:format>image/svg+xml</dc:format>
        <dc:type
           rdf:resource="http://purl.org/dc/dcmitype/StillImage" />
        <dc:title></dc:title>
      </cc:Work>
    </rdf:RDF>
  </metadata>
  <g
     inkscape:label="Layer 1"
     inkscape:groupmode="layer"
     id="layer1"
     transform="translate(0,-144.59998)">
    <g
       transform="translate(-150.18955,1.14912)"
       id="g6165"
       style="stroke-width:0.001;stroke-miterlimit:4;stroke-dasharray:none">
      <path
         id="path1646"
         style="fill:none;stroke:#000000;stroke-width:0.001;stroke-miterlimit:4;stroke-dasharray:none"
         d="m 270.57126,177.71421 5.74887,-5.74887 -2.24507,-2.24506 -5.74887,5.74887 z"
         inkscape:connector-curvature="0" />
      <path
         id="path1648"
         style="fill:none;stroke:#000000;stroke-width:0.001;stroke-miterlimit:4;stroke-dasharray:none"
         d="m 284.7986,236.945 7.8531,2.10423 0.82175,-3.06681 -7.8531,-2.10423 z"
         inkscape:connector-curvature="0" />
      <path
         id="path1650"
         style="fill:none;stroke:#000000;stroke-width:0.001;stroke-miterlimit:4;stroke-dasharray:none"
         d="m 240.6169,278.88165 2.10423,7.85312 3.06681,-0.82177 -2.10423,-7.8531 z"
         inkscape:connector-curvature="0" />
      <path
         id="path1652"
         style="fill:none;stroke:#000000;stroke-width:0.001;stroke-miterlimit:4;stroke-dasharray:none"
         d="m 182.20784,261.5875 -5.74887,5.74887 2.24507,2.24507 5.74887,-5.74887 z"
         inkscape:connector-curvature="0" />
      <path
         id="path1654"
         style="fill:none;stroke:#000000;stroke-width:0.001;stroke-miterlimit:4;stroke-dasharray:none"
         d="m 167.9805,202.35669 -7.8531,-2.10423 -0.82175,3.06681 7.8531,2.10423 z"
         inkscape:connector-curvature="0" />
      <path
         id="path1656"
         style="fill:none;stroke:#000000;stroke-width:0.001;stroke-miterlimit:4;stroke-dasharray:none"
         d="m 212.1622,160.42005 -2.10423,-7.8531 -3.06681,0.82175 2.10423,7.8531 z"
         inkscape:connector-curvature="0" />
      <path
         id="path1658"
         style="fill:none;stroke:#000000;stroke-width:0.001;stroke-miterlimit:4;stroke-dasharray:none"
         d="m 197.31693,166.1206 -4.06506,-7.0409 -2.74964,1.5875 4.06507,7.0409 z"
         inkscape:connector-curvature="0" />
      <path
         id="path1660"
         style="fill:none;stroke:#000000;stroke-width:0.001;stroke-miterlimit:4;stroke-dasharray:none"
         d="m 157.36455,221.23836 h 8.13013 v -3.175 h -8.13013 z"
         inkscape:connector-curvature="0" />
      <path
         id="path1662"
         style="fill:none;stroke:#000000;stroke-width:0.001;stroke-miterlimit:4;stroke-dasharray:none"
         d="m 194.5673,271.59362 -4.06507,7.04088 2.74964,1.5875 4.06506,-7.04088 z"
         inkscape:connector-curvature="0" />
      <path
         id="path1664"
         style="fill:none;stroke:#000000;stroke-width:0.001;stroke-miterlimit:4;stroke-dasharray:none"
         d="m 255.46217,273.18112 4.06506,7.04088 2.74964,-1.5875 -4.06507,-7.04088 z"
         inkscape:connector-curvature="0" />
      <path
         id="path1666"
         style="fill:none;stroke:#000000;stroke-width:0.001;stroke-miterlimit:4;stroke-dasharray:none"
         d="m 287.28442,221.23836 h 8.13013 v -3.175 h -8.13013 z"
         inkscape:connector-curvature="0" />
      <path
         id="path1668"
         style="fill:none;stroke:#000000;stroke-width:0.001;stroke-miterlimit:4;stroke-dasharray:none"
         d="m 258.2118,167.7081 4.06507,-7.0409 -2.74964,-1.5875 -4.06506,7.0409 z"
         inkscape:connector-curvature="0" />
      <path
         id="path1670"
         style="fill:none;stroke:#000000;stroke-width:0.001;stroke-miterlimit:4;stroke-dasharray:none"
         d="m 279.91981,190.57823 7.04089,-4.06506 -1.5875,-2.74963 -7.04089,4.06506 z"
         inkscape:connector-curvature="0" />
      <path
         id="path1672"
         style="fill:none;stroke:#000000;stroke-width:0.001;stroke-miterlimit:4;stroke-dasharray:none"
         d="m 278.33231,251.47312 7.04089,4.06505 1.5875,-2.74963 -7.04089,-4.06505 z"
         inkscape:connector-curvature="0" />
      <path
         id="path1674"
         style="fill:none;stroke:#000000;stroke-width:0.001;stroke-miterlimit:4;stroke-dasharray:none"
         d="m 224.80205,280.54572 v 8.13014 h 3.175 v -8.13014 z"
         inkscape:connector-curvature="0" />
      <path
         id="path1676"
         style="fill:none;stroke:#000000;stroke-width:0.001;stroke-miterlimit:4;stroke-dasharray:none"
         d="m 172.85929,248.72349 -7.04089,4.06505 1.5875,2.74963 7.04089,-4.06505 z"
         inkscape:connector-curvature="0" />
      <path
         id="path1678"
         style="fill:none;stroke:#000000;stroke-width:0.001;stroke-miterlimit:4;stroke-dasharray:none"
         d="m 174.44679,187.8286 -7.04089,-4.06506 -1.5875,2.74963 7.04089,4.06506 z"
         inkscape:connector-curvature="0" />
      <path
         id="path1680"
         style="fill:none;stroke:#000000;stroke-width:0.001;stroke-miterlimit:4;stroke-dasharray:none"
         d="m 227.97705,158.75598 v -8.13013 h -3.175 v 8.13013 z"
         inkscape:connector-curvature="0" />
      <path
         id="path1682"
         style="fill:none;stroke:#000000;stroke-width:0.001;stroke-miterlimit:4;stroke-dasharray:none"
         d="m 184.45291,175.46915 -5.74887,-5.74887 -2.24507,2.24506 5.74887,5.74887 z"
         inkscape:connector-curvature="0" />
      <path
         id="path1684"
         style="fill:none;stroke:#000000;stroke-width:0.001;stroke-miterlimit:4;stroke-dasharray:none"
         d="m 167.15875,233.87819 -7.8531,2.10423 0.82175,3.06681 7.8531,-2.10423 z"
         inkscape:connector-curvature="0" />
      <path
         id="path1686"
         style="fill:none;stroke:#000000;stroke-width:0.001;stroke-miterlimit:4;stroke-dasharray:none"
         d="m 209.09539,278.0599 -2.10423,7.8531 3.06681,0.82177 2.10423,-7.85312 z"
         inkscape:connector-curvature="0" />
      <path
         id="path1688"
         style="fill:none;stroke:#000000;stroke-width:0.001;stroke-miterlimit:4;stroke-dasharray:none"
         d="m 268.32619,263.83257 5.74887,5.74887 2.24507,-2.24507 -5.74887,-5.74887 z"
         inkscape:connector-curvature="0" />
      <path
         id="path1690"
         style="fill:none;stroke:#000000;stroke-width:0.001;stroke-miterlimit:4;stroke-dasharray:none"
         d="m 285.62035,205.4235 7.8531,-2.10423 -0.82175,-3.06681 -7.8531,2.10423 z"
         inkscape:connector-curvature="0" />
      <path
         id="path1692"
         style="fill:none;stroke:#000000;stroke-width:0.001;stroke-miterlimit:4;stroke-dasharray:none"
         d="m 243.68371,161.2418 2.10423,-7.8531 -3.06681,-0.82175 -2.10423,7.8531 z"
         inkscape:connector-curvature="0" />
      <path
         id="path1694"
         style="fill:none;stroke:#000000;stroke-width:0.001;stroke-miterlimit:4;stroke-dasharray:none"
         d="m 233.73853,241.99016 a 1.778,1.778 0 1 0 -3.556,0 1.778,1.778 0 1 0 3.556,0 z"
         inkscape:connector-curvature="0" />
      <path
         id="path1696"
         style="fill:none;stroke:#000000;stroke-width:0.001;stroke-miterlimit:4;stroke-dasharray:none"
         d="m 222.59657,197.31156 a 1.778,1.778 0 1 0 -3.556,0 1.778,1.778 0 1 0 3.556,0 z"
         inkscape:connector-curvature="0" />
      <path
         id="path1698"
         style="fill:none;stroke:#000000;stroke-width:0.001;stroke-miterlimit:4;stroke-dasharray:none"
         d="m 205.82825,214.07125 a 1.778,1.778 0 1 0 -3.556,0 1.778,1.778 0 1 0 3.556,0 z"
         inkscape:connector-curvature="0" />
      <path
         id="path1700"
         style="fill:none;stroke:#000000;stroke-width:0.001;stroke-miterlimit:4;stroke-dasharray:none"
         d="m 250.50685,225.23047 a 1.778,1.778 0 1 0 -3.556,0 1.778,1.778 0 1 0 3.556,0 z"
         inkscape:connector-curvature="0" />
      <path
         id="path1702"
         style="fill:none;stroke:#000000;stroke-width:0.001;stroke-miterlimit:4;stroke-dasharray:none"
         d="m 222.58793,241.99016 a 1.778,1.778 0 1 0 -3.556,0 1.778,1.778 0 1 0 3.556,0 z"
         inkscape:connector-curvature="0" />
      <path
         id="path1704"
         style="fill:none;stroke:#000000;stroke-width:0.001;stroke-miterlimit:4;stroke-dasharray:none"
         d="m 233.74717,197.31156 a 1.778,1.778 0 1 0 -3.556,0 1.778,1.778 0 1 0 3.556,0 z"
         inkscape:connector-curvature="0" />
      <path
         id="path1706"
         style="fill:none;stroke:#000000;stroke-width:0.001;stroke-miterlimit:4;stroke-dasharray:none"
         d="m 205.82825,225.22185 a 1.778,1.778 0 1 0 -3.556,0 1.778,1.778 0 1 0 3.556,0 z"
         inkscape:connector-curvature="0" />
      <path
         id="path1708"
         style="fill:none;stroke:#000000;stroke-width:0.001;stroke-miterlimit:4;stroke-dasharray:none"
         d="m 250.50685,214.07987 a 1.778,1.778 0 1 0 -3.556,0 1.778,1.778 0 1 0 3.556,0 z"
         inkscape:connector-curvature="0" />
      <path
         id="path1710"
         style="fill:none;stroke:#000000;stroke-width:0.001;stroke-miterlimit:4;stroke-dasharray:none"
         d="m 243.08036,187.56653 2.74963,1.5875 7.05369,-12.21735 -2.74963,-1.5875 z"
         inkscape:connector-curvature="0" />
      <path
         id="path1712"
         style="fill:none;stroke:#000000;stroke-width:0.001;stroke-miterlimit:4;stroke-dasharray:none"
         d="m 206.94911,189.15403 2.74963,-1.5875 -7.05369,-12.21735 -2.74963,1.5875 z"
         inkscape:connector-curvature="0" />
      <path
         id="path1714"
         style="fill:none;stroke:#000000;stroke-width:0.001;stroke-miterlimit:4;stroke-dasharray:none"
         d="m 262.5208,218.06336 v 3.175 h 14.10737 v -3.175 z"
         inkscape:connector-curvature="0" />
      <path
         id="path1716"
         style="fill:none;stroke:#000000;stroke-width:0.001;stroke-miterlimit:4;stroke-dasharray:none"
         d="m 209.69874,251.73519 -2.74963,-1.5875 -7.05369,12.21734 2.74963,1.5875 z"
         inkscape:connector-curvature="0" />
      <path
         id="path1718"
         style="fill:none;stroke:#000000;stroke-width:0.001;stroke-miterlimit:4;stroke-dasharray:none"
         d="m 190.2583,221.23836 v -3.175 h -14.10737 v 3.175 z"
         inkscape:connector-curvature="0" />
      <path
         id="path1720"
         style="fill:none;stroke:#000000;stroke-width:0.001;stroke-miterlimit:4;stroke-dasharray:none"
         d="m 245.82999,250.14769 -2.74963,1.5875 7.05369,12.21734 2.74963,-1.5875 z"
         inkscape:connector-curvature="0" />
      <path
         id="path1722"
         style="fill:none;stroke:#000000;stroke-width:0.001;stroke-miterlimit:4;stroke-dasharray:none"
         d="m 281.37178,202.3406 a 5.000005,5.000005 0 1 0 -10.00001,0 5.000005,5.000005 0 1 0 10.00001,0 z"
         inkscape:connector-curvature="0" />
      <path
         id="path1724"
         style="fill:none;stroke:#000000;stroke-width:0.001;stroke-miterlimit:4;stroke-dasharray:none"
         d="m 271.37177,254.28161 a 5.0000005,5.0000005 0 1 0 -10,0 5.0000005,5.0000005 0 1 0 10,0 z"
         inkscape:connector-curvature="0" />
      <path
         id="path1726"
         style="fill:none;stroke:#000000;stroke-width:0.001;stroke-miterlimit:4;stroke-dasharray:none"
         d="m 221.38955,271.59185 a 5,5 0 1 0 -10,0 5,5 0 1 0 10,0 z"
         inkscape:connector-curvature="0" />
      <path
         id="path1728"
         style="fill:none;stroke:#000000;stroke-width:0.001;stroke-miterlimit:4;stroke-dasharray:none"
         d="m 208.72783,244.28161 a 5,5 0 1 0 -10,0 5,5 0 1 0 10,0 z"
         inkscape:connector-curvature="0" />
      <path
         id="path1730"
         style="fill:none;stroke:#000000;stroke-width:0.001;stroke-miterlimit:4;stroke-dasharray:none"
         d="m 191.40733,185.0201 a 5.0000005,5.0000005 0 1 0 -10,0 5.0000005,5.0000005 0 1 0 10,0 z"
         inkscape:connector-curvature="0" />
      <path
         id="path1732"
         style="fill:none;stroke:#000000;stroke-width:0.001;stroke-miterlimit:4;stroke-dasharray:none"
         d="m 221.38955,172.70985 a 5,5 0 1 0 -10,0 5,5 0 1 0 10,0 z"
         inkscape:connector-curvature="0" />
      <path
         id="path1734"
         style="fill:none;stroke:#000000;stroke-width:0.001;stroke-miterlimit:4;stroke-dasharray:none"
         d="m 241.38955,182.70986 a 5,5 0 1 0 -10,0 5,5 0 1 0 10,0 z"
         inkscape:connector-curvature="0" />
      <path
         id="path1736"
         style="fill:none;stroke:#000000;stroke-width:0.001;stroke-miterlimit:4;stroke-dasharray:none"
         d="m 185.73745,204.84062 a 5,5 0 1 0 -10,0 5,5 0 1 0 10,0 z"
         inkscape:connector-curvature="0" />
      <path
         id="path1738"
         style="fill:none;stroke:#000000;stroke-width:0.001;stroke-miterlimit:4;stroke-dasharray:none"
         d="m 181.40733,236.96109 a 5.000005,5.000005 0 1 0 -10.00001,0 5.000005,5.000005 0 1 0 10.00001,0 z"
         inkscape:connector-curvature="0" />
      <path
         id="path1740"
         style="fill:none;stroke:#000000;stroke-width:0.001;stroke-miterlimit:4;stroke-dasharray:none"
         d="m 241.38955,251.59186 a 5,5 0 1 0 -10,0 5,5 0 1 0 10,0 z"
         inkscape:connector-curvature="0" />
      <path
         id="path1742"
         style="fill:none;stroke:#000000;stroke-width:0.001;stroke-miterlimit:4;stroke-dasharray:none"
         d="m 277.04165,234.4611 a 5,5 0 1 0 -10,0 5,5 0 1 0 10,0 z"
         inkscape:connector-curvature="0" />
      <path
         id="path1744"
         style="fill:none;stroke:#000000;stroke-width:0.001;stroke-miterlimit:4;stroke-dasharray:none"
         d="m 267.04165,187.5201 a 5.0000005,5.0000005 0 1 0 -10,0 5.0000005,5.0000005 0 1 0 10,0 z"
         inkscape:connector-curvature="0" />
      <path
         id="path1746"
         style="fill:none;stroke:#000000;stroke-width:0.001;stroke-miterlimit:4;stroke-dasharray:none"
         d="m 268.38139,209.84061 a 5,5 0 1 0 -10,0 5,5 0 1 0 10,0 z"
         inkscape:connector-curvature="0" />
      <path
         id="path1748"
         style="fill:none;stroke:#000000;stroke-width:0.001;stroke-miterlimit:4;stroke-dasharray:none"
         d="m 258.38139,246.7816 a 5.0000003,5.0000003 0 1 0 -10,0 5.0000003,5.0000003 0 1 0 10,0 z"
         inkscape:connector-curvature="0" />
      <path
         id="path1750"
         style="fill:none;stroke:#000000;stroke-width:0.001;stroke-miterlimit:4;stroke-dasharray:none"
         d="m 221.38955,256.59185 a 5,5 0 1 0 -10,0 5,5 0 1 0 10,0 z"
         inkscape:connector-curvature="0" />
      <path
         id="path1752"
         style="fill:none;stroke:#000000;stroke-width:0.001;stroke-miterlimit:4;stroke-dasharray:none"
         d="m 194.39771,229.46111 a 5,5 0 1 0 -10,0 5,5 0 1 0 10,0 z"
         inkscape:connector-curvature="0" />
      <path
         id="path1754"
         style="fill:none;stroke:#000000;stroke-width:0.001;stroke-miterlimit:4;stroke-dasharray:none"
         d="m 204.39771,192.52011 a 5.0000003,5.0000003 0 1 0 -10,0 5.0000003,5.0000003 0 1 0 10,0 z"
         inkscape:connector-curvature="0" />
      <path
         id="path1756"
         style="fill:none;stroke:#000000;stroke-width:0.001;stroke-miterlimit:4;stroke-dasharray:none"
         d="m 241.38955,167.70985 a 5,5 0 1 0 -10,0 5,5 0 1 0 10,0 z"
         inkscape:connector-curvature="0" />
      <path
         id="path1758"
         style="fill:none;stroke:#000000;stroke-width:0.001;stroke-miterlimit:4;stroke-dasharray:none"
         d="m 221.38955,187.70986 a 5,5 0 1 0 -10,0 5,5 0 1 0 10,0 z"
         inkscape:connector-curvature="0" />
      <path
         id="path1760"
         style="fill:none;stroke:#000000;stroke-width:0.001;stroke-miterlimit:4;stroke-dasharray:none"
         d="m 198.72783,212.34061 a 5.0000005,5.0000005 0 1 0 -10,0 5.0000005,5.0000005 0 1 0 10,0 z"
         inkscape:connector-curvature="0" />
      <path
         id="path1762"
         style="fill:none;stroke:#000000;stroke-width:0.001;stroke-miterlimit:4;stroke-dasharray:none"
         d="m 195.73745,251.78162 a 5.0000005,5.0000005 0 1 0 -10,0 5.0000005,5.0000005 0 1 0 10,0 z"
         inkscape:connector-curvature="0" />
      <path
         id="path1764"
         style="fill:none;stroke:#000000;stroke-width:0.001;stroke-miterlimit:4;stroke-dasharray:none"
         d="m 241.38955,266.59186 a 5,5 0 1 0 -10,0 5,5 0 1 0 10,0 z"
         inkscape:connector-curvature="0" />
      <path
         id="path1766"
         style="fill:none;stroke:#000000;stroke-width:0.001;stroke-miterlimit:4;stroke-dasharray:none"
         d="m 264.05127,226.96111 a 5.0000005,5.0000005 0 1 0 -10,0 5.0000005,5.0000005 0 1 0 10,0 z"
         inkscape:connector-curvature="0" />
      <path
         id="path1768"
         style="fill:none;stroke:#000000;stroke-width:0.001;stroke-miterlimit:4;stroke-dasharray:none"
         d="m 254.05127,195.02011 a 5,5 0 1 0 -10,0 5,5 0 1 0 10,0 z"
         inkscape:connector-curvature="0" />
      <path
         id="path1770"
         style="fill:none;stroke:#000000;stroke-width:0.001;stroke-miterlimit:4;stroke-dasharray:none"
         d="m 238.53625,154.13649 a 1.0000001,1.0000001 0 1 0 -2,0 1.0000001,1.0000001 0 1 0 2,0 z"
         inkscape:connector-curvature="0" />
      <path
         id="path1772"
         style="fill:none;stroke:#000000;stroke-width:0.001;stroke-miterlimit:4;stroke-dasharray:none"
         d="m 204.2857,157.3404 a 1.0000001,1.0000001 0 1 0 -2,0 1.0000001,1.0000001 0 1 0 2,0 z"
         inkscape:connector-curvature="0" />
      <path
         id="path1774"
         style="fill:none;stroke:#000000;stroke-width:0.001;stroke-miterlimit:4;stroke-dasharray:none"
         d="m 176.2258,177.24035 a 1.0000006,1.0000006 0 1 0 -2,0 1.0000006,1.0000006 0 1 0 2,0 z"
         inkscape:connector-curvature="0" />
      <path
         id="path1776"
         style="fill:none;stroke:#000000;stroke-width:0.001;stroke-miterlimit:4;stroke-dasharray:none"
         d="m 161.87519,208.50415 a 1.0000001,1.0000001 0 1 0 -2,0 1.0000001,1.0000001 0 1 0 2,0 z"
         inkscape:connector-curvature="0" />
      <path
         id="path1778"
         style="fill:none;stroke:#000000;stroke-width:0.001;stroke-miterlimit:4;stroke-dasharray:none"
         d="m 165.0791,242.7547 a 1.0000006,1.0000006 0 1 0 -2,0 1.0000006,1.0000006 0 1 0 2,0 z"
         inkscape:connector-curvature="0" />
      <path
         id="path1780"
         style="fill:none;stroke:#000000;stroke-width:0.001;stroke-miterlimit:4;stroke-dasharray:none"
         d="m 184.97904,270.81461 a 1.0000006,1.0000006 0 1 0 -2,0 1.0000006,1.0000006 0 1 0 2,0 z"
         inkscape:connector-curvature="0" />
      <path
         id="path1782"
         style="fill:none;stroke:#000000;stroke-width:0.001;stroke-miterlimit:4;stroke-dasharray:none"
         d="m 216.24285,285.16521 a 1.0000001,1.0000001 0 1 0 -2,0 1.0000001,1.0000001 0 1 0 2,0 z"
         inkscape:connector-curvature="0" />
      <path
         id="path1784"
         style="fill:none;stroke:#000000;stroke-width:0.001;stroke-miterlimit:4;stroke-dasharray:none"
         d="m 255.1128,280.0479 a 1.0000006,1.0000006 0 1 0 -2,0 1.0000006,1.0000006 0 1 0 2,0 z"
         inkscape:connector-curvature="0" />
      <path
         id="path1786"
         style="fill:none;stroke:#000000;stroke-width:0.001;stroke-miterlimit:4;stroke-dasharray:none"
         d="m 281.59711,258.0946 a 1.0000001,1.0000001 0 1 0 -2,0 1.0000001,1.0000001 0 1 0 2,0 z"
         inkscape:connector-curvature="0" />
      <path
         id="path1788"
         style="fill:none;stroke:#000000;stroke-width:0.001;stroke-miterlimit:4;stroke-dasharray:none"
         d="m 293.55654,225.84034 a 1.0000006,1.0000006 0 1 0 -2,0 1.0000006,1.0000006 0 1 0 2,0 z"
         inkscape:connector-curvature="0" />
      <path
         id="path1790"
         style="fill:none;stroke:#000000;stroke-width:0.001;stroke-miterlimit:4;stroke-dasharray:none"
         d="m 292.90391,208.50415 a 1.0000001,1.0000001 0 1 0 -2,0 1.0000001,1.0000001 0 1 0 2,0 z"
         inkscape:connector-curvature="0" />
      <path
         id="path1792"
         style="fill:none;stroke:#000000;stroke-width:0.001;stroke-miterlimit:4;stroke-dasharray:none"
         d="m 278.5533,177.24035 a 1.0000006,1.0000006 0 1 0 -2,0 1.0000006,1.0000006 0 1 0 2,0 z"
         inkscape:connector-curvature="0" />
      <path
         id="path1794"
         style="fill:none;stroke:#000000;stroke-width:0.001;stroke-miterlimit:4;stroke-dasharray:none"
         d="m 281.59711,181.20711 a 1.0000001,1.0000001 0 1 0 -2,0 1.0000001,1.0000001 0 1 0 2,0 z"
         inkscape:connector-curvature="0" />
      <path
         id="path1796"
         style="fill:none;stroke:#000000;stroke-width:0.001;stroke-miterlimit:4;stroke-dasharray:none"
         d="m 293.55654,213.46138 a 1.0000006,1.0000006 0 1 0 -2,0 1.0000006,1.0000006 0 1 0 2,0 z"
         inkscape:connector-curvature="0" />
      <path
         id="path1798"
         style="fill:none;stroke:#000000;stroke-width:0.001;stroke-miterlimit:4;stroke-dasharray:none"
         d="m 292.90391,230.79757 a 1.0000001,1.0000001 0 1 0 -2,0 1.0000001,1.0000001 0 1 0 2,0 z"
         inkscape:connector-curvature="0" />
      <path
         id="path1800"
         style="fill:none;stroke:#000000;stroke-width:0.001;stroke-miterlimit:4;stroke-dasharray:none"
         d="m 278.5533,262.06137 a 1.0000006,1.0000006 0 1 0 -2,0 1.0000006,1.0000006 0 1 0 2,0 z"
         inkscape:connector-curvature="0" />
      <path
         id="path1802"
         style="fill:none;stroke:#000000;stroke-width:0.001;stroke-miterlimit:4;stroke-dasharray:none"
         d="m 250.4934,281.96132 a 1.0000001,1.0000001 0 1 0 -2,0 1.0000001,1.0000001 0 1 0 2,0 z"
         inkscape:connector-curvature="0" />
      <path
         id="path1804"
         style="fill:none;stroke:#000000;stroke-width:0.001;stroke-miterlimit:4;stroke-dasharray:none"
         d="m 204.2857,281.96132 a 1.0000001,1.0000001 0 1 0 -2,0 1.0000001,1.0000001 0 1 0 2,0 z"
         inkscape:connector-curvature="0" />
      <path
         id="path1806"
         style="fill:none;stroke:#000000;stroke-width:0.001;stroke-miterlimit:4;stroke-dasharray:none"
         d="m 176.2258,262.06137 a 1.0000006,1.0000006 0 1 0 -2,0 1.0000006,1.0000006 0 1 0 2,0 z"
         inkscape:connector-curvature="0" />
      <path
         id="path1808"
         style="fill:none;stroke:#000000;stroke-width:0.001;stroke-miterlimit:4;stroke-dasharray:none"
         d="m 161.87519,230.79757 a 1.0000001,1.0000001 0 1 0 -2,0 1.0000001,1.0000001 0 1 0 2,0 z"
         inkscape:connector-curvature="0" />
      <path
         id="path1810"
         style="fill:none;stroke:#000000;stroke-width:0.001;stroke-miterlimit:4;stroke-dasharray:none"
         d="m 165.0791,196.54699 a 1.0000006,1.0000006 0 1 0 -2,0 1.0000006,1.0000006 0 1 0 2,0 z"
         inkscape:connector-curvature="0" />
      <path
         id="path1812"
         style="fill:none;stroke:#000000;stroke-width:0.001;stroke-miterlimit:4;stroke-dasharray:none"
         d="m 184.97904,168.4871 a 1.0000006,1.0000006 0 1 0 -2,0 1.0000006,1.0000006 0 1 0 2,0 z"
         inkscape:connector-curvature="0" />
      <path
         id="path1814"
         style="fill:none;stroke:#000000;stroke-width:0.001;stroke-miterlimit:4;stroke-dasharray:none"
         d="m 216.24285,154.13649 a 1.0000001,1.0000001 0 1 0 -2,0 1.0000001,1.0000001 0 1 0 2,0 z"
         inkscape:connector-curvature="0" />
      <path
         id="path1816"
         style="fill:none;stroke:#000000;stroke-width:0.001;stroke-miterlimit:4;stroke-dasharray:none"
         d="m 250.4934,157.3404 a 1.0000001,1.0000001 0 1 0 -2,0 1.0000001,1.0000001 0 1 0 2,0 z"
         inkscape:connector-curvature="0" />
      <path
         id="path1818"
         style="fill:none;stroke:#000000;stroke-width:0.001;stroke-miterlimit:4;stroke-dasharray:none"
         d="m 233.57903,153.48386 a 1.0000001,1.0000001 0 1 0 -2,0 1.0000001,1.0000001 0 1 0 2,0 z"
         inkscape:connector-curvature="0" />
      <path
         id="path1820"
         style="fill:none;stroke:#000000;stroke-width:0.001;stroke-miterlimit:4;stroke-dasharray:none"
         d="m 199.6663,159.25382 a 1.0000006,1.0000006 0 1 0 -2,0 1.0000006,1.0000006 0 1 0 2,0 z"
         inkscape:connector-curvature="0" />
      <path
         id="path1822"
         style="fill:none;stroke:#000000;stroke-width:0.001;stroke-miterlimit:4;stroke-dasharray:none"
         d="m 173.18199,181.20711 a 1.0000001,1.0000001 0 1 0 -2,0 1.0000001,1.0000001 0 1 0 2,0 z"
         inkscape:connector-curvature="0" />
      <path
         id="path1824"
         style="fill:none;stroke:#000000;stroke-width:0.001;stroke-miterlimit:4;stroke-dasharray:none"
         d="m 161.22256,213.46138 a 1.0000006,1.0000006 0 1 0 -2,0 1.0000006,1.0000006 0 1 0 2,0 z"
         inkscape:connector-curvature="0" />
      <path
         id="path1826"
         style="fill:none;stroke:#000000;stroke-width:0.001;stroke-miterlimit:4;stroke-dasharray:none"
         d="m 166.99251,247.37411 a 1.0000001,1.0000001 0 1 0 -2,0 1.0000001,1.0000001 0 1 0 2,0 z"
         inkscape:connector-curvature="0" />
      <path
         id="path1828"
         style="fill:none;stroke:#000000;stroke-width:0.001;stroke-miterlimit:4;stroke-dasharray:none"
         d="m 188.94581,273.85843 a 1.0000001,1.0000001 0 1 0 -2,0 1.0000001,1.0000001 0 1 0 2,0 z"
         inkscape:connector-curvature="0" />
      <path
         id="path1830"
         style="fill:none;stroke:#000000;stroke-width:0.001;stroke-miterlimit:4;stroke-dasharray:none"
         d="m 221.20007,285.81786 a 1.0000001,1.0000001 0 1 0 -2,0 1.0000001,1.0000001 0 1 0 2,0 z"
         inkscape:connector-curvature="0" />
      <path
         id="path1832"
         style="fill:none;stroke:#000000;stroke-width:0.001;stroke-miterlimit:4;stroke-dasharray:none"
         d="m 265.83329,273.85843 a 1.0000001,1.0000001 0 1 0 -2,0 1.0000001,1.0000001 0 1 0 2,0 z"
         inkscape:connector-curvature="0" />
      <path
         id="path1834"
         style="fill:none;stroke:#000000;stroke-width:0.001;stroke-miterlimit:4;stroke-dasharray:none"
         d="m 287.78659,247.37411 a 1.0000001,1.0000001 0 1 0 -2,0 1.0000001,1.0000001 0 1 0 2,0 z"
         inkscape:connector-curvature="0" />
      <path
         id="path1836"
         style="fill:none;stroke:#000000;stroke-width:0.001;stroke-miterlimit:4;stroke-dasharray:none"
         d="m 265.83329,165.4433 a 1.0000001,1.0000001 0 1 0 -2,0 1.0000001,1.0000001 0 1 0 2,0 z"
         inkscape:connector-curvature="0" />
      <path
         id="path1838"
         style="fill:none;stroke:#000000;stroke-width:0.001;stroke-miterlimit:4;stroke-dasharray:none"
         d="m 289.7,196.54699 a 1.0000006,1.0000006 0 1 0 -2,0 1.0000006,1.0000006 0 1 0 2,0 z"
         inkscape:connector-curvature="0" />
      <path
         id="path1840"
         style="fill:none;stroke:#000000;stroke-width:0.001;stroke-miterlimit:4;stroke-dasharray:none"
         d="m 238.53625,285.16521 a 1.0000001,1.0000001 0 1 0 -2,0 1.0000001,1.0000001 0 1 0 2,0 z"
         inkscape:connector-curvature="0" />
      <path
         id="path1842"
         style="fill:none;stroke:#000000;stroke-width:0.001;stroke-miterlimit:4;stroke-dasharray:none"
         d="m 287.78659,191.92761 a 1.0000001,1.0000001 0 1 0 -2,0 1.0000001,1.0000001 0 1 0 2,0 z"
         inkscape:connector-curvature="0" />
      <path
         id="path1844"
         style="fill:none;stroke:#000000;stroke-width:0.001;stroke-miterlimit:4;stroke-dasharray:none"
         d="m 269.80006,168.4871 a 1.0000006,1.0000006 0 1 0 -2,0 1.0000006,1.0000006 0 1 0 2,0 z"
         inkscape:connector-curvature="0" />
      <path
         id="path1846"
         style="fill:none;stroke:#000000;stroke-width:0.001;stroke-miterlimit:4;stroke-dasharray:none"
         d="m 289.7,242.7547 a 1.0000006,1.0000006 0 1 0 -2,0 1.0000006,1.0000006 0 1 0 2,0 z"
         inkscape:connector-curvature="0" />
      <path
         id="path1848"
         style="fill:none;stroke:#000000;stroke-width:0.001;stroke-miterlimit:4;stroke-dasharray:none"
         d="m 269.80006,270.81461 a 1.0000006,1.0000006 0 1 0 -2,0 1.0000006,1.0000006 0 1 0 2,0 z"
         inkscape:connector-curvature="0" />
      <path
         id="path1850"
         style="fill:none;stroke:#000000;stroke-width:0.001;stroke-miterlimit:4;stroke-dasharray:none"
         d="m 233.57903,285.81786 a 1.0000001,1.0000001 0 1 0 -2,0 1.0000001,1.0000001 0 1 0 2,0 z"
         inkscape:connector-curvature="0" />
      <path
         id="path1852"
         style="fill:none;stroke:#000000;stroke-width:0.001;stroke-miterlimit:4;stroke-dasharray:none"
         d="m 199.6663,280.0479 a 1.0000006,1.0000006 0 1 0 -2,0 1.0000006,1.0000006 0 1 0 2,0 z"
         inkscape:connector-curvature="0" />
      <path
         id="path1854"
         style="fill:none;stroke:#000000;stroke-width:0.001;stroke-miterlimit:4;stroke-dasharray:none"
         d="m 173.18199,258.0946 a 1.0000001,1.0000001 0 1 0 -2,0 1.0000001,1.0000001 0 1 0 2,0 z"
         inkscape:connector-curvature="0" />
      <path
         id="path1856"
         style="fill:none;stroke:#000000;stroke-width:0.001;stroke-miterlimit:4;stroke-dasharray:none"
         d="m 161.22256,225.84034 a 1.0000006,1.0000006 0 1 0 -2,0 1.0000006,1.0000006 0 1 0 2,0 z"
         inkscape:connector-curvature="0" />
      <path
         id="path1858"
         style="fill:none;stroke:#000000;stroke-width:0.001;stroke-miterlimit:4;stroke-dasharray:none"
         d="m 166.99251,191.92761 a 1.0000001,1.0000001 0 1 0 -2,0 1.0000001,1.0000001 0 1 0 2,0 z"
         inkscape:connector-curvature="0" />
      <path
         id="path1860"
         style="fill:none;stroke:#000000;stroke-width:0.001;stroke-miterlimit:4;stroke-dasharray:none"
         d="m 188.94581,165.4433 a 1.0000001,1.0000001 0 1 0 -2,0 1.0000001,1.0000001 0 1 0 2,0 z"
         inkscape:connector-curvature="0" />
      <path
         id="path1862"
         style="fill:none;stroke:#000000;stroke-width:0.001;stroke-miterlimit:4;stroke-dasharray:none"
         d="m 221.20007,153.48386 a 1.0000001,1.0000001 0 1 0 -2,0 1.0000001,1.0000001 0 1 0 2,0 z"
         inkscape:connector-curvature="0" />
      <path
         id="path1864"
         style="fill:none;stroke:#000000;stroke-width:0.001;stroke-miterlimit:4;stroke-dasharray:none"
         d="m 255.1128,159.25382 a 1.0000006,1.0000006 0 1 0 -2,0 1.0000006,1.0000006 0 1 0 2,0 z"
         inkscape:connector-curvature="0" />
      <path
         id="path1866"
         style="fill:none;stroke:#000000;stroke-width:0.001;stroke-miterlimit:4;stroke-dasharray:none"
         d="m 258.78139,201.87319 8.66026,-5.00002 -0.8,-1.38562 -8.66026,4.99999 z"
         inkscape:connector-curvature="0" />
      <path
         id="path1868"
         style="fill:none;stroke:#000000;stroke-width:0.001;stroke-miterlimit:4;stroke-dasharray:none"
         d="m 227.18955,182.70986 v -10.00001 h -1.6 v 10.00001 z"
         inkscape:connector-curvature="0" />
      <path
         id="path1870"
         style="fill:none;stroke:#000000;stroke-width:0.001;stroke-miterlimit:4;stroke-dasharray:none"
         d="m 257.98139,238.81418 8.66026,4.99999 0.8,-1.38562 -8.66026,-5.00002 z"
         inkscape:connector-curvature="0" />
      <path
         id="path1872"
         style="fill:none;stroke:#000000;stroke-width:0.001;stroke-miterlimit:4;stroke-dasharray:none"
         d="m 193.99771,237.42853 -8.66026,5.00002 0.8,1.38562 8.66026,-4.99999 z"
         inkscape:connector-curvature="0" />
      <path
         id="path1874"
         style="fill:none;stroke:#000000;stroke-width:0.001;stroke-miterlimit:4;stroke-dasharray:none"
         d="m 194.79771,200.48754 -8.66026,-4.99999 -0.8,1.38562 8.66026,5.00002 z"
         inkscape:connector-curvature="0" />
      <path
         id="path1876"
         style="fill:none;stroke:#000000;stroke-width:0.001;stroke-miterlimit:4;stroke-dasharray:none"
         d="m 225.58955,256.59185 v 10.00001 h 1.6 v -10.00001 z"
         inkscape:connector-curvature="0" />
      <path
         id="path1878"
         style="fill:none;stroke:#000000;stroke-width:0.001;stroke-miterlimit:4;stroke-dasharray:none"
         d="m 207.33955,200.60086 v 38.1 h 38.1 v -38.1 z"
         inkscape:connector-curvature="0" />
      <path
         id="path1880"
         style="fill:none;stroke:#000000;stroke-width:0.001;stroke-miterlimit:4;stroke-dasharray:none"
         d="m 298.41455,219.65086 a 72.025,72.025 0 1 0 -144.05,0 72.025,72.025 0 1 0 144.05,0 z"
         inkscape:connector-curvature="0" />
      <path
         id="path1882"
         style="fill:none;stroke:#ff0000;stroke-width:0.001;stroke-miterlimit:4;stroke-dasharray:none;stroke-opacity:1"
         d="m 226.38955,219.65086 h -72.025"
         inkscape:connector-curvature="0" />
      <path
         id="path1884"
         style="fill:none;stroke:#ff0000;stroke-width:0.001;stroke-miterlimit:4;stroke-dasharray:none;stroke-opacity:1"
         d="m 226.38955,219.65086 -69.57081,18.64143"
         inkscape:connector-curvature="0" />
      <path
         id="path1886"
         style="fill:none;stroke:#ff0000;stroke-width:0.001;stroke-miterlimit:4;stroke-dasharray:none;stroke-opacity:1"
         d="m 226.38955,219.65086 -62.37548,36.01249"
         inkscape:connector-curvature="0" />
      <path
         id="path1888"
         style="fill:none;stroke:#ff0000;stroke-width:0.001;stroke-miterlimit:4;stroke-dasharray:none;stroke-opacity:1"
         d="m 226.38955,219.65086 -50.92936,50.92935"
         inkscape:connector-curvature="0" />
      <path
         id="path1890"
         style="fill:none;stroke:#ff0000;stroke-width:0.001;stroke-miterlimit:4;stroke-dasharray:none;stroke-opacity:1"
         d="m 226.38955,219.65086 -36.0125,62.37547"
         inkscape:connector-curvature="0" />
      <path
         id="path1892"
         style="fill:none;stroke:#ff0000;stroke-width:0.001;stroke-miterlimit:4;stroke-dasharray:none;stroke-opacity:1"
         d="m 226.38955,219.65086 -18.64144,69.57081"
         inkscape:connector-curvature="0" />
      <path
         id="path1894"
         style="fill:none;stroke:#ff0000;stroke-width:0.001;stroke-miterlimit:4;stroke-dasharray:none;stroke-opacity:1"
         d="m 226.38955,219.65086 v 72.025"
         inkscape:connector-curvature="0" />
      <path
         id="path1896"
         style="fill:none;stroke:#ff0000;stroke-width:0.001;stroke-miterlimit:4;stroke-dasharray:none;stroke-opacity:1"
         d="m 226.38955,219.65086 18.64144,69.57081"
         inkscape:connector-curvature="0" />
      <path
         id="path1898"
         style="fill:none;stroke:#ff0000;stroke-width:0.001;stroke-miterlimit:4;stroke-dasharray:none;stroke-opacity:1"
         d="m 226.38955,219.65086 36.0125,62.37547"
         inkscape:connector-curvature="0" />
      <path
         id="path1900"
         style="fill:none;stroke:#ff0000;stroke-width:0.001;stroke-miterlimit:4;stroke-dasharray:none;stroke-opacity:1"
         d="m 226.38955,219.65086 50.92936,50.92935"
         inkscape:connector-curvature="0" />
      <path
         id="path1902"
         style="fill:none;stroke:#ff0000;stroke-width:0.001;stroke-miterlimit:4;stroke-dasharray:none;stroke-opacity:1"
         d="m 226.38955,219.65086 62.37548,36.01249"
         inkscape:connector-curvature="0" />
      <path
         id="path1904"
         style="fill:none;stroke:#ff0000;stroke-width:0.001;stroke-miterlimit:4;stroke-dasharray:none;stroke-opacity:1"
         d="m 226.38955,219.65086 69.57081,18.64143"
         inkscape:connector-curvature="0" />
      <path
         id="path1906"
         style="fill:none;stroke:#ff0000;stroke-width:0.001;stroke-miterlimit:4;stroke-dasharray:none;stroke-opacity:1"
         d="m 226.38955,219.65086 h 72.025"
         inkscape:connector-curvature="0" />
      <path
         id="path1908"
         style="fill:none;stroke:#ff0000;stroke-width:0.001;stroke-miterlimit:4;stroke-dasharray:none;stroke-opacity:1"
         d="M 226.38955,219.65086 295.96036,201.0094"
         inkscape:connector-curvature="0" />
      <path
         id="path1910"
         style="fill:none;stroke:#ff0000;stroke-width:0.001;stroke-miterlimit:4;stroke-dasharray:none;stroke-opacity:1"
         d="m 226.38955,219.65086 62.37548,-36.0125"
         inkscape:connector-curvature="0" />
      <path
         id="path1912"
         style="fill:none;stroke:#ff0000;stroke-width:0.001;stroke-miterlimit:4;stroke-dasharray:none;stroke-opacity:1"
         d="m 226.38955,219.65086 50.92936,-50.92937"
         inkscape:connector-curvature="0" />
      <path
         id="path1914"
         style="fill:none;stroke:#ff0000;stroke-width:0.001;stroke-miterlimit:4;stroke-dasharray:none;stroke-opacity:1"
         d="m 226.38955,219.65086 36.0125,-62.37548"
         inkscape:connector-curvature="0" />
      <path
         id="path1916"
         style="fill:none;stroke:#ff0000;stroke-width:0.001;stroke-miterlimit:4;stroke-dasharray:none;stroke-opacity:1"
         d="m 226.38955,219.65086 18.64144,-69.57081"
         inkscape:connector-curvature="0" />
      <path
         id="path1918"
         style="fill:none;stroke:#ff0000;stroke-width:0.001;stroke-miterlimit:4;stroke-dasharray:none;stroke-opacity:1"
         d="M 226.38955,219.65086 V 147.62585"
         inkscape:connector-curvature="0" />
      <path
         id="path1920"
         style="fill:none;stroke:#ff0000;stroke-width:0.001;stroke-miterlimit:4;stroke-dasharray:none;stroke-opacity:1"
         d="M 226.38955,219.65086 207.74811,150.08005"
         inkscape:connector-curvature="0" />
      <path
         id="path1922"
         style="fill:none;stroke:#ff0000;stroke-width:0.001;stroke-miterlimit:4;stroke-dasharray:none;stroke-opacity:1"
         d="m 226.38955,219.65086 -36.0125,-62.37548"
         inkscape:connector-curvature="0" />
      <path
         id="path1924"
         style="fill:none;stroke:#ff0000;stroke-width:0.001;stroke-miterlimit:4;stroke-dasharray:none;stroke-opacity:1"
         d="M 226.38955,219.65086 175.46019,168.72149"
         inkscape:connector-curvature="0" />
      <path
         id="path1926"
         style="fill:none;stroke:#ff0000;stroke-width:0.001;stroke-miterlimit:4;stroke-dasharray:none;stroke-opacity:1"
         d="m 226.38955,219.65086 -62.37548,-36.0125"
         inkscape:connector-curvature="0" />
      <path
         id="path1928"
         style="fill:none;stroke:#ff0000;stroke-width:0.001;stroke-miterlimit:4;stroke-dasharray:none;stroke-opacity:1"
         d="M 226.38955,219.65086 156.81874,201.0094"
         inkscape:connector-curvature="0" />
    </g>
  </g>
</svg>
