0
SECTION
2
HEADER
9
$INSUNITS
70
4
9
$ACADVER
1
AC1014
9
$HANDSEED
5
FFFF
0
ENDSEC
0
SECTION
2
TABLES
0
TABLE
2
VPORT
5
8
100
AcDbSymbolTable
0
ENDTAB
0
TABLE
2
LTYPE
5
5
100
AcDbSymbolTable
0
LTYPE
5
14
100
AcDbSymbolTableRecord
100
AcDbLinetypeTableRecord
2
BYBLOCK
70
0
0
LTYPE
5
15
100
AcDbSymbolTableRecord
100
AcDbLinetypeTableRecord
2
BYLAYER
70
0
0
ENDTAB
0
TABLE
2
LAYER
5
2
100
AcDbSymbolTable
70
2
0
LAYER
5
50
100
AcDbSymbolTableRecord
100
AcDbLayerTableRecord
2
0
70
0
6
CONTINUOUS
0
ENDTAB
0
TABLE
2
STYLE
5
3
100
AcDbSymbolTable
70
1
0
STYLE
5
11
100
AcDbSymbolTableRecord
100
AcDbTextStyleTableRecord
2
STANDARD
70
0
0
ENDTAB
0
TABLE
2
VIEW
5
6
100
AcDbSymbolTable
70
0
0
ENDTAB
0
TABLE
2
UCS
5
7
100
AcDbSymbolTable
70
0
0
ENDTAB
0
TABLE
2
APPID
5
9
100
AcDbSymbolTable
70
2
0
APPID
5
12
100
AcDbSymbolTableRecord
100
AcDbRegAppTableRecord
2
ACAD
70
0
0
ENDTAB
0
TABLE
2
DIMSTYLE
5
A
100
AcDbSymbolTable
70
1
0
ENDTAB
0
TABLE
2
BLOCK_RECORD
5
1
100
AcDbSymbolTable
70
1
0
BLOCK_RECORD
5
1F
100
AcDbSymbolTableRecord
100
AcDbBlockTableRecord
2
*MODEL_SPACE
0
BLOCK_RECORD
5
1B
100
AcDbSymbolTableRecord
100
AcDbBlockTableRecord
2
*PAPER_SPACE
0
ENDTAB
0
ENDSEC
0
SECTION
2
BLOCKS
0
BLOCK
5
20
100
AcDbEntity
100
AcDbBlockBegin
2
*MODEL_SPACE
0
ENDBLK
5
21
100
AcDbEntity
100
AcDbBlockEnd
0
BLOCK
5
1C
100
AcDbEntity
100
AcDbBlockBegin
2
*PAPER_SPACE
0
ENDBLK
5
1D
100
AcDbEntity
100
AcDbBlockEnd
0
ENDSEC
0
SECTION
2
ENTITIES
0
CIRCLE
5
100
100
AcDbEntity
8
0
100
AcDbCircle
10
1.1102230246251565e-15
20
44.413699743319405
30
0
40
6.3499999999999988
0
LWPOLYLINE
5
101
100
AcDbEntity
8
0
100
AcDbPolyline
90
4
70
1
43
0.0
10
25.575312499999995
20
-14.852693358445135
10
25.575312499999995
20
14.85269335844513
10
18.68386781771877
20
14.852693358445066
10
18.68386781771877
20
-14.852693358445102
0
LWPOLYLINE
5
102
100
AcDbEntity
8
0
100
AcDbPolyline
90
4
70
1
43
0.0
10
-25.575312499999995
20
-14.852693358445128
10
-18.683867817718774
20
-14.852693358445098
10
-18.683867817718763
20
14.85269335844507
10
-25.575312499999995
20
14.852693358445137
0
LWPOLYLINE
5
103
100
AcDbEntity
8
0
100
AcDbPolyline
90
32
70
1
43
0.0
10
-10.68386781771877
20
0
10
-10.683867817718717
20
-53.711430608669879
42
-0.098491403357164359
10
-30.425081427411506
20
-45.534352193830799
10
-40.014946033236861
20
-59.886598826090818
42
-0.098491403357164137
10
-59.886598826090811
20
-40.014946033236861
10
-45.534352193830784
20
-30.425081427411524
42
-0.098491403357164137
10
-53.711430608669851
20
-10.683867817718786
10
-70.641059821042674
20
-14.051380443211681
42
-0.098491403357164359
10
-70.641059821042674
20
14.051380443211636
10
-53.711430608669879
20
10.683867817718735
42
-0.098491403357164248
10
-45.534352193830813
20
30.425081427411502
10
-59.886598826090832
20
40.014946033236811
42
-0.098491403357164359
10
-40.014946033236846
20
59.886598826090811
10
-30.425081427411534
20
45.534352193830763
42
-0.098491403357164359
10
-10.683867817718756
20
53.711430608669858
10
-14.051380443211636
20
70.641059821042674
42
-0.098491403357164248
10
14.051380443211652
20
70.641059821042674
10
10.68386781771876
20
53.711430608669843
42
-0.098491403357164137
10
30.425081427411492
20
45.534352193830792
10
40.014946033236825
20
59.886598826090854
42
-0.098491403357164359
10
59.886598826090818
20
40.014946033236853
10
45.534352193830799
20
30.425081427411488
42
-0.098491403357164137
10
53.711430608669858
20
10.683867817718751
10
70.641059821042674
20
14.051380443211624
42
-0.098491403357164137
10
70.641059821042674
20
-14.051380443211627
10
53.711430608669858
20
-10.683867817718706
42
-0.098491403357164359
10
45.534352193830799
20
-30.425081427411492
10
59.886598826090804
20
-40.014946033236868
42
-0.098491403357164137
10
40.014946033236853
20
-59.886598826090811
10
30.425081427411499
20
-45.534352193830827
42
-0.098491403357164026
10
10.68386781771877
20
-53.711430608669858
10
10.683867817718768
20
-6.5419822627413558e-16
42
0.99999999999999989
0
LINE
5
104
100
AcDbEntity
8
0
100
AcDbLine
10
72.024999999999991
20
-8.8817841970012523e-15
30
0
11
-72.024999999999991
21
-1.5543122344752192e-14
31
0
0
LINE
5
105
100
AcDbEntity
8
0
100
AcDbLine
10
69.570807638470143
20
18.641441723509043
30
0
11
-69.570807638470143
21
-18.641441723509072
31
0
0
LINE
5
106
100
AcDbEntity
8
0
100
AcDbLine
10
62.375479707574186
20
36.012499999999982
30
0
11
-62.375479707574186
21
-36.01250000000001
31
0
0
LINE
5
107
100
AcDbEntity
8
0
100
AcDbLine
10
50.929365914961082
20
50.929365914961068
30
0
11
-50.929365914961068
21
-50.929365914961096
31
0
0
LINE
5
108
100
AcDbEntity
8
0
100
AcDbLine
10
36.01250000000001
20
62.375479707574172
30
0
11
-36.012499999999996
21
-62.375479707574193
31
0
0
LINE
5
109
100
AcDbEntity
8
0
100
AcDbLine
10
18.641441723509079
20
69.570807638470143
30
0
11
-18.641441723509054
21
-69.570807638470143
31
0
0
LINE
5
110
100
AcDbEntity
8
0
100
AcDbLine
10
-7.1109784727241226e-15
20
72.025000000000006
30
0
11
3.1535885014477573e-14
21
-72.02500000000002
31
0
0
LINE
5
111
100
AcDbEntity
8
0
100
AcDbLine
10
-18.641441723509043
20
69.570807638470143
30
0
11
18.641441723509072
21
-69.570807638470143
31
0
0
LINE
5
112
100
AcDbEntity
8
0
100
AcDbLine
10
-36.012499999999967
20
62.375479707574193
30
0
11
36.012499999999996
21
-62.375479707574193
31
0
0
LINE
5
113
100
AcDbEntity
8
0
100
AcDbLine
10
-50.92936591496106
20
50.929365914961096
30
0
11
50.929365914961089
21
-50.929365914961089
31
0
0
LINE
5
114
100
AcDbEntity
8
0
100
AcDbLine
10
-62.375479707574151
20
36.012500000000024
30
0
11
62.375479707574179
21
-36.01250000000001
31
0
0
LINE
5
115
100
AcDbEntity
8
0
100
AcDbLine
10
-69.570807638470129
20
18.641441723509082
30
0
11
69.570807638470143
21
-18.641441723509061
31
0
0
LINE
5
116
100
AcDbEntity
8
0
100
AcDbLine
10
-72.024999999999991
20
1.7702302767860063e-14
30
0
11
72.024999999999991
21
6.7226037738933805e-15
31
0
0
LINE
5
117
100
AcDbEntity
8
0
100
AcDbLine
10
-69.570807638470157
20
-18.641441723509015
30
0
11
69.570807638470157
21
18.641441723509043
31
0
0
LINE
5
118
100
AcDbEntity
8
0
100
AcDbLine
10
-62.375479707574193
20
-36.012499999999967
30
0
11
62.375479707574193
21
36.012499999999996
31
0
0
LINE
5
119
100
AcDbEntity
8
0
100
AcDbLine
10
-50.929365914961117
20
-50.929365914961039
30
0
11
50.929365914961096
21
50.92936591496106
31
0
0
LINE
5
120
100
AcDbEntity
8
0
100
AcDbLine
10
-36.012500000000017
20
-62.375479707574151
30
0
11
36.012500000000003
21
62.375479707574179
31
0
0
LINE
5
121
100
AcDbEntity
8
0
100
AcDbLine
10
-18.641441723509111
20
-69.570807638470114
30
0
11
18.641441723509086
21
69.570807638470129
31
0
0
LINE
5
122
100
AcDbEntity
8
0
100
AcDbLine
10
-2.487454686672663e-14
20
-72.024999999999991
30
0
11
4.4964032497318769e-16
21
72.024999999999991
31
0
0
LINE
5
123
100
AcDbEntity
8
0
100
AcDbLine
10
18.641441723509004
20
-69.570807638470157
30
0
11
-18.641441723509033
21
69.570807638470157
31
0
0
LINE
5
124
100
AcDbEntity
8
0
100
AcDbLine
10
36.012499999999939
20
-62.375479707574215
30
0
11
-36.01249999999996
21
62.375479707574215
31
0
0
LINE
5
125
100
AcDbEntity
8
0
100
AcDbLine
10
50.929365914961053
20
-50.929365914961096
30
0
11
-50.929365914961082
21
50.929365914961089
31
0
0
LINE
5
126
100
AcDbEntity
8
0
100
AcDbLine
10
62.375479707574151
20
-36.012500000000031
30
0
11
-62.375479707574179
21
36.012500000000017
31
0
0
LINE
5
127
100
AcDbEntity
8
0
100
AcDbLine
10
69.570807638470114
20
-18.641441723509118
30
0
11
-69.570807638470129
21
18.641441723509097
31
0
0
ENDSEC
0
SECTION
2
OBJECTS
0
DICTIONARY
5
C
100
AcDbDictionary
3
ACAD_GROUP
350
D
3
ACAD_MLINESTYLE
350
17
0
DICTIONARY
5
D
100
AcDbDictionary
0
DICTIONARY
5
1A
330
C
100
AcDbDictionary
0
DICTIONARY
5
17
100
AcDbDictionary
0
ENDSEC
0
EOF
