0
SECTION
2
HEADER
9
$INSUNITS
70
4
9
$ACADVER
1
AC1014
9
$HANDSEED
5
FFFF
0
ENDSEC
0
SECTION
2
TABLES
0
TABLE
2
VPORT
5
8
100
AcDbSymbolTable
0
ENDTAB
0
TABLE
2
LTYPE
5
5
100
AcDbSymbolTable
0
LTYPE
5
14
100
AcDbSymbolTableRecord
100
AcDbLinetypeTableRecord
2
BYBLOCK
70
0
0
LTYPE
5
15
100
AcDbSymbolTableRecord
100
AcDbLinetypeTableRecord
2
BYLAYER
70
0
0
ENDTAB
0
TABLE
2
LAYER
5
2
100
AcDbSymbolTable
70
2
0
LAYER
5
50
100
AcDbSymbolTableRecord
100
AcDbLayerTableRecord
2
0
70
0
6
CONTINUOUS
0
ENDTAB
0
TABLE
2
STYLE
5
3
100
AcDbSymbolTable
70
1
0
STYLE
5
11
100
AcDbSymbolTableRecord
100
AcDbTextStyleTableRecord
2
STANDARD
70
0
0
ENDTAB
0
TABLE
2
VIEW
5
6
100
AcDbSymbolTable
70
0
0
ENDTAB
0
TABLE
2
UCS
5
7
100
AcDbSymbolTable
70
0
0
ENDTAB
0
TABLE
2
APPID
5
9
100
AcDbSymbolTable
70
2
0
APPID
5
12
100
AcDbSymbolTableRecord
100
AcDbRegAppTableRecord
2
ACAD
70
0
0
ENDTAB
0
TABLE
2
DIMSTYLE
5
A
100
AcDbSymbolTable
70
1
0
ENDTAB
0
TABLE
2
BLOCK_RECORD
5
1
100
AcDbSymbolTable
70
1
0
BLOCK_RECORD
5
1F
100
AcDbSymbolTableRecord
100
AcDbBlockTableRecord
2
*MODEL_SPACE
0
BLOCK_RECORD
5
1B
100
AcDbSymbolTableRecord
100
AcDbBlockTableRecord
2
*PAPER_SPACE
0
ENDTAB
0
ENDSEC
0
SECTION
2
BLOCKS
0
BLOCK
5
20
100
AcDbEntity
100
AcDbBlockBegin
2
*MODEL_SPACE
0
ENDBLK
5
21
100
AcDbEntity
100
AcDbBlockEnd
0
BLOCK
5
1C
100
AcDbEntity
100
AcDbBlockBegin
2
*PAPER_SPACE
0
ENDBLK
5
1D
100
AcDbEntity
100
AcDbBlockEnd
0
ENDSEC
0
SECTION
2
ENTITIES
0
CIRCLE
5
100
100
AcDbEntity
8
0
100
AcDbCircle
10
-8.6680898938093076
20
65.840679512366023
30
0
40
5
0
CIRCLE
5
101
100
AcDbEntity
8
0
100
AcDbCircle
10
-8.6680899072660011
20
-65.840679510594413
30
0
40
5.0000000000000089
0
CIRCLE
5
102
100
AcDbEntity
8
0
100
AcDbCircle
10
61.353746012237373
20
25.413553693317343
30
0
40
5
0
CIRCLE
5
103
100
AcDbEntity
8
0
100
AcDbCircle
10
40.427125817277087
20
52.685656104971336
30
0
40
5
0
CIRCLE
5
104
100
AcDbEntity
8
0
100
AcDbCircle
10
40.427125806509039
20
-52.685656113233954
30
0
40
5
0
CIRCLE
5
105
100
AcDbEntity
8
0
100
AcDbCircle
10
-61.353746007043249
20
25.413553705857016
30
0
40
5.0000000000000044
0
CIRCLE
5
106
100
AcDbEntity
8
0
100
AcDbCircle
10
61.353746007043249
20
-25.413553705857012
30
0
40
5
0
CIRCLE
5
107
100
AcDbEntity
8
0
100
AcDbCircle
10
-65.840679510594413
20
8.6680899072660385
30
0
40
5.0000000000000044
0
CIRCLE
5
108
100
AcDbEntity
8
0
100
AcDbCircle
10
-52.685656113233954
20
-40.427125806509032
30
0
40
5.0000000000000044
0
CIRCLE
5
109
100
AcDbEntity
8
0
100
AcDbCircle
10
0
20
0
30
0
40
57.941000000000017
0
CIRCLE
5
110
100
AcDbEntity
8
0
100
AcDbCircle
10
25.413553705857012
20
61.353746007043249
30
0
40
5
0
CIRCLE
5
111
100
AcDbEntity
8
0
100
AcDbCircle
10
-65.840679512366023
20
-8.66808989380932
30
0
40
5.0000000000000044
0
CIRCLE
5
112
100
AcDbEntity
8
0
100
AcDbCircle
10
-52.685656104971343
20
40.427125817277066
30
0
40
5.0000000000000044
0
CIRCLE
5
113
100
AcDbEntity
8
0
100
AcDbCircle
10
65.840679512366023
20
8.6680898938093129
30
0
40
5
0
CIRCLE
5
114
100
AcDbEntity
8
0
100
AcDbCircle
10
-40.427125817277059
20
-52.685656104971351
30
0
40
5.0000000000000044
0
CIRCLE
5
115
100
AcDbEntity
8
0
100
AcDbCircle
10
25.413553693317368
20
-61.353746012237345
30
0
40
5
0
CIRCLE
5
116
100
AcDbEntity
8
0
100
AcDbCircle
10
-40.427125806509004
20
52.685656113233975
30
0
40
5.0000000000000044
0
CIRCLE
5
117
100
AcDbEntity
8
0
100
AcDbCircle
10
52.685656113233954
20
40.427125806509032
30
0
40
5
0
CIRCLE
5
118
100
AcDbEntity
8
0
100
AcDbCircle
10
65.840679510594413
20
-8.6680899072660047
30
0
40
5
0
CIRCLE
5
119
100
AcDbEntity
8
0
100
AcDbCircle
10
-25.413553693317333
20
61.353746012237373
30
0
40
5.0000000000000044
0
CIRCLE
5
120
100
AcDbEntity
8
0
100
AcDbCircle
10
8.6680898938093431
20
-65.840679512366037
30
0
40
5
0
CIRCLE
5
121
100
AcDbEntity
8
0
100
AcDbCircle
10
-61.353746012237345
20
-25.413553693317365
30
0
40
5.0000000000000044
0
CIRCLE
5
122
100
AcDbEntity
8
0
100
AcDbCircle
10
52.685656104971351
20
-40.427125817277066
30
0
40
5
0
CIRCLE
5
123
100
AcDbEntity
8
0
100
AcDbCircle
10
8.6680899072660278
20
65.840679510594413
30
0
40
5
0
CIRCLE
5
124
100
AcDbEntity
8
0
100
AcDbCircle
10
-25.413553705856991
20
-61.35374600704327
30
0
40
5.0000000000000044
0
LWPOLYLINE
5
125
100
AcDbEntity
8
0
100
AcDbPolyline
90
96
70
1
43
0.0
10
-72.007502864284902
20
-1.58750000000074
10
-64.959935986310654
20
-1.58750000000074
10
-64.95993598631064
20
1.5874999999992545
10
-72.007502864284945
20
1.5874999999992734
42
-0.054482286596627107
10
-69.964781937297289
20
17.103505882316618
10
-63.157355077362531
20
15.279461352663173
10
-62.335604609162033
20
18.346275851130954
10
-69.143031469096854
20
20.170320380784375
42
-0.054482286596627329
10
-63.15407674355184
20
34.628936103633976
10
-57.050704792356356
20
31.105152664646852
10
-55.46320479235635
20
33.854783321662445
10
-61.566576743551948
20
37.378566760649491
42
-0.05448228659662778
10
-52.039525586779774
20
49.794461556511436
10
-47.056143256498473
20
44.811079226230135
10
-44.811079226231179
20
47.056143256497414
10
-49.794461556512523
20
52.039525586778758
42
-0.054482286596627218
10
-37.378566760650898
20
61.566576743551089
10
-33.854783321663774
20
55.463204792355604
10
-31.10515266464818
20
57.050704792355596
10
-34.628936103635361
20
63.154076743551109
42
-0.054482286596627218
10
-20.170320380785903
20
69.1430314690964
10
-18.346275851132443
20
62.335604609161649
10
-15.279461352664656
20
63.157355077362141
10
-17.103505882318117
20
69.964781937296934
42
-0.054482286596627329
10
-1.58750000000075
20
72.007502864284902
10
-1.58750000000075
20
64.95993598631064
10
1.587499999999249
20
64.95993598631064
10
1.587499999999209
20
72.007502864284945
42
-0.054482286596627329
10
17.103505882316618
20
69.964781937297289
10
15.279461352663164
20
63.157355077362539
10
18.34627585113094
20
62.335604609162033
10
20.170320380784386
20
69.143031469096826
42
-0.054482286596627329
10
34.62893610363399
20
63.15407674355184
10
31.105152664646873
20
57.050704792356342
10
33.854783321662467
20
55.463204792356336
10
37.378566760649619
20
61.566576743551877
42
-0.054482286596627107
10
49.794461556511401
20
52.039525586779803
10
44.811079226230099
20
47.056143256498487
10
47.056143256497379
20
44.811079226231207
10
52.039525586778694
20
49.794461556512587
42
-0.05448228659662744
10
61.566576743551089
20
37.378566760650912
10
55.463204792355604
20
33.854783321663781
10
57.050704792355596
20
31.105152664648191
10
63.15407674355113
20
34.628936103635333
42
-0.054482286596627107
10
69.1430314690964
20
20.170320380785903
10
62.335604609161635
20
18.346275851132447
10
63.157355077362133
20
15.279461352664661
10
69.96478193729692
20
17.103505882318078
42
-0.054482286596627107
10
72.007502864284888
20
1.5875000000007777
10
64.959935986310626
20
1.5875000000007733
10
64.959935986310626
20
-1.5874999999992212
10
72.007502864284916
20
-1.5874999999992401
42
-0.054482286596627218
10
69.964781937297275
20
-17.103505882316611
10
63.157355077362539
20
-15.279461352663169
10
62.335604609162026
20
-18.346275851130951
10
69.143031469096854
20
-20.170320380784407
42
-0.054482286596627218
10
63.154076743551848
20
-34.628936103633976
10
57.050704792356363
20
-31.105152664646859
10
55.463204792356365
20
-33.854783321662453
10
61.566576743551877
20
-37.378566760649619
42
-0.054482286596627107
10
52.039525586779803
20
-49.794461556511401
10
47.056143256498501
20
-44.811079226230106
10
44.811079226231215
20
-47.056143256497379
10
49.794461556512495
20
-52.039525586778751
42
-0.054482286596626996
10
37.378566760650934
20
-61.566576743551053
10
33.854783321663795
20
-55.463204792355569
10
31.105152664648223
20
-57.05070479235556
10
34.628936103635375
20
-63.154076743551087
42
-0.054482286596627218
10
20.170320380785924
20
-69.1430314690964
10
18.346275851132468
20
-62.335604609161649
10
15.279461352664692
20
-63.157355077362148
10
17.103505882318153
20
-69.964781937296934
42
-0.054482286596627329
10
1.5875000000007855
20
-72.007502864284902
10
1.5875000000007855
20
-64.959935986310654
10
-1.5874999999992134
20
-64.95993598631064
10
-1.5874999999992445
20
-72.007502864284959
42
-0.054482286596627107
10
-17.10350588231659
20
-69.964781937297303
10
-15.279461352663146
20
-63.15735507736256
10
-18.346275851130933
20
-62.335604609162047
10
-20.170320380784386
20
-69.143031469096826
42
-0.054482286596627218
10
-34.628936103633961
20
-63.154076743551848
10
-31.105152664646845
20
-57.050704792356356
10
-33.854783321662431
20
-55.46320479235635
10
-37.378566760649562
20
-61.566576743551906
42
-0.054482286596627329
10
-49.794461556511393
20
-52.039525586779796
10
-44.811079226230106
20
-47.056143256498487
10
-47.056143256497393
20
-44.811079226231207
10
-52.039525586778694
20
-49.794461556512545
42
-0.054482286596627218
10
-61.566576743551053
20
-37.378566760650941
10
-55.463204792355569
20
-33.854783321663803
10
-57.05070479235556
20
-31.105152664648216
10
-63.154076743551116
20
-34.62893610363534
42
-0.054482286596627107
10
-69.143031469096385
20
-20.170320380785913
10
-62.335604609161635
20
-18.346275851132457
10
-63.157355077362141
20
-15.279461352664669
10
-69.964781937296905
20
-17.103505882318231
42
-0.05448228659662778
0
ENDSEC
0
SECTION
2
OBJECTS
0
DICTIONARY
5
C
100
AcDbDictionary
3
ACAD_GROUP
350
D
3
ACAD_MLINESTYLE
350
17
0
DICTIONARY
5
D
100
AcDbDictionary
0
DICTIONARY
5
1A
330
C
100
AcDbDictionary
0
DICTIONARY
5
17
100
AcDbDictionary
0
ENDSEC
0
EOF
